{
.appVersion = "3190";
.storedFileType = com.glyphsapp.glyphspackage;
.formatVersion = 3;
DisplayStrings = (
":",
"/colon.case 
:S:
:T:
:V:
:oo: :bd:  
:h:
:o:
:8:
:ȷ:
‘:’
7:
3:
",
"/colon.case/hyphen.case/endash.case/emdash.case/parenleft.case/parenright.case/braceleft.case/braceright.case/bracketleft.case/bracketright.case/at.case −/_smart.upperstem −/plus.case/minus.case/equal.case"
);
axes = (
{
name = Weight;
tag = wght;
}
);
customParameters = (
{
name = fsType;
value = (
);
}
);
date = "2023-04-24 09:05:49 +0000";
familyName = "Wanted Sans Beta";
featurePrefixes = (
{
automatic = 1;
code = "languagesystem DFLT dflt;
";
name = Languagesystems;
}
);
features = (
{
automatic = 1;
code = "feature cv01;
feature cv02;
feature cv03;
feature cv04;
feature cv05;
feature cv06;
feature cv07;
feature cv08;
feature cv09;
feature cv10;
feature cv11;
feature cv12;
feature cv13;
";
tag = aalt;
},
{
automatic = 1;
code = "lookup ccmp_Other_1 {
	@CombiningTopAccents = [dotaccentcomb];
	sub [i j]' @CombiningTopAccents by [idotless jdotless];
} ccmp_Other_1;
";
tag = ccmp;
},
{
automatic = 1;
code = "sub j by j.cv01;
sub jdotless by jdotless.cv01;
";
tag = cv01;
},
{
automatic = 1;
code = "sub t by t.cv02;
";
tag = cv02;
},
{
automatic = 1;
code = "sub a by a.cv03;
";
tag = cv03;
},
{
automatic = 1;
code = "sub u by u.cv04;
";
tag = cv04;
},
{
automatic = 1;
code = "sub J by J.cv05;
";
tag = cv05;
},
{
automatic = 1;
code = "sub Q by Q.cv06;
";
tag = cv06;
},
{
automatic = 1;
code = "sub one by one.cv07;
";
tag = cv07;
},
{
automatic = 1;
code = "sub two by two.cv08;
";
tag = cv08;
},
{
automatic = 1;
code = "sub three by three.cv09;
";
tag = cv09;
},
{
automatic = 1;
code = "sub four by four.cv10;
";
tag = cv10;
},
{
automatic = 1;
code = "sub six by six.cv11;
sub nine by nine.cv11;
";
tag = cv11;
},
{
automatic = 1;
code = "sub seven by seven.cv12;
";
tag = cv12;
},
{
automatic = 1;
code = "sub question by question.cv13;
";
tag = cv13;
}
);
fontMaster = (
{
axesValues = (

glyphs = (
{
glyphname = A;
kernLeft = A;
kernRight = A;
layers = (
{
background = {
shapes = (
{
closed = 0;
nodes = (
(-218,0,l),
(1408,0,l)
);
},
{
closed = 0;
nodes = (
(-218,1448,l),
(1410,1448,l)
);
},
{
closed = 0;
nodes = (
(1408,0,l),
(794,1540,l)
);
},
{
closed = 0;
nodes = (
(-214,504,l),
(1414,504,l)
);
},
{
closed = 0;
nodes = (
(-214,1448,l),
(1414,1448,l)
);
}
);
};
layerId = m01;
metricLeft = "=44";
metricRight = "=|";
shapes = (
{
closed = 1;
nodes = (
(1392,0,l),
(830,1448,l),
(640,1448,l),
(1196,0,l)
);
},
{
closed = 1;
nodes = (
(240,0,l),
(796,1448,l),
(606,1448,l),
(44,0,l)
);
},
{
closed = 1;
nodes = (
(1116,420,l),
(1116,588,l),
(320,588,l),
(320,420,l)
);
}
);
width = 1436;
},
{
background = {
shapes = (
{
closed = 0;
nodes = (
(-214,0,l),
(1414,0,l)
);
},
{
closed = 0;
nodes = (
(894,1650,l),
(1578,0,l)
);
},
{
closed = 0;
nodes = (
(-214,0,l),
(1414,0,l)
);
},
{
closed = 0;
nodes = (
(-214,1448,l),
(1414,1448,l)
);
},
{
closed = 0;
nodes = (
(-214,384,l),
(1414,384,l)
);
},
{
closed = 0;
nodes = (
(-214,1448,l),
(1414,1448,l)
);
}
);
};
layerId = "94F54C43-8AEE-4ED6-B3C2-2A9D33534E61";
metricLeft = "=36";
metricRight = "=|";
shapes = (
{
closed = 1;
nodes = (
(1564,0,l),
(1002,1448,l),
(638,1448,l),
(1088,0,l)
);
},
{
closed = 1;
nodes = (
(512,0,l),
(962,1448,l),
(598,1448,l),
(36,0,l)
);
},
{
closed = 1;
nodes = (
(1108,208,l),
(1108,560,l),
(492,560,l),
(492,208,l)
);
}
);
width = 1600;
},
{
.lastUpdate = 704278045.59;
associatedMasterId = "94F54C43-8AEE-4ED6-B3C2-2A9D33534E61";
attr = {
axisRules = (
{
max = 700;
min = 400;
}
);
};
layerId = "695D58DF-94D9-4F4B-A2CE-365769D57C5A";
metricLeft = "=36";
metricRight = "=|A";
name = "Apr 11, 23 15:29";
shapes = (
{
closed = 1;
nodes = (
(1564,0,l),
(1002,1448,l),
(638,1448,l),
(1088,0,l)
);
},
{
closed = 1;
nodes = (
(512,0,l),
(962,1448,l),
(598,1448,l),
(36,0,l)
);
},
{
closed = 1;
nodes = (
(1108,200,l),
(1108,600,l),
(492,600,l),
(492,200,l)
);
}
);
width = 1600;
},
{
associatedMasterId = m01;
background = {
shapes = (
{
pos = (18,1032);
ref = v;
scale = (1,-1);
},
{
closed = 0;
nodes = (
(-202,0,l),
(1424,0,l),
(810,1540,l)
);
},
{
closed = 0;
nodes = (
(-202,1258,l),
(1426,1258,l)
);
},
{
closed = 0;
nodes = (
(-202,504,l),
(1426,504,l)
);
},
{
closed = 0;
nodes = (
(-202,1258,l),
(1426,1258,l)
);
}
);
};
layerId = "438F2397-875D-4222-9B54-03CF4A61BAF1";
name = "Apr 13, 23 11:44";
shapes = (
{
closed = 1;
nodes = (
(1424,0,l),
(846,1448,l),
(658,1448,l),
(1228,0,l)
);
},
{
closed = 1;
nodes = (
(240,0,l),
(810,1448,l),
(622,1448,l),
(44,0,l)
);
},
{
closed = 1;
nodes = (
(1132,426,l),
(1132,594,l),
(336,594,l),
(336,426,l)
);
}
);
width = 1468;
},
{
associatedMasterId = "94F54C43-8AEE-4ED6-B3C2-2A9D33534E61";
background = {
shapes = (
{
pos = (4,1032);
ref = v;
scale = (1,-1);
},
{
closed = 0;
nodes = (
(-202,0,l),
(1426,0,l)
);
},
{
closed = 0;
nodes = (
(-202,990,l),
(1426,990,l)
);
},
{
closed = 0;
nodes = (
(-202,470,l),
(1426,470,l)
);
},
{
closed = 0;
nodes = (
(-202,990,l),
(1426,990,l)
);
},
{
closed = 0;
nodes = (
(906,1650,l),
(1590,0,l)
);
}
);
};
layerId = "98A8CB0D-88BB-4D76-BDA9-C475C975F2A4";
name = "Apr 13, 23 11:46";
shapes = (
{
closed = 1;
nodes = (
(1588,0,l),
(1014,1448,l),
(642,1448,l),
(1148,0,l)
);
},
{
closed = 1;
nodes = (
(476,0,l),
(982,1448,l),
(610,1448,l),
(36,0,l)
);
},
{
closed = 1;
nodes = (
(1120,292,l),
(1120,648,l),
(504,648,l),
(504,292,l)
);
}
);
width = 1624;
},
{
associatedMasterId = "94F54C43-8AEE-4ED6-B3C2-2A9D33534E61";
background = {
shapes = (
{
pos = (-8,1032);
ref = v;
scale = (1,-1);
},
{
closed = 0;
nodes = (
(-214,0,l),
(1414,0,l)
);
},
{
closed = 0;
nodes = (
(-214,990,l),
(1414,990,l)
);
},
{
closed = 0;
nodes = (
(-214,470,l),
(1414,470,l)
);
},
{
closed = 0;
nodes = (
(-214,990,l),
(1414,990,l)
);
},
{
closed = 0;
nodes = (
(894,1650,l),
(1578,0,l)
);
}
);
};
layerId = "A4E73642-8D96-4529-A67F-E7CDCCCD318D";
metricLeft = "=36";
metricRight = "=|A";
name = "Apr 13, 23 13:14";
shapes = (
{
closed = 1;
nodes = (
(1564,0,l),
(1002,1448,l),
(626,1448,l),
(1098,0,l)
);
},
{
closed = 1;
nodes = (
(502,0,l),
(974,1448,l),
(598,1448,l),
(36,0,l)
);
},
{
closed = 1;
nodes = (
(1108,290,l),
(1108,650,l),
(492,650,l),
(492,290,l)
);
}
);
width = 1600;
}
);
unicode = 65;
},
{
glyphname = B;
kernLeft = H;
kernRight = B;
layers = (
{
.lastUpdate = 704788315.216;
background = {
shapes = (
{
closed = 1;
nodes = (
(96,0,l),
(572,0,ls),
(860,0,o),
(1116,124,o),
(1116,412,cs),
(1116,614,o),
(980,742,o),
(796,764,c),
(796,768,l),
(948,808,o),
(1050,920,o),
(1050,1082,cs),
(1050,1358,o),
(814,1448,o),
(596,1448,cs),
(96,1448,l)
);
},
{
closed = 1;
nodes = (
(298,666,l),
(570,666,ls),
(792,666,o),
(912,594,o),
(912,422,cs),
(912,222,o),
(716,172,o),
(552,172,cs),
(298,172,l)
);
},
{
closed = 1;
nodes = (
(298,1278,l),
(530,1278,ls),
(724,1278,o),
(846,1218,o),
(846,1062,cs),
(846,904,o),
(714,836,o),
(562,836,cs),
(298,836,l)
);
}
);
};
layerId = m01;
shapes = (
{
piece = {
Condensed = 48;
};
ref = _smart.upperstem;
},
{
pos = (320,0);
ref = _part.Bbase;
}
);
width = 1208;
},
{
.lastUpdate = 704788277.651;
background = {
shapes = (
{
closed = 1;
nodes = (
(694,0,ls),
(978,0,o),
(1256,108,o),
(1256,424,cs),
(1256,608,o),
(1122,718,o),
(984,754,c),
(984,760,l),
(1112,808,o),
(1196,908,o),
(1196,1064,cs),
(1196,1394,o),
(876,1448,o),
(632,1448,cs),
(38,1448,l),
(38,0,l)
);
},
{
closed = 1;
nodes = (
(492,580,l),
(616,580,ls),
(674,580,o),
(766,558,o),
(766,484,cs),
(766,418,o),
(712,382,o),
(636,382,cs),
(492,382,l)
);
},
{
closed = 1;
nodes = (
(492,1070,l),
(612,1070,ls),
(688,1070,o),
(738,1042,o),
(738,988,cs),
(738,922,o),
(690,892,o),
(622,892,cs),
(492,892,l)
);
}
);
};
layerId = "94F54C43-8AEE-4ED6-B3C2-2A9D33534E61";
shapes = (
{
piece = {
Condensed = 48;
};
ref = _smart.upperstem;
},
{
pos = (548,0);
ref = _part.Bbase;
}
);
width = 1344;
},
{
associatedMasterId = "94F54C43-8AEE-4ED6-B3C2-2A9D33534E61";
background = {
shapes = (
{
closed = 1;
nodes = (
(674,0,ls),
(958,0,o),
(1236,108,o),
(1236,424,cs),
(1236,608,o),
(1102,718,o),
(964,754,c),
(964,760,l),
(1092,808,o),
(1176,908,o),
(1176,1064,cs),
(1176,1394,o),
(856,1448,o),
(612,1448,cs),
(18,1448,l),
(18,0,l)
);
},
{
closed = 1;
nodes = (
(472,580,l),
(596,580,ls),
(654,580,o),
(746,558,o),
(746,484,cs),
(746,418,o),
(692,382,o),
(616,382,cs),
(472,382,l)
);
},
{
closed = 1;
nodes = (
(472,1070,l),
(592,1070,ls),
(668,1070,o),
(718,1042,o),
(718,988,cs),
(718,922,o),
(670,892,o),
(602,892,cs),
(472,892,l)
);
}
);
};
layerId = "5BB4BFBF-75EE-4A8F-BB75-AC10E4C16F51";
name = Avenir;
shapes = (
{
closed = 1;
nodes = (
(772,0,ls),
(1056,0,o),
(1334,108,o),
(1334,424,cs),
(1334,608,o),
(1200,718,o),
(1062,754,c),
(1062,760,l),
(1190,808,o),
(1274,908,o),
(1274,1064,cs),
(1274,1394,o),
(954,1448,o),
(710,1448,cs),
(116,1448,l),
(116,0,l)
);
},
{
closed = 1;
nodes = (
(570,580,l),
(694,580,ls),
(752,580,o),
(844,558,o),
(844,484,cs),
(844,418,o),
(790,382,o),
(714,382,cs),
(570,382,l)
);
},
{
closed = 1;
nodes = (
(570,1070,l),
(690,1070,ls),
(766,1070,o),
(816,1042,o),
(816,988,cs),
(816,922,o),
(768,892,o),
(700,892,cs),
(570,892,l)
);
}
);
width = 1394;
}
);
metricLeft = H;
metricRight = O;
unicode = 66;
},
{
glyphname = C;
kernLeft = O;
kernRight = C;
layers = (
{
background = {
shapes = (
{
closed = 1;
nodes = (
(1206,-28,o),
(1520,302,o),
(1520,724,cs),
(1520,1146,o),
(1206,1476,o),
(806,1476,cs),
(406,1476,o),
(92,1146,o),
(92,724,cs),
(92,302,o),
(406,-28,o),
(806,-28,cs)
);
},
{
closed = 1;
nodes = (
(510,144,o),
(276,400,o),
(276,724,cs),
(276,1048,o),
(510,1304,o),
(806,1304,cs),
(1102,1304,o),
(1336,1048,o),
(1336,724,cs),
(1336,400,o),
(1102,144,o),
(806,144,cs)
);
}
);
};
layerId = m01;
shapes = (
{
closed = 1;
nodes = (
(1116,-28,o),
(1374,170,o),
(1476,454,c),
(1454,196,l),
(1176,404,l),
(1298,502,l),
(1218,290,o),
(1030,144,o),
(806,144,cs),
(510,144,o),
(276,400,o),
(276,724,cs),
(276,1048,o),
(510,1304,o),
(806,1304,cs),
(1030,1304,o),
(1218,1158,o),
(1298,946,c),
(1176,1044,l),
(1454,1252,l),
(1476,994,l),
(1374,1278,o),
(1116,1476,o),
(806,1476,cs),
(406,1476,o),
(92,1146,o),
(92,724,cs),
(92,302,o),
(406,-28,o),
(806,-28,cs)
);
}
);
width = 1464;
},
{
associatedMasterId = m01;
background = {
shapes = (
{
closed = 0;
nodes = (
(276,724,l),
(276,1064,o),
(506,1304,o),
(832,1304,cs),
(1172,1304,o),
(1412,1064,o),
(1412,724,c)
);
},
{
closed = 0;
nodes = (
(92,724,l),
(92,1154,o),
(408,1476,o),
(832,1476,cs),
(1270,1476,o),
(1596,1154,o),
(1596,724,c)
);
}
);
};
layerId = "3D1BE0DA-4021-47EB-A04E-EBD6E9BCEE91";
metricRight = "=O/1.54";
name = "Apr 15, 23 2:57";
shapes = (
{
closed = 1;
nodes = (
(1160,-28,o),
(1418,146,o),
(1532,408,c),
(1502,188,l),
(1224,396,l),
(1360,464,l),
(1274,268,o),
(1084,144,o),
(844,144,cs),
(510,144,o),
(276,384,o),
(276,724,cs),
(276,1064,o),
(510,1304,o),
(844,1304,cs),
(1084,1304,o),
(1273,1180,o),
(1360,984,c),
(1224,1052,l),
(1502,1260,l),
(1532,1040,l),
(1417,1302,o),
(1160,1476,o),
(844,1476,cs),
(414,1476,o),
(92,1154,o),
(92,724,cs),
(92,294,o),
(414,-28,o),
(844,-28,cs)
);
}
);
width = 1490;
},
{
annotations = (
{
pos = (1074,1760);
text = "90% 정도로 좁혀보자";
type = Text;
}
);
associatedMasterId = m01;
background = {
shapes = (
{
closed = 0;
nodes = (
(276,724,l),
(276,1048,o),
(520,1304,o),
(832,1304,cs),
(1144,1304,o),
(1388,1048,o),
(1388,724,cs)
);
},
{
closed = 0;
nodes = (
(92,724,l),
(92,1146,o),
(418,1476,o),
(832,1476,cs),
(1246,1476,o),
(1572,1146,o),
(1572,724,cs)
);
}
);
};
layerId = "6346E092-ADFC-4488-B392-2086E97533F8";
metricRight = "=O/1.54";
name = "100%";
shapes = (
{
closed = 1;
nodes = (
(1150,-28,o),
(1416,166,o),
(1522,446,c),
(1502,196,l),
(1224,404,l),
(1346,500,l),
(1264,290,o),
(1068,144,o),
(832,144,cs),
(520,144,o),
(276,400,o),
(276,724,cs),
(276,1048,o),
(520,1304,o),
(832,1304,cs),
(1068,1304,o),
(1264,1158,o),
(1346,948,c),
(1224,1044,l),
(1502,1252,l),
(1522,1002,l),
(1416,1282,o),
(1150,1476,o),
(832,1476,cs),
(418,1476,o),
(92,1146,o),
(92,724,cs),
(92,302,o),
(418,-28,o),
(832,-28,cs)
);
}
);
width = 1478;
},
{
associatedMasterId = m01;
background = {
shapes = (
{
closed = 1;
nodes = (
(1206,-28,o),
(1520,302,o),
(1520,724,cs),
(1520,1146,o),
(1206,1476,o),
(806,1476,cs),
(406,1476,o),
(92,1146,o),
(92,724,cs),
(92,302,o),
(406,-28,o),
(806,-28,cs)
);
},
{
closed = 1;
nodes = (
(510,144,o),
(276,400,o),
(276,724,cs),
(276,1048,o),
(510,1304,o),
(806,1304,cs),
(1102,1304,o),
(1336,1048,o),
(1336,724,cs),
(1336,400,o),
(1102,144,o),
(806,144,cs)
);
}
);
};
layerId = "5BCD8661-105A-4D6B-BE1F-80502530E16F";
metricRight = "=O/1.54";
name = "95%";
shapes = (
{
closed = 1;
nodes = (
(92,302,o),
(406,-28,o),
(806,-28,cs),
(1116,-28,o),
(1374,170,o),
(1476,454,c),
(1454,196,l),
(1176,404,l),
(1298,502,l),
(1218,290,o),
(1030,144,o),
(806,144,cs),
(510,144,o),
(276,400,o),
(276,724,cs),
(276,1048,o),
(510,1304,o),
(806,1304,cs),
(1030,1304,o),
(1218,1158,o),
(1298,946,c),
(1176,1044,l),
(1454,1252,l),
(1476,994,l),
(1374,1278,o),
(1116,1476,o),
(806,1476,cs),
(406,1476,o),
(92,1146,o),
(92,724,cs)
);
}
);
width = 1478;
},
{
background = {
shapes = (
{
closed = 0;
nodes = (
(1512,724,l),
(1512,1146,o),
(1192,1476,o),
(786,1476,cs),
(380,1476,o),
(60,1146,o),
(60,724,c)
);
},
{
closed = 0;
nodes = (
(492,724,l),
(492,916,o),
(622,1068,o),
(786,1068,cs),
(950,1068,o),
(1080,916,o),
(1080,724,c)
);
}
);
};
layerId = "94F54C43-8AEE-4ED6-B3C2-2A9D33534E61";
shapes = (
{
closed = 1;
nodes = (
(1260,-28,o),
(1588,296,o),
(1588,724,c),
(1640,306,l),
(998,592,l),
(1156,724,l),
(1156,522,o),
(1018,380,o),
(824,380,cs),
(630,380,o),
(492,522,o),
(492,724,cs),
(492,926,o),
(630,1068,o),
(824,1068,cs),
(1018,1068,o),
(1156,926,o),
(1156,724,c),
(998,856,l),
(1640,1142,l),
(1588,724,l),
(1588,1152,o),
(1260,1476,o),
(824,1476,cs),
(388,1476,o),
(60,1152,o),
(60,724,cs),
(60,296,o),
(388,-28,o),
(824,-28,cs)
);
}
);
width = 1562;
},
{
associatedMasterId = "94F54C43-8AEE-4ED6-B3C2-2A9D33534E61";
layerId = "D9AE3D93-0BE4-433D-AB10-D13E6470B711";
metricRight = "=O/1.5";
name = "100%";
shapes = (
{
closed = 1;
nodes = (
(1252,-28,o),
(1588,302,o),
(1588,724,c),
(1640,306,l),
(998,592,l),
(1156,724,l),
(1156,528,o),
(1014,380,o),
(824,380,cs),
(634,380,o),
(492,528,o),
(492,724,cs),
(492,920,o),
(634,1068,o),
(824,1068,cs),
(1014,1068,o),
(1156,920,o),
(1156,724,c),
(998,856,l),
(1640,1142,l),
(1588,724,l),
(1588,1146,o),
(1252,1476,o),
(824,1476,cs),
(396,1476,o),
(60,1146,o),
(60,724,cs),
(60,302,o),
(396,-28,o),
(824,-28,cs)
);
}
);
width = 1540;
},
{
associatedMasterId = "94F54C43-8AEE-4ED6-B3C2-2A9D33534E61";
background = {
shapes = (
{
closed = 0;
nodes = (
(1512,724,l),
(1512,1146,o),
(1192,1476,o),
(786,1476,cs),
(380,1476,o),
(60,1146,o),
(60,724,c)
);
},
{
closed = 0;
nodes = (
(492,724,l),
(492,916,o),
(622,1068,o),
(786,1068,cs),
(950,1068,o),
(1080,916,o),
(1080,724,c)
);
}
);
};
layerId = "3B4E71F6-B50C-4253-9566-C9E2C53F42B5";
metricRight = "=O*.8";
name = "100% Curve Fit";
shapes = (
{
closed = 1;
nodes = (
(1260,-28,o),
(1588,296,o),
(1588,724,c),
(1640,306,l),
(998,592,l),
(1156,724,l),
(1156,522,o),
(1018,380,o),
(824,380,cs),
(630,380,o),
(492,522,o),
(492,724,cs),
(492,926,o),
(630,1068,o),
(824,1068,cs),
(1018,1068,o),
(1156,926,o),
(1156,724,c),
(998,856,l),
(1640,1142,l),
(1588,724,l),
(1588,1152,o),
(1260,1476,o),
(824,1476,cs),
(388,1476,o),
(60,1152,o),
(60,724,cs),
(60,296,o),
(388,-28,o),
(824,-28,cs)
);
}
);
width = 1550;
},
{
associatedMasterId = "94F54C43-8AEE-4ED6-B3C2-2A9D33534E61";
background = {
shapes = (
{
closed = 0;
nodes = (
(1512,724,l),
(1512,1146,o),
(1192,1476,o),
(786,1476,cs),
(380,1476,o),
(60,1146,o),
(60,724,c)
);
},
{
closed = 0;
nodes = (
(492,724,l),
(492,916,o),
(622,1068,o),
(786,1068,cs),
(950,1068,o),
(1080,916,o),
(1080,724,c)
);
}
);
};
layerId = "F98DE9A9-490F-457C-B0B8-0F9462E484F7";
metricRight = "=O*.8";
name = "95%";
shapes = (
{
closed = 1;
nodes = (
(1200,-28,o),
(1512,296,o),
(1512,724,c),
(1564,306,l),
(922,592,l),
(1080,724,l),
(1080,522,o),
(958,380,o),
(786,380,cs),
(614,380,o),
(492,522,o),
(492,724,cs),
(492,926,o),
(614,1068,o),
(786,1068,cs),
(958,1068,o),
(1080,926,o),
(1080,724,c),
(922,856,l),
(1564,1142,l),
(1512,724,l),
(1512,1152,o),
(1200,1476,o),
(786,1476,cs),
(372,1476,o),
(60,1152,o),
(60,724,cs),
(60,296,o),
(372,-28,o),
(786,-28,cs)
);
}
);
width = 1476;
},
{
associatedMasterId = m01;
background = {
shapes = (
{
closed = 1;
nodes = (
(1212,-28,o),
(1520,296,o),
(1520,724,cs),
(1520,1152,o),
(1212,1476,o),
(806,1476,cs),
(400,1476,o),
(92,1152,o),
(92,724,cs),
(92,296,o),
(400,-28,o),
(806,-28,cs)
);
},
{
closed = 1;
nodes = (
(494,144,o),
(276,384,o),
(276,724,cs),
(276,1064,o),
(494,1304,o),
(806,1304,cs),
(1118,1304,o),
(1336,1064,o),
(1336,724,cs),
(1336,384,o),
(1118,144,o),
(806,144,cs)
);
}
);
};
layerId = "69F10FAF-FE3A-4957-B825-C0E42E593322";
metricRight = "=O/1.54";
name = "95% Curve Fit";
shapes = (
{
closed = 1;
nodes = (
(92,296,o),
(400,-28,o),
(806,-28,cs),
(1122,-28,o),
(1378,168,o),
(1476,456,c),
(1454,196,l),
(1176,404,l),
(1300,496,l),
(1226,282,o),
(1042,144,o),
(806,144,cs),
(494,144,o),
(276,384,o),
(276,724,cs),
(276,1064,o),
(494,1304,o),
(806,1304,cs),
(1042,1304,o),
(1226,1166,o),
(1300,952,c),
(1176,1044,l),
(1454,1252,l),
(1476,992,l),
(1378,1280,o),
(1122,1476,o),
(806,1476,cs),
(400,1476,o),
(92,1152,o),
(92,724,cs)
);
}
);
width = 1478;
}
);
metricLeft = O;
metricRight = O;
unicode = 67;
},
{
glyphname = G;
kernLeft = O;
kernRight = O;
layers = (
{
annotations = (
{
pos = (1054.202,1627.152);
text = "좁혀야 할 듯";
type = Text;
}
);
background = {
shapes = (
{
closed = 0;
nodes = (
(1354,732,l),
(1354,640,l),
(1354,342.685,o),
(1150.614,144,o),
(850,144,c)
);
}
);
};
layerId = m01;
shapes = (
{
closed = 1;
nodes = (
(1280,-28,o),
(1578,292,o),
(1534,724,c),
(906,724,l),
(906,556,l),
(1428,556,l),
(1354,640,l),
(1354,342,o),
(1158,144,o),
(850,144,cs),
(512,144,o),
(276,384,o),
(276,724,cs),
(276,1064,o),
(510,1304,o),
(844,1304,cs),
(1020,1304,o),
(1176,1238,o),
(1282,1094,c),
(1426,1202,l),
(1282,1386,o),
(1070,1476,o),
(844,1476,cs),
(416,1476,o),
(92,1152,o),
(92,724,cs),
(92,296,o),
(418,-28,o),
(850,-28,cs)
);
}
);
width = 1630;
},
{
associatedMasterId = m01;
layerId = "17F2CE2E-1DBE-41FA-B89A-B946101B3B8F";
name = "100%";
shapes = (
{
attr = {
strokeHeight = 172;
strokeWidth = 184;
};
closed = 1;
nodes = (
(1222,58,o),
(1504,344,o),
(1504,724,cs),
(1504,1104,o),
(1222,1390,o),
(844,1390,cs),
(466,1390,o),
(184,1104,o),
(184,724,cs),
(184,344,o),
(466,58,o),
(844,58,cs)
);
}
);
width = 1688;
},
{
associatedMasterId = "94F54C43-8AEE-4ED6-B3C2-2A9D33534E61";
layerId = "963048AB-4784-49B3-A817-DE1B977052CD";
name = "100%";
shapes = (
{
attr = {
strokeHeight = 408;
strokeWidth = 432;
};
closed = 1;
nodes = (
(1138,176,o),
(1372,410,o),
(1372,724,cs),
(1372,1038,o),
(1138,1272,o),
(824,1272,cs),
(510,1272,o),
(276,1038,o),
(276,724,cs),
(276,410,o),
(510,176,o),
(824,176,cs)
);
}
);
width = 1648;
},
{
associatedMasterId = m01;
layerId = "43532E0E-C08C-4707-8016-E74AADDE33B0";
name = "95%";
shapes = (
{
attr = {
strokeHeight = 172;
strokeWidth = 184;
};
closed = 1;
nodes = (
(1204,58,o),
(1472,344,o),
(1472,724,cs),
(1472,1104,o),
(1204,1390,o),
(844,1390,cs),
(466,1390,o),
(184,1104,o),
(184,724,cs),
(184,344,o),
(466,58,o),
(844,58,cs)
);
},
{
closed = 0;
nodes = (
(1392,1272,l),
(844,724,l)
);
}
);
width = 1656;
},
{
associatedMasterId = m01;
layerId = "889168B4-2676-4B9D-8CA7-F14EC93F8305";
name = Google;
shapes = (
{
closed = 1;
nodes = (
(1056,-28,o),
(1234,44,o),
(1366,188,cs),
(1488,314,o),
(1542,488,o),
(1542,666,cs),
(1542,698,o),
(1538,732,o),
(1532,770,c),
(840,770,l),
(840,612,l),
(1374,612,l),
(1364,482,o),
(1320,374,o),
(1250,300,cs),
(1154,202,o),
(1032,134,o),
(838,134,cs),
(540,134,o),
(264,362,o),
(264,724,cs),
(264,1078,o),
(530,1314,o),
(838,1314,cs),
(1002,1314,o),
(1152,1250,o),
(1244,1138,c),
(1366,1260,l),
(1246,1398,o),
(1048,1476,o),
(836,1476,cs),
(566,1476,o),
(326,1338,o),
(192,1106,cs),
(126,992,o),
(92,862,o),
(92,724,cs),
(92,444,o),
(236,202,o),
(462,70,cs),
(578,4,o),
(702,-28,o),
(836,-28,cs)
);
}
);
width = 1634;
},
{
associatedMasterId = m01;
background = {
shapes = (
{
closed = 1;
nodes = (
(960,722,l),
(960,566,l),
(1342,566,l),
(1310,298,o),
(1114,140,o),
(842,140,cs),
(522,140,o),
(270,394,o),
(270,724,cs),
(270,1052,o),
(522,1308,o),
(842,1308,cs),
(1036,1308,o),
(1188,1214,o),
(1292,1072,c),
(1422,1200,l),
(1284,1370,o),
(1080,1476,o),
(842,1476,cs),
(428,1476,o),
(92,1140,o),
(92,724,cs),
(92,308,o),
(428,-28,o),
(842,-28,cs),
(1270,-28,o),
(1540,290,o),
(1528,722,c)
);
},
{
closed = 0;
nodes = (
(1530,1410,l),
(844,724,l)
);
}
);
};
layerId = "F8A9D9DE-76B3-4C84-BA66-E071A12F3E7A";
name = "Apr 14, 23 23:20";
shapes = (
{
attr = {
strokeHeight = 172;
strokeWidth = 184;
};
closed = 0;
nodes = (
(1354,1148,l),
(1214,1324,o),
(1038,1390,o),
(844,1390,cs),
(466,1390,o),
(184,1104,o),
(184,724,cs),
(184,344,o),
(466,58,o),
(850,58,cs),
(1202,58,o),
(1446,296,o),
(1446,640,c),
(906,640,l)
);
}
);
width = 1630;
},
{
associatedMasterId = "94F54C43-8AEE-4ED6-B3C2-2A9D33534E61";
layerId = "6BABEC41-21C1-46E7-A37E-5A111DAD6752";
name = "95%";
shapes = (
{
attr = {
strokeHeight = 408;
strokeWidth = 432;
};
closed = 1;
nodes = (
(1122,176,o),
(1344,410,o),
(1344,724,cs),
(1344,1038,o),
(1122,1272,o),
(824,1272,cs),
(510,1272,o),
(276,1038,o),
(276,724,cs),
(276,410,o),
(510,176,o),
(824,176,cs)
);
}
);
width = 1648;
},
{
associatedMasterId = "94F54C43-8AEE-4ED6-B3C2-2A9D33534E61";
background = {
shapes = (
{
attr = {
strokeHeight = 408;
strokeWidth = 432;
};
closed = 0;
nodes = (
(1238,1072,l),
(1124,1218,o),
(978,1272,o),
(820,1272,cs),
(508,1272,o),
(276,1036,o),
(276,724,cs),
(276,412,o),
(508,176,o),
(824,176,cs),
(1114,176,o),
(1314,372,o),
(1314,654,c),
(870,654,l)
);
}
);
};
layerId = "7CC47538-F180-4024-8FA6-4C70790588D7";
name = "Apr 14, 23 23:41";
shapes = (
{
attr = {
strokeHeight = 408;
strokeWidth = 432;
};
closed = 0;
nodes = (
(1238,1072,l),
(1142,1196,o),
(1002,1272,o),
(824,1272,cs),
(510,1272,o),
(276,1038,o),
(276,724,cs),
(276,410,o),
(510,176,o),
(824,176,cs),
(1116,176,o),
(1318,378,o),
(1318,652,c),
(824,652,l)
);
}
);
width = 1648;
},
{
associatedMasterId = "94F54C43-8AEE-4ED6-B3C2-2A9D33534E61";
background = {
shapes = (
{
closed = 1;
nodes = (
(1102,488.585,o),
(995.015,380,o),
(824,380,c),
(629.985,380,o),
(492,521.985,o),
(492,724,c),
(492,926.015,o),
(629.985,1068,o),
(824,1068,c),
(929.674,1068,o),
(1003.804,1029.008,o),
(1067.204,947.117,c),
(1408.796,1196.883,l),
(1290.725,1349.392,o),
(1092.326,1476,o),
(824,1476,c),
(388.415,1476,o),
(60,1148.385,o),
(60,724,c),
(60,299.615,o),
(388.415,-28,o),
(824,-28,c),
(1237.785,-28,o),
(1534,268.215,o),
(1534,652,c),
(1102,652,l)
);
}
);
};
layerId = "9CBE93FF-D65E-4F36-80AB-799A50C02C86";
name = "Apr 14, 23 23:57";
shapes = (
{
closed = 0;
nodes = (
(1508,828,l),
(824,828,l),
(824,476,l),
(1230,476,l),
(1102,652,l),
(1102,488,o),
(996,380,o),
(824,380,cs),
(630,380,o),
(492,522,o),
(492,724,cs),
(492,926,o),
(630,1068,o),
(824,1068,cs),
(930,1068,o),
(1004,1029,o),
(1067,947,c),
(1409,1197,l),
(1291,1349,o),
(1092,1476,o),
(824,1476,cs),
(388,1476,o),
(60,1148,o),
(60,724,cs),
(60,300,o),
(388,-28,o),
(824,-28,cs),
(1309,-28,o),
(1632,378,o),
(1507,856,c)
);
}
);
width = 1596;
},
{
associatedMasterId = "94F54C43-8AEE-4ED6-B3C2-2A9D33534E61";
background = {
shapes = (
{
closed = 1;
nodes = (
(1102,488.585,o),
(995.015,380,o),
(824,380,c),
(629.985,380,o),
(492,521.985,o),
(492,724,c),
(492,926.015,o),
(629.985,1068,o),
(824,1068,c),
(929.674,1068,o),
(1003.804,1029.008,o),
(1067.204,947.117,c),
(1408.796,1196.883,l),
(1290.725,1349.392,o),
(1092.326,1476,o),
(824,1476,c),
(388.415,1476,o),
(60,1148.385,o),
(60,724,c),
(60,299.615,o),
(388.415,-28,o),
(824,-28,c),
(1237.785,-28,o),
(1534,268.215,o),
(1534,652,c),
(1102,652,l)
);
}
);
};
layerId = "4FC870AB-4547-475A-8EED-9F0EEEACC0D6";
name = "Apr 15, 23 0:05";
shapes = (
{
closed = 1;
nodes = (
(1312,-28,o),
(1630,378,o),
(1508,856,c),
(824,856,l),
(824,520,l),
(1230,520,l),
(1102,652,l),
(1102,488,o),
(994,380,o),
(824,380,cs),
(630,380,o),
(492,522,o),
(492,724,cs),
(492,926,o),
(630,1068,o),
(824,1068,cs),
(924,1068,o),
(1006,1030,o),
(1068,948,c),
(1406,1202,l),
(1294,1350,o),
(1096,1476,o),
(824,1476,cs),
(388,1476,o),
(60,1152,o),
(60,724,cs),
(60,296,o),
(388,-28,o),
(824,-28,cs)
);
}
);
width = 1594;
},
{
associatedMasterId = "94F54C43-8AEE-4ED6-B3C2-2A9D33534E61";
background = {
shapes = (
{
closed = 1;
nodes = (
(1102,488.585,o),
(995.015,380,o),
(824,380,c),
(629.985,380,o),
(492,521.985,o),
(492,724,c),
(492,926.015,o),
(629.985,1068,o),
(824,1068,c),
(929.674,1068,o),
(1003.804,1029.008,o),
(1067.204,947.117,c),
(1408.796,1196.883,l),
(1290.725,1349.392,o),
(1092.326,1476,o),
(824,1476,c),
(388.415,1476,o),
(60,1148.385,o),
(60,724,c),
(60,299.615,o),
(388.415,-28,o),
(824,-28,c),
(1237.785,-28,o),
(1534,268.215,o),
(1534,652,c),
(1102,652,l)
);
}
);
};
layerId = "E20BA2C8-7135-49DC-BE43-AD0EDCCA5826";
name = "Apr 15, 23 0:11";
shapes = (
{
closed = 1;
nodes = (
(1316,-28,o),
(1630,382,o),
(1508,864,c),
(824,864,l),
(824,528,l),
(1210,528,l),
(1094,572,l),
(1094,454,o),
(964,380,o),
(824,380,cs),
(630,380,o),
(492,522,o),
(492,724,cs),
(492,926,o),
(630,1068,o),
(824,1068,cs),
(924,1068,o),
(1006,1030,o),
(1068,948,c),
(1406,1202,l),
(1294,1350,o),
(1096,1476,o),
(824,1476,cs),
(388,1476,o),
(60,1152,o),
(60,724,cs),
(60,296,o),
(388,-28,o),
(824,-28,cs)
);
}
);
width = 1594;
},
{
background = {
shapes = (
{
closed = 1;
nodes = (
(1260,-28,o),
(1558,292,o),
(1514,724,c),
(886,724,l),
(886,556,l),
(1408,556,l),
(1334,640,l),
(1334,342,o),
(1138,144,o),
(830,144,cs),
(492,144,o),
(256,384,o),
(256,724,cs),
(256,1064,o),
(490,1304,o),
(824,1304,cs),
(1000,1304,o),
(1156,1238,o),
(1262,1094,c),
(1406,1202,l),
(1262,1386,o),
(1050,1476,o),
(824,1476,cs),
(396,1476,o),
(72,1152,o),
(72,724,cs),
(72,296,o),
(398,-28,o),
(830,-28,cs)
);
}
);
};
layerId = "94F54C43-8AEE-4ED6-B3C2-2A9D33534E61";
name = Black;
shapes = (
{
closed = 1;
nodes = (
(1286,-28,o),
(1614,330,o),
(1496,856,c),
(824,856,l),
(824,520,l),
(1210,520,l),
(1102,652,l),
(1102,488,o),
(994,380,o),
(824,380,cs),
(630,380,o),
(492,522,o),
(492,724,cs),
(492,926,o),
(630,1068,o),
(824,1068,cs),
(924,1068,o),
(1006,1030,o),
(1068,948,c),
(1406,1202,l),
(1294,1350,o),
(1096,1476,o),
(824,1476,cs),
(388,1476,o),
(60,1152,o),
(60,724,cs),
(60,296,o),
(388,-28,o),
(824,-28,cs)
);
}
);
width = 1580;
},
{
associatedMasterId = "94F54C43-8AEE-4ED6-B3C2-2A9D33534E61";
background = {
shapes = (
{
closed = 1;
nodes = (
(1260,-28,o),
(1558,292,o),
(1514,724,c),
(886,724,l),
(886,556,l),
(1408,556,l),
(1334,640,l),
(1334,342,o),
(1138,144,o),
(830,144,cs),
(492,144,o),
(256,384,o),
(256,724,cs),
(256,1064,o),
(490,1304,o),
(824,1304,cs),
(1000,1304,o),
(1156,1238,o),
(1262,1094,c),
(1406,1202,l),
(1262,1386,o),
(1050,1476,o),
(824,1476,cs),
(396,1476,o),
(72,1152,o),
(72,724,cs),
(72,296,o),
(398,-28,o),
(830,-28,cs)
);
}
);
};
layerId = "752403D0-4839-476A-9A76-FDC17E6C4808";
name = "Apr 15, 23 0:26";
shapes = (
{
closed = 1;
nodes = (
(1286,-28,o),
(1618,330,o),
(1494,864,c),
(824,864,l),
(824,528,l),
(1210,528,l),
(1102,652,l),
(1102,488,o),
(994,380,o),
(824,380,cs),
(630,380,o),
(492,522,o),
(492,724,cs),
(492,926,o),
(630,1068,o),
(824,1068,cs),
(924,1068,o),
(1006,1030,o),
(1068,948,c),
(1406,1202,l),
(1294,1350,o),
(1096,1476,o),
(824,1476,cs),
(388,1476,o),
(60,1152,o),
(60,724,cs),
(60,296,o),
(388,-28,o),
(824,-28,cs)
);
}
);
width = 1580;
}
);
metricLeft = O;
metricRight = O;
unicode = 71;
},
{
glyphname = H;
kernLeft = H;
kernRight = H;
layers = (
{
.lastUpdate = 704788315.216;
background = {
shapes = (
{
closed = 1;
nodes = (
(1286,0,l),
(128,0,l),
(128,1448,l),
(1286,1448,l)
);
}
);
};
layerId = m01;
metricRight = "=|H";
shapes = (
{
ref = _smart.upperstem;
},
{
pos = (320,0);
ref = _part.Hbase;
},
{
pos = (946,0);
ref = _smart.upperstem;
}
);
width = 1406;
},
{
.lastUpdate = 704788365.101;
background = {
shapes = (
{
closed = 1;
nodes = (
(1440,0,l),
(104,0,l),
(104,1448,l),
(1440,1448,l)
);
}
);
};
layerId = "94F54C43-8AEE-4ED6-B3C2-2A9D33534E61";
metricRight = "=|H";
shapes = (
{
ref = _smart.upperstem;
},
{
pos = (548,0);
ref = _part.Hbase;
},
{
pos = (968,0);
ref = _smart.upperstem;
}
);
width = 1632;
},
{
associatedMasterId = "94F54C43-8AEE-4ED6-B3C2-2A9D33534E61";
background = {
shapes = (
{
closed = 1;
nodes = (
(1440,0,l),
(104,0,l),
(104,1448,l),
(1440,1448,l)
);
}
);
};
layerId = "0AA3192B-7A63-4C50-B0ED-DC8E61AB6D7C";
metricRight = "=|H";
name = "Apr 12, 23 16:57";
shapes = (
{
closed = 1;
nodes = (
(1452,0,l),
(1452,1448,l),
(1052,1448,l),
(1052,0,l)
);
},
{
closed = 1;
nodes = (
(516,0,l),
(516,1448,l),
(116,1448,l),
(116,0,l)
);
},
{
closed = 1;
nodes = (
(1092,584,l),
(1092,960,l),
(476,960,l),
(476,584,l)
);
}
);
width = 1568;
},
{
associatedMasterId = m01;
background = {
shapes = (
{
closed = 1;
nodes = (
(1286,0,l),
(128,0,l),
(128,1448,l),
(1286,1448,l)
);
}
);
};
layerId = "EE826777-C77C-4C89-A8D3-7A9D4FB6E010";
metricRight = "=|H";
name = "Apr 12, 23 16:57";
shapes = (
{
closed = 1;
nodes = (
(1298,0,l),
(1298,1448,l),
(1118,1448,l),
(1118,0,l)
);
},
{
closed = 1;
nodes = (
(320,0,l),
(320,1448,l),
(140,1448,l),
(140,0,l)
);
},
{
closed = 1;
nodes = (
(1158,688,l),
(1158,856,l),
(280,856,l),
(280,688,l)
);
}
);
width = 1438;
}
);
unicode = 72;
},
{
glyphname = J;
kernLeft = J;
kernRight = H;
layers = (
{
anchors = (
{
name = serif;
pos = (816,1448);
}
);
background = {
shapes = (
{
attr = {
strokeHeight = 172;
strokeWidth = 184;
};
closed = 0;
nodes = (
(182,376,l),
(228,170,o),
(354,58,o),
(532,58,cs),
(748,58,o),
(908,222,o),
(908,440,cs),
(908,1448,l)
);
}
);
};
layerId = m01;
shapes = (
{
closed = 1;
nodes = (
(808,-28,o),
(1000,178,o),
(1000,486,cs),
(1000,1448,l),
(816,1448,l),
(816,486,ls),
(816,280,o),
(702,144,o),
(532,144,cs),
(402,144,o),
(310,224,o),
(272,396,c),
(92,358,l),
(146,116,o),
(302,-28,o),
(532,-28,cs)
);
}
);
width = 1140;
},
{
associatedMasterId = m01;
layerId = "608988CF-D534-4219-BA2F-EA84673E1798";
name = "100%";
shapes = (
{
attr = {
strokeHeight = 172;
strokeWidth = 180;
};
closed = 0;
nodes = (
(230,1444,l),
(230,724,ls),
(230,344,o),
(512,58,o),
(890,58,cs),
(1268,58,o),
(1550,344,o),
(1550,724,cs),
(1550,1444,l)
);
}
);
width = 1780;
},
{
associatedMasterId = m01;
layerId = "ABC6C06E-65B9-44E2-8C1A-275569F408D4";
name = "60%";
shapes = (
{
attr = {
strokeHeight = 172;
strokeWidth = 180;
};
closed = 0;
nodes = (
(182,440,ls),
(182,222,o),
(342,58,o),
(558,58,cs),
(774,58,o),
(936,222,o),
(936,440,cs),
(936,1448,l)
);
}
);
width = 1166;
},
{
associatedMasterId = m01;
layerId = "7C57A3F7-A702-4F54-92CD-6FE3748E6B4A";
name = "Apr 14, 23 22:10";
shapes = (
{
closed = 1;
nodes = (
(838,-28,o),
(1012,164,o),
(1012,452,cs),
(1012,1448,l),
(832,1448,l),
(832,452,ls),
(832,268,o),
(730,144,o),
(576,144,cs),
(422,144,o),
(320,268,o),
(320,452,c),
(140,452,l),
(140,164,o),
(314,-28,o),
(576,-28,cs)
);
}
);
width = 1152;
},
{
associatedMasterId = m01;
layerId = "40FAF741-9125-4A30-9AA4-66766172546A";
name = "Apr 14, 23 22:07";
shapes = (
{
attr = {
strokeHeight = 164;
strokeWidth = 172;
};
closed = 0;
nodes = (
(122,194,l),
(186,134,o),
(274,58,o),
(430,58,cs),
(628,58,o),
(776,208,o),
(776,408,cs),
(776,1448,l)
);
}
);
width = 1002;
},
{
anchors = (
{
name = serif;
pos = (704,1448);
}
);
background = {
shapes = (
{
attr = {
strokeHeight = 408;
strokeWidth = 432;
};
closed = 0;
nodes = (
(272,464,l),
(308,282,o),
(416,176,o),
(592,176,cs),
(780,176,o),
(920,316,o),
(920,504,cs),
(920,1448,l)
);
}
);
};
layerId = "94F54C43-8AEE-4ED6-B3C2-2A9D33534E61";
shapes = (
{
closed = 1;
nodes = (
(918,-28,o),
(1136,206,o),
(1136,558,cs),
(1136,1448,l),
(704,1448,l),
(704,558,ls),
(704,440,o),
(666,380,o),
(592,380,cs),
(544,380,o),
(504,406,o),
(484,504,c),
(60,424,l),
(120,120,o),
(332,-28,o),
(592,-28,cs)
);
}
);
width = 1252;
},
{
associatedMasterId = "94F54C43-8AEE-4ED6-B3C2-2A9D33534E61";
layerId = "A0E57969-B80A-47EF-B4B3-1BBF3C7151AF";
name = "100%";
shapes = (
{
attr = {
strokeHeight = 408;
strokeWidth = 432;
};
closed = 0;
nodes = (
(276,1448,l),
(276,724,ls),
(276,410,o),
(510,176,o),
(824,176,cs),
(1138,176,o),
(1372,410,o),
(1372,724,cs),
(1372,1448,l)
);
}
);
width = 1704;
},
{
associatedMasterId = m01;
background = {
shapes = (
{
attr = {
strokeHeight = 164;
strokeWidth = 172;
};
closed = 0;
nodes = (
(496,58,l),
(298,58,o),
(150,208,o),
(150,408,cs),
(150,1448,l)
);
}
);
};
layerId = "BD8D7B19-1907-4C67-A46E-A0F4B6936ACE";
name = "Apr 14, 23 22:12";
shapes = (
{
attr = {
strokeHeight = 164;
strokeWidth = 172;
};
closed = 0;
nodes = (
(176,328,l),
(228,114,o),
(370,58,o),
(496,58,cs),
(694,58,o),
(842,208,o),
(842,408,cs),
(842,1448,l)
);
}
);
width = 1068;
},
{
associatedMasterId = m01;
background = {
shapes = (
{
attr = {
strokeHeight = 164;
strokeWidth = 172;
};
closed = 0;
nodes = (
(496,58,l),
(298,58,o),
(150,208,o),
(150,408,cs),
(150,1448,l)
);
}
);
};
layerId = "9F8FD510-62AA-457B-8319-8E80B181D1C2";
name = "Apr 14, 23 22:29";
shapes = (
{
attr = {
strokeHeight = 164;
strokeWidth = 172;
};
closed = 0;
nodes = (
(176,352,l),
(232,120,o),
(388,58,o),
(526,58,cs),
(742,58,o),
(902,222,o),
(902,440,cs),
(902,1448,l)
);
}
);
width = 1128;
},
{
associatedMasterId = "94F54C43-8AEE-4ED6-B3C2-2A9D33534E61";
layerId = "0D2C42E8-EE2B-40CF-A278-0878ACB20D87";
name = "60%";
shapes = (
{
attr = {
strokeHeight = 408;
strokeWidth = 432;
};
closed = 0;
nodes = (
(276,504,l),
(276,316,o),
(416,176,o),
(606,176,cs),
(794,176,o),
(934,316,o),
(934,504,cs),
(934,1448,l)
);
}
);
width = 1266;
},
{
associatedMasterId = "94F54C43-8AEE-4ED6-B3C2-2A9D33534E61";
layerId = "DB4391D3-1114-4C37-B871-31DB9C8A01F5";
name = "Apr 14, 23 22:39";
shapes = (
{
attr = {
strokeHeight = 408;
strokeWidth = 432;
};
closed = 0;
nodes = (
(270,428,l),
(310,266,o),
(420,176,o),
(578,176,cs),
(766,176,o),
(906,316,o),
(906,504,cs),
(906,1448,l)
);
}
);
width = 1238;
},
{
associatedMasterId = "94F54C43-8AEE-4ED6-B3C2-2A9D33534E61";
background = {
shapes = (
{
attr = {
strokeHeight = 408;
strokeWidth = 432;
};
closed = 0;
nodes = (
(916,504,l),
(916,316,o),
(776,176,o),
(586,176,cs),
(398,176,o),
(258,316,o),
(258,504,cs),
(258,1448,l)
);
},
{
closed = 0;
nodes = (
(626,520,l),
(52,390,l)
);
}
);
};
layerId = "56CEC42E-3FD7-48F7-A9E1-BB9E0652706D";
name = "Apr 14, 23 22:41";
shapes = (
{
attr = {
strokeHeight = 408;
strokeWidth = 432;
};
closed = 0;
nodes = (
(270,440,l),
(310,272,o),
(430,176,o),
(588,176,cs),
(776,176,o),
(916,316,o),
(916,504,cs),
(916,1448,l)
);
}
);
width = 1248;
},
{
associatedMasterId = "94F54C43-8AEE-4ED6-B3C2-2A9D33534E61";
layerId = "239A1283-B582-41D1-91AA-40136EAEA363";
name = "Apr 14, 23 22:51";
shapes = (
{
closed = 1;
nodes = (
(914,-28,o),
(1132,206,o),
(1132,558,cs),
(1132,1448,l),
(700,1448,l),
(700,558,ls),
(700,440,o),
(662,380,o),
(588,380,cs),
(538,380,o),
(500,408,o),
(480,488,c),
(60,394,l),
(128,110,o),
(340,-28,o),
(588,-28,cs)
);
}
);
width = 1248;
},
{
associatedMasterId = "94F54C43-8AEE-4ED6-B3C2-2A9D33534E61";
background = {
shapes = (
{
attr = {
strokeHeight = 408;
strokeWidth = 432;
};
closed = 0;
nodes = (
(916,504,l),
(916,316,o),
(776,176,o),
(586,176,cs),
(398,176,o),
(258,316,o),
(258,504,cs),
(258,1448,l)
);
},
{
closed = 0;
nodes = (
(626,520,l),
(52,390,l)
);
}
);
};
layerId = "3C770940-91EE-429C-ABE0-E49AA4D50023";
name = "Apr 14, 23 22:52";
shapes = (
{
attr = {
strokeHeight = 408;
strokeWidth = 432;
};
closed = 0;
nodes = (
(268,464,l),
(304,282,o),
(412,176,o),
(588,176,cs),
(776,176,o),
(916,316,o),
(916,504,cs),
(916,1448,l)
);
}
);
width = 1248;
},
{
associatedMasterId = m01;
layerId = "3737D0C6-BE48-432F-8FF4-114847098E09";
name = "Apr 14, 23 22:54";
shapes = (
{
closed = 1;
nodes = (
(804,-24,o),
(988,180,o),
(988,486,cs),
(988,1448,l),
(816,1448,l),
(816,486,ls),
(816,278,o),
(700,140,o),
(526,140,cs),
(424,140,o),
(304,188,o),
(260,372,c),
(92,334,l),
(160,54,o),
(356,-24,o),
(526,-24,cs)
);
}
);
width = 1128;
},
{
associatedMasterId = m01;
background = {
shapes = (
{
attr = {
strokeHeight = 164;
strokeWidth = 172;
};
closed = 0;
nodes = (
(496,58,l),
(298,58,o),
(150,208,o),
(150,408,cs),
(150,1448,l)
);
}
);
};
layerId = "4A822058-7A63-4218-88BC-1599B113C430";
name = "Apr 14, 23 22:55";
shapes = (
{
attr = {
strokeHeight = 172;
strokeWidth = 184;
};
closed = 0;
nodes = (
(176,376,l),
(222,170,o),
(348,58,o),
(526,58,cs),
(742,58,o),
(902,222,o),
(902,440,cs),
(902,1448,l)
);
}
);
width = 1128;
},
{
associatedMasterId = m01;
background = {
shapes = (
{
attr = {
strokeHeight = 172;
strokeWidth = 184;
};
closed = 0;
nodes = (
(182,376,l),
(228,170,o),
(354,58,o),
(532,58,cs),
(748,58,o),
(908,222,o),
(908,440,cs),
(908,1448,l)
);
},
{
attr = {
lineCapEnd = "3";
lineCapStart = "3";
strokeHeight = 172;
strokePos = 0;
strokeWidth = 184;
};
closed = 0;
nodes = (
(532,1448,l),
(816,1448,l)
);
}
);
};
layerId = "17A7E936-9ECB-4438-9195-D98B02FE229D";
name = "Apr 20, 23 17:52";
shapes = (
{
closed = 1;
nodes = (
(808,-28,o),
(1000,178,o),
(1000,486,cs),
(1000,1448,l),
(446,1448,l),
(446,1276,l),
(816,1276,l),
(816,486,ls),
(816,280,o),
(702,144,o),
(532,144,cs),
(402,144,o),
(310,224,o),
(272,396,c),
(92,358,l),
(146,116,o),
(302,-28,o),
(532,-28,cs)
);
}
);
width = 1140;
},
{
associatedMasterId = "94F54C43-8AEE-4ED6-B3C2-2A9D33534E61";
background = {
shapes = (
{
attr = {
strokeHeight = 408;
strokeWidth = 432;
};
closed = 0;
nodes = (
(272,464,l),
(308,282,o),
(416,176,o),
(592,176,cs),
(780,176,o),
(920,316,o),
(920,504,cs),
(920,1448,l)
);
},
{
attr = {
lineCapEnd = 3;
lineCapStart = 3;
strokePos = "0";
strokeWidth = 400;
};
closed = 0;
nodes = (
(592,1448,l),
(704,1448,l)
);
}
);
};
layerId = "93C8EACE-AE1D-426A-84D2-988FBA806413";
name = "Apr 20, 23 17:52";
shapes = (
{
attr = {
strokePos = "0";
};
closed = 1;
nodes = (
(918,-28,o),
(1136,206,o),
(1136,558,cs),
(1136,1448,l),
(392,1448,l),
(392,1048,l),
(704,1048,l),
(704,558,ls),
(704,440,o),
(666,380,o),
(592,380,cs),
(544,380,o),
(504,406,o),
(484,504,c),
(60,424,l),
(120,120,o),
(332,-28,o),
(592,-28,cs)
);
}
);
width = 1252;
}
);
metricLeft = O;
metricRight = I;
unicode = 74;
},
{
glyphname = N;
kernLeft = H;
kernRight = H;
layers = (
{
.lastUpdate = 704788277.652;
background = {
shapes = (
{
closed = 1;
nodes = (
(1370,0,l),
(140,0,l),
(140,1448,l),
(1370,1448,l)
);
},
{
closed = 0;
nodes = (
(360,1468,l),
(140,1468,l)
);
}
);
};
layerId = m01;
shapes = (
{
ref = _smart.upperstem;
},
{
pos = (320,0);
ref = _part.Nbase;
},
{
pos = (1014,0);
ref = _smart.upperstem;
}
);
width = 1474;
},
{
associatedMasterId = m01;
background = {
shapes = (
{
closed = 1;
nodes = (
(1370,0,l),
(140,0,l),
(140,1448,l),
(1370,1448,l)
);
}
);
};
layerId = "7A206F55-5058-4B6F-BE9C-145BB4C521D8";
name = "Apr 11, 23 17:54";
shapes = (
{
alignment = -1;
ref = I;
},
{
alignment = -1;
pos = (1050,0);
ref = I;
},
{
closed = 1;
nodes = (
(1358,0,l),
(368,1448,l),
(152,1448,l),
(1142,0,l)
);
}
);
width = 1510;
},
{
associatedMasterId = m01;
background = {
shapes = (
{
closed = 1;
nodes = (
(1370,0,l),
(140,0,l),
(140,1448,l),
(1370,1448,l)
);
},
{
closed = 0;
nodes = (
(360,1468,l),
(140,1468,l)
);
}
);
};
layerId = "69FB8B74-F64B-4362-9773-28E226B258C5";
name = "Apr 11, 23 18:01";
shapes = (
{
alignment = -1;
ref = I;
},
{
alignment = -1;
pos = (1050,0);
ref = I;
},
{
closed = 1;
nodes = (
(1310,0,l),
(1310,116,l),
(352,1448,l),
(174,1448,l),
(174,1392,l),
(1174,0,l)
);
}
);
width = 1510;
},
{
.lastUpdate = 704788365.105;
layerId = "94F54C43-8AEE-4ED6-B3C2-2A9D33534E61";
name = Black;
shapes = (
{
ref = _smart.upperstem;
},
{
pos = (548,0);
ref = _part.Nbase;
},
{
pos = (960,0);
ref = _smart.upperstem;
}
);
width = 1624;
}
);
metricLeft = I;
metricRight = I;
unicode = 78;
},
{
glyphname = O;
kernLeft = O;
kernRight = O;
layers = (
{
anchors = (
{
name = tail;
pos = (844,0);
}
);
annotations = (
{
pos = (1056,1670);
text = "폭을 줄여보자";
type = Text;
}
);
background = {
shapes = (
{
closed = 1;
nodes = (
(1260,-28,o),
(1596,310,o),
(1596,724,cs),
(1596,1140,o),
(1260,1476,o),
(844,1476,cs),
(430,1476,o),
(92,1140,o),
(92,724,cs),
(92,310,o),
(430,-28,o),
(844,-28,cs)
);
}
);
};
layerId = m01;
metricLeft = "=92";
metricRight = "=|";
shapes = (
{
closed = 1;
nodes = (
(1274,-28,o),
(1596,294,o),
(1596,724,cs),
(1596,1154,o),
(1274,1476,o),
(844,1476,cs),
(414,1476,o),
(92,1154,o),
(92,724,cs),
(92,294,o),
(414,-28,o),
(844,-28,cs)
);
},
{
closed = 1;
nodes = (
(510,144,o),
(276,384,o),
(276,724,cs),
(276,1064,o),
(510,1304,o),
(844,1304,cs),
(1178,1304,o),
(1412,1064,o),
(1412,724,cs),
(1412,384,o),
(1178,144,o),
(844,144,cs)
);
}
);
width = 1688;
},
{
anchors = (
{
name = tail;
pos = (824,0);
}
);
background = {
shapes = (
{
closed = 1;
nodes = (
(1240,-28,o),
(1576,310,o),
(1576,724,cs),
(1576,1140,o),
(1240,1476,o),
(824,1476,cs),
(410,1476,o),
(72,1140,o),
(72,724,cs),
(72,310,o),
(410,-28,o),
(824,-28,cs)
);
}
);
};
layerId = "94F54C43-8AEE-4ED6-B3C2-2A9D33534E61";
metricLeft = "=60";
metricRight = "=|";
shapes = (
{
closed = 1;
nodes = (
(1260,-28,o),
(1588,294,o),
(1588,724,cs),
(1588,1154,o),
(1260,1476,o),
(824,1476,cs),
(388,1476,o),
(60,1154,o),
(60,724,cs),
(60,294,o),
(388,-28,o),
(824,-28,cs)
);
},
{
closed = 1;
nodes = (
(630,380,o),
(492,522,o),
(492,724,cs),
(492,926,o),
(630,1068,o),
(824,1068,cs),
(1018,1068,o),
(1156,926,o),
(1156,724,cs),
(1156,522,o),
(1018,380,o),
(824,380,cs)
);
}
);
width = 1648;
},
{
associatedMasterId = m01;
background = {
shapes = (
{
closed = 1;
nodes = (
(1260,-28,o),
(1596,310,o),
(1596,724,cs),
(1596,1140,o),
(1260,1476,o),
(844,1476,cs),
(430,1476,o),
(92,1140,o),
(92,724,cs),
(92,310,o),
(430,-28,o),
(844,-28,cs)
);
}
);
};
layerId = "00F5214A-DAEF-4D9F-94D8-C5D7F986D2DA";
name = base;
shapes = (
{
attr = {
strokeHeight = 172;
strokeWidth = 184;
};
closed = 1;
nodes = (
(1222,58,o),
(1504,344,o),
(1504,724,cs),
(1504,1104,o),
(1222,1390,o),
(844,1390,cs),
(466,1390,o),
(184,1104,o),
(184,724,cs),
(184,344,o),
(466,58,o),
(844,58,cs)
);
}
);
width = 1688;
},
{
associatedMasterId = "94F54C43-8AEE-4ED6-B3C2-2A9D33534E61";
background = {
shapes = (
{
closed = 1;
nodes = (
(1240,-28,o),
(1576,310,o),
(1576,724,cs),
(1576,1140,o),
(1240,1476,o),
(824,1476,cs),
(410,1476,o),
(72,1140,o),
(72,724,cs),
(72,310,o),
(410,-28,o),
(824,-28,cs)
);
}
);
};
layerId = "96BE1A9B-0C59-4E1B-91EF-47DD978C7BFE";
name = base;
shapes = (
{
attr = {
strokeHeight = 408;
strokeWidth = 432;
};
closed = 1;
nodes = (
(1138,176,o),
(1372,410,o),
(1372,724,cs),
(1372,1038,o),
(1138,1272,o),
(824,1272,cs),
(510,1272,o),
(276,1038,o),
(276,724,cs),
(276,410,o),
(510,176,o),
(824,176,cs)
);
}
);
width = 1648;
}
);
unicode = 79;
},
{
glyphname = Q;
kernLeft = O;
kernRight = O;
layers = (
{
.lastUpdate = 704788277.652;
annotations = (
{
pos = (1120.996,544.947);
text = "올리자";
type = Text;
}
);
background = {
annotations = (
{
pos = (606.031,837.486);
type = Text;
},
{
pos = (772.739,678.257);
type = Text;
}
);
};
layerId = m01;
shapes = (
{
ref = O;
},
{
pos = (844,0);
ref = _part.Qbase;
}
);
width = 1688;
},
{
.lastUpdate = 704788277.652;
annotations = (
{
pos = (1072,1670);
text = "방법이 없나?";
type = Text;
}
);
layerId = "94F54C43-8AEE-4ED6-B3C2-2A9D33534E61";
shapes = (
{
ref = O;
},
{
pos = (824,0);
ref = _part.Qbase;
}
);
width = 1648;
},
{
annotations = (
{
pos = (1120.996,544.947);
text = "올리자";
type = Text;
}
);
associatedMasterId = m01;
background = {
annotations = (
{
pos = (606.031,837.486);
type = Text;
},
{
pos = (772.739,678.257);
type = Text;
}
);
};
layerId = "B999BAAF-601E-44D7-8C5D-84BE6E55CDFB";
name = Neuzeit;
shapes = (
{
closed = 1;
nodes = (
(1228,-26,o),
(1578,260,o),
(1578,724,cs),
(1578,1188,o),
(1268,1476,o),
(842,1476,cs),
(424,1476,o),
(106,1162,o),
(106,724,cs),
(106,260,o),
(416,-26,o),
(842,-26,cs)
);
},
{
closed = 1;
nodes = (
(436,120,o),
(280,486,o),
(280,724,cs),
(280,1018,o),
(440,1330,o),
(842,1330,cs),
(1244,1330,o),
(1404,1018,o),
(1404,724,cs),
(1404,486,o),
(1248,120,o),
(842,120,cs)
);
},
{
closed = 1;
nodes = (
(1586,32,l),
(1126,492,l),
(1030,396,l),
(1490,-64,l)
);
}
);
width = 1688;
},
{
annotations = (
{
pos = (1072,1670);
text = "방법이 없나?";
type = Text;
}
);
associatedMasterId = "94F54C43-8AEE-4ED6-B3C2-2A9D33534E61";
layerId = "6E278EEA-35FE-435A-86BF-D0978E920066";
name = Neuzeit;
shapes = (
{
closed = 1;
nodes = (
(1318,-26,o),
(1510,386,o),
(1510,724,cs),
(1510,1064,o),
(1294,1476,o),
(826,1476,cs),
(354,1476,o),
(142,1082,o),
(142,724,cs),
(142,386,o),
(360,-26,o),
(826,-26,cs)
);
},
{
closed = 1;
nodes = (
(648,306,o),
(528,450,o),
(528,724,cs),
(528,962,o),
(646,1142,o),
(826,1142,cs),
(1008,1142,o),
(1128,962,o),
(1126,724,cs),
(1124,450,o),
(1004,306,o),
(826,306,cs)
);
},
{
closed = 1;
nodes = (
(1550,144,l),
(972,594,l),
(776,368,l),
(1336,-94,l)
);
}
);
width = 1648;
}
);
unicode = 81;
},
{
glyphname = S;
kernLeft = S;
kernRight = S;
layers = (
{
background = {
shapes = (
{
attr = {
strokeHeight = 172;
strokeWidth = 184;
};
closed = 0;
nodes = (
(974,1196,l),
(886,1320,o),
(752,1390,o),
(602,1390,cs),
(392,1390,o),
(238,1254,o),
(238,1072,cs),
(238,928,o),
(334,842,o),
(564,778,cs),
(638,758,ls),
(900,686,o),
(1010,584,o),
(1010,410,cs),
(1010,198,o),
(848,58,o),
(602,58,cs),
(428,58,o),
(288,126,o),
(160,272,c)
);
}
);
};
layerId = m01;
shapes = (
{
closed = 1;
nodes = (
(898,-28,o),
(1102,150,o),
(1102,410,cs),
(1102,630,o),
(958,760,o),
(662,842,cs),
(588,862,ls),
(394,916,o),
(330,972,o),
(330,1072,cs),
(330,1204,o),
(442,1304,o),
(602,1304,cs),
(716,1304,o),
(822,1254,o),
(900,1146,c),
(1050,1246,l),
(948,1388,o),
(786,1476,o),
(602,1476,cs),
(344,1476,o),
(146,1304,o),
(146,1072,cs),
(146,882,o),
(278,768,o),
(540,696,cs),
(614,676,ls),
(842,612,o),
(918,540,o),
(918,410,cs),
(918,250,o),
(802,144,o),
(602,144,cs),
(460,144,o),
(344,198,o),
(230,330,c),
(92,216,l),
(232,54,o),
(400,-28,o),
(602,-28,cs)
);
}
);
width = 1194;
},
{
associatedMasterId = m01;
background = {
shapes = (
{
attr = {
strokeHeight = 172;
strokeWidth = 184;
};
closed = 0;
nodes = (
(1062,1196,l),
(964,1320,o),
(816,1390,o),
(648,1390,cs),
(416,1390,o),
(244,1254,o),
(244,1072,cs),
(244,928,o),
(350,842,o),
(606,778,cs),
(688,758,ls),
(980,686,o),
(1102,584,o),
(1102,410,cs),
(1102,198,o),
(922,58,o),
(648,58,cs),
(456,58,o),
(300,126,o),
(158,272,c)
);
},
{
closed = 0;
nodes = (
(906,1082,l),
(1198,1298,l)
);
},
{
closed = 0;
nodes = (
(64,190,l),
(336,412,l)
);
}
);
};
layerId = "7522D9CD-9B91-4311-AB4D-1DBDB20E70D0";
name = "100%";
shapes = (
{
closed = 1;
nodes = (
(248,51,o),
(430,-28,o),
(648,-28,cs),
(969,-28,o),
(1194,147,o),
(1194,410,cs),
(1194,633,o),
(1035,761,o),
(710,842,cs),
(628,861,ls),
(406,917,o),
(336,977,o),
(336,1072,cs),
(336,1203,o),
(463,1304,o),
(648,1304,cs),
(786,1304,o),
(905,1250,o),
(990,1143,c),
(1134,1249,l),
(1021,1392,o),
(844,1476,o),
(648,1476,cs),
(368,1476,o),
(152,1304,o),
(152,1072,cs),
(152,879,o),
(296,766,o),
(584,695,cs),
(666,674,ls),
(924,611,o),
(1010,535,o),
(1010,410,cs),
(1010,250,o),
(877,144,o),
(648,144,cs),
(482,144,o),
(352,201,o),
(224,332,c),
(92,212,l)
);
}
);
width = 1286;
},
{
associatedMasterId = m01;
background = {
shapes = (
{
attr = {
strokeHeight = 172;
strokeWidth = 184;
};
closed = 0;
nodes = (
(974,1196,l),
(886,1320,o),
(752,1390,o),
(602,1390,cs),
(392,1390,o),
(238,1254,o),
(238,1072,cs),
(238,928,o),
(334,842,o),
(564,778,cs),
(638,758,ls),
(900,686,o),
(1010,584,o),
(1010,410,cs),
(1010,198,o),
(848,58,o),
(602,58,cs),
(428,58,o),
(288,126,o),
(160,272,c)
);
}
);
};
layerId = "4C491BDF-515A-49F9-9AE1-9DBBFB3938B1";
name = "90%";
shapes = (
{
closed = 1;
nodes = (
(898,-28,o),
(1102,150,o),
(1102,410,cs),
(1102,630,o),
(958,760,o),
(662,842,cs),
(588,862,ls),
(394,916,o),
(330,974,o),
(330,1072,cs),
(330,1206,o),
(442,1304,o),
(602,1304,cs),
(716,1304,o),
(822,1254,o),
(900,1146,c),
(1050,1246,l),
(948,1388,o),
(786,1476,o),
(602,1476,cs),
(344,1476,o),
(146,1304,o),
(146,1072,cs),
(146,882,o),
(278,768,o),
(540,696,cs),
(614,676,ls),
(842,612,o),
(918,538,o),
(918,410,cs),
(918,248,o),
(800,144,o),
(602,144,cs),
(458,144,o),
(344,198,o),
(230,330,c),
(92,216,l),
(232,54,o),
(400,-28,o),
(602,-28,cs)
);
}
);
width = 1194;
},
{
associatedMasterId = m01;
background = {
shapes = (
{
attr = {
strokeHeight = 172;
strokeWidth = 184;
};
closed = 0;
nodes = (
(974,1196,l),
(886,1320,o),
(752,1390,o),
(602,1390,cs),
(392,1390,o),
(238,1254,o),
(238,1072,cs),
(238,928,o),
(334,842,o),
(564,778,cs),
(638,758,ls),
(900,686,o),
(1010,584,o),
(1010,410,cs),
(1010,198,o),
(848,58,o),
(602,58,cs),
(428,58,o),
(288,126,o),
(160,272,c)
);
}
);
};
layerId = "DE9104BE-98CA-42D8-9979-19C57AA92602";
name = "Apr 16, 23 2:57";
shapes = (
{
attr = {
strokeHeight = 172;
strokeWidth = 184;
};
closed = 0;
nodes = (
(974,1196,l),
(886,1320,o),
(752,1390,o),
(602,1390,cs),
(392,1390,o),
(238,1270,o),
(238,1088,cs),
(238,946,o),
(340,866,o),
(564,782,cs),
(638,754,ls),
(892,658,o),
(1010,566,o),
(1010,394,cs),
(1010,182,o),
(848,58,o),
(602,58,cs),
(428,58,o),
(288,126,o),
(160,272,c)
);
}
);
width = 1194;
},
{
associatedMasterId = m01;
layerId = "A99BA133-6324-4355-A0DB-56ACCDCCD33B";
name = Avenir;
shapes = (
{
closed = 1;
nodes = (
(964,1420,o),
(810,1486,o),
(640,1486,cs),
(404,1486,o),
(144,1362,o),
(144,1072,cs),
(144,810,o),
(330,720,o),
(520,666,c),
(700,606,o),
(864,562,o),
(864,384,cs),
(864,214,o),
(706,138,o),
(572,138,cs),
(438,138,o),
(318,206,o),
(250,308,c),
(92,174,l),
(204,36,o),
(386,-36,o),
(568,-36,cs),
(824,-36,o),
(1070,102,o),
(1070,404,cs),
(1070,686,o),
(842,766,o),
(644,826,cs),
(480,882,o),
(348,918,o),
(348,1080,cs),
(348,1242,o),
(496,1316,o),
(630,1316,cs),
(752,1316,o),
(854,1258,o),
(912,1180,c),
(1056,1320,l)
);
}
);
width = 1162;
},
{
associatedMasterId = "94F54C43-8AEE-4ED6-B3C2-2A9D33534E61";
layerId = "38527997-E200-4A1A-8198-081639DE7CB8";
name = "100%";
shapes = (
{
attr = {
strokeHeight = 408;
strokeWidth = 432;
};
closed = 0;
nodes = (
(1176,1148,l),
(1080,1208,o),
(928,1272,o),
(748,1272,cs),
(510,1272,o),
(328,1156,o),
(328,992,cs),
(328,866,o),
(422,780,o),
(642,736,cs),
(714,722,ls),
(974,670,o),
(1070,580,o),
(1070,448,cs),
(1070,260,o),
(882,176,o),
(636,176,cs),
(440,176,o),
(296,246,o),
(174,322,c)
);
}
);
width = 1350;
},
{
associatedMasterId = "94F54C43-8AEE-4ED6-B3C2-2A9D33534E61";
layerId = "25E6BCA0-F241-4C3A-8630-F15A38E5991A";
name = "95%";
shapes = (
{
attr = {
strokeHeight = 408;
strokeWidth = 432;
};
closed = 0;
nodes = (
(1130,1148,l),
(1008,1228,o),
(862,1272,o),
(724,1272,cs),
(492,1272,o),
(324,1156,o),
(324,992,cs),
(324,864,o),
(426,776,o),
(622,736,cs),
(690,722,ls),
(926,674,o),
(1030,588,o),
(1030,448,cs),
(1030,282,o),
(890,176,o),
(636,176,cs),
(478,176,o),
(338,216,o),
(178,322,c)
);
}
);
width = 1308;
},
{
associatedMasterId = "94F54C43-8AEE-4ED6-B3C2-2A9D33534E61";
layerId = "13EB94D9-5FDF-49A7-99E7-452094B58A8C";
name = "Apr 16, 23 3:02";
shapes = (
{
closed = 1;
nodes = (
(1006,-28,o),
(1246,162,o),
(1246,448,cs),
(1246,656,o),
(1118,840,o),
(734,922,cs),
(668,936,ls),
(566,958,o),
(540,970,o),
(540,996,cs),
(540,1038,o),
(612,1068,o),
(724,1068,cs),
(830,1068,o),
(914,1042,o),
(1012,978,c),
(1248,1320,l),
(1140,1390,o),
(954,1476,o),
(724,1476,cs),
(356,1476,o),
(108,1258,o),
(108,992,cs),
(108,804,o),
(230,608,o),
(620,526,cs),
(686,512,ls),
(788,490,o),
(814,478,o),
(814,452,cs),
(814,410,o),
(744,380,o),
(636,380,cs),
(520,380,o),
(420,414,o),
(298,494,c),
(60,152,l),
(182,72,o),
(368,-28,o),
(636,-28,cs)
);
}
);
width = 1308;
},
{
associatedMasterId = "94F54C43-8AEE-4ED6-B3C2-2A9D33534E61";
layerId = "6BE7B17D-F009-44C7-98BC-C8705BAAAC28";
name = Avenir;
shapes = (
{
closed = 1;
nodes = (
(946,-28,o),
(1246,138,o),
(1246,480,cs),
(1246,772,o),
(970,866,o),
(766,932,cs),
(716,948,o),
(680,960,o),
(658,972,cs),
(636,982,o),
(626,998,o),
(626,1020,cs),
(626,1064,o),
(672,1084,o),
(742,1084,cs),
(818,1084,o),
(922,1042,o),
(986,960,c),
(1284,1264,l),
(1138,1400,o),
(928,1476,o),
(742,1476,cs),
(466,1476,o),
(144,1342,o),
(144,988,cs),
(144,742,o),
(316,636,o),
(512,572,cs),
(612,538,o),
(676,516,o),
(714,496,cs),
(750,476,o),
(764,460,o),
(764,432,cs),
(764,382,o),
(710,366,o),
(656,366,cs),
(538,366,o),
(418,432,o),
(352,504,c),
(60,188,l),
(194,68,o),
(416,-28,o),
(658,-28,cs)
);
}
);
width = 1344;
},
{
associatedMasterId = "94F54C43-8AEE-4ED6-B3C2-2A9D33534E61";
background = {
shapes = (
{
attr = {
strokeHeight = 408;
strokeWidth = 432;
};
closed = 0;
nodes = (
(1130,1148,l),
(1038,1208,o),
(894,1272,o),
(724,1272,cs),
(498,1272,o),
(324,1156,o),
(324,992,cs),
(324,866,o),
(414,780,o),
(622,736,cs),
(690,722,ls),
(938,670,o),
(1030,580,o),
(1030,448,cs),
(1030,260,o),
(850,176,o),
(616,176,cs),
(430,176,o),
(294,246,o),
(178,322,c)
);
}
);
};
layerId = "C74B3552-0154-44E8-B6C9-BFBF761572A8";
name = "Apr 16, 23 12:48";
shapes = (
{
closed = 1;
nodes = (
(1004,-28,o),
(1246,148,o),
(1246,434,cs),
(1246,642,o),
(1118,840,o),
(734,922,cs),
(668,936,ls),
(566,958,o),
(540,966,o),
(540,992,cs),
(540,1034,o),
(612,1068,o),
(724,1068,cs),
(830,1068,o),
(914,1042,o),
(1012,978,c),
(1248,1320,l),
(1140,1390,o),
(954,1476,o),
(724,1476,cs),
(356,1476,o),
(108,1254,o),
(108,988,cs),
(108,800,o),
(232,616,o),
(576,538,cs),
(646,522,ls),
(778,492,o),
(814,468,o),
(814,438,cs),
(814,396,o),
(750,380,o),
(636,380,cs),
(510,380,o),
(426,408,o),
(298,492,c),
(60,152,l),
(182,72,o),
(366,-28,o),
(636,-28,cs)
);
}
);
width = 1308;
},
{
associatedMasterId = "94F54C43-8AEE-4ED6-B3C2-2A9D33534E61";
background = {
shapes = (
{
attr = {
strokeHeight = 408;
strokeWidth = 432;
};
closed = 0;
nodes = (
(1130,1148,l),
(1038,1208,o),
(900,1272,o),
(724,1272,cs),
(504,1272,o),
(324,1176,o),
(324,1008,cs),
(324,886,o),
(420,808,o),
(622,748,cs),
(690,728,ls),
(932,656,o),
(1030,568,o),
(1030,442,cs),
(1030,248,o),
(804,176,o),
(616,176,cs),
(450,176,o),
(312,232,o),
(178,322,c)
);
}
);
};
layerId = "523FCD1A-26B7-4962-AFA1-DD470FA92A58";
name = "Apr 16, 23 12:01";
width = 1308;
},
{
associatedMasterId = "94F54C43-8AEE-4ED6-B3C2-2A9D33534E61";
background = {
shapes = (
{
attr = {
strokeHeight = 408;
strokeWidth = 432;
};
closed = 0;
nodes = (
(1086,1148,l),
(998,1208,o),
(872,1272,o),
(702,1272,cs),
(494,1272,o),
(322,1176,o),
(322,1008,cs),
(322,886,o),
(412,810,o),
(618,748,cs),
(684,728,ls),
(898,664,o),
(990,568,o),
(992,442,cs),
(990,248,o),
(778,176,o),
(598,176,cs),
(442,176,o),
(312,232,o),
(184,322,c)
);
}
);
};
layerId = "D710EADB-9921-46C6-AD71-F29A6F6B1E88";
name = "Apr 16, 23 12:07";
shapes = (
{
closed = 1;
nodes = (
(916,-28,o),
(1210,138,o),
(1208,444,cs),
(1208,636,o),
(1092,814,o),
(738,922,cs),
(672,942,ls),
(590,966,o),
(538,978,o),
(538,1008,cs),
(538,1040,o),
(598,1068,o),
(702,1068,cs),
(818,1068,o),
(890,1032,o),
(964,980,c),
(1208,1318,l),
(1106,1386,o),
(936,1476,o),
(702,1476,cs),
(352,1476,o),
(106,1278,o),
(106,1008,cs),
(106,818,o),
(226,648,o),
(538,554,cs),
(604,534,ls),
(724,498,o),
(776,478,o),
(776,444,cs),
(776,404,o),
(708,380,o),
(598,380,cs),
(470,380,o),
(416,414,o),
(308,490,c),
(60,156,l),
(210,50,o),
(382,-28,o),
(598,-28,cs)
);
}
);
width = 1268;
},
{
associatedMasterId = "94F54C43-8AEE-4ED6-B3C2-2A9D33534E61";
background = {
shapes = (
{
attr = {
strokeHeight = 408;
strokeWidth = 432;
};
closed = 0;
nodes = (
(1086,1148,l),
(998,1208,o),
(872,1272,o),
(702,1272,cs),
(494,1272,o),
(322,1176,o),
(322,1008,cs),
(322,886,o),
(412,810,o),
(618,748,cs),
(684,728,ls),
(898,664,o),
(990,568,o),
(992,442,cs),
(990,248,o),
(778,176,o),
(598,176,cs),
(442,176,o),
(312,232,o),
(184,322,c)
);
}
);
};
layerId = "147E45C4-9C18-40D7-8C05-1CA426FA4313";
name = "Apr 16, 23 12:15";
shapes = (
{
closed = 1;
nodes = (
(916,-28,o),
(1210,142,o),
(1208,444,cs),
(1208,642,o),
(1082,822,o),
(746,924,cs),
(680,944,ls),
(564,980,o),
(538,990,o),
(538,1012,cs),
(538,1048,o),
(604,1068,o),
(702,1068,cs),
(808,1068,o),
(880,1044,o),
(970,988,c),
(1208,1318,l),
(1106,1386,o),
(938,1476,o),
(702,1476,cs),
(350,1476,o),
(106,1278,o),
(106,1008,cs),
(106,812,o),
(234,652,o),
(556,554,cs),
(622,534,ls),
(734,500,o),
(776,478,o),
(776,444,cs),
(776,400,o),
(698,380,o),
(598,380,cs),
(470,380,o),
(412,406,o),
(300,480,c),
(60,156,l),
(210,50,o),
(382,-28,o),
(598,-28,cs)
);
}
);
width = 1268;
},
{
background = {
shapes = (
{
attr = {
strokeHeight = 408;
strokeWidth = 432;
};
closed = 0;
nodes = (
(1086,1148,l),
(998,1208,o),
(872,1272,o),
(702,1272,cs),
(494,1272,o),
(322,1176,o),
(322,1008,cs),
(322,886,o),
(412,806,o),
(618,744,cs),
(684,724,ls),
(898,660,o),
(990,568,o),
(992,442,cs),
(990,248,o),
(778,176,o),
(598,176,cs),
(442,176,o),
(312,232,o),
(184,322,c)
);
}
);
};
layerId = "94F54C43-8AEE-4ED6-B3C2-2A9D33534E61";
name = Black;
shapes = (
{
closed = 1;
nodes = (
(916,-28,o),
(1210,142,o),
(1208,444,cs),
(1208,642,o),
(1082,818,o),
(746,920,cs),
(680,940,ls),
(554,978,o),
(538,996,o),
(538,1016,cs),
(538,1046,o),
(574,1068,o),
(678,1068,cs),
(778,1068,o),
(880,1044,o),
(970,988,c),
(1208,1318,l),
(1106,1386,o),
(938,1476,o),
(702,1476,cs),
(350,1476,o),
(106,1278,o),
(106,1008,cs),
(106,812,o),
(234,648,o),
(556,550,cs),
(622,530,ls),
(734,496,o),
(776,480,o),
(776,444,cs),
(776,402,o),
(726,380,o),
(622,380,cs),
(498,380,o),
(412,406,o),
(300,480,c),
(60,156,l),
(210,50,o),
(382,-28,o),
(598,-28,cs)
);
}
);
width = 1268;
},
{
associatedMasterId = "94F54C43-8AEE-4ED6-B3C2-2A9D33534E61";
background = {
shapes = (
{
attr = {
strokeHeight = 408;
strokeWidth = 432;
};
closed = 0;
nodes = (
(1086,1148,l),
(998,1208,o),
(872,1272,o),
(702,1272,cs),
(494,1272,o),
(322,1176,o),
(322,1008,cs),
(322,886,o),
(412,810,o),
(618,748,cs),
(684,728,ls),
(898,664,o),
(990,568,o),
(992,442,cs),
(990,248,o),
(778,176,o),
(598,176,cs),
(442,176,o),
(312,232,o),
(184,322,c)
);
}
);
};
layerId = "3CBBC9F4-72AA-47C2-981E-0B5EBBFB5B21";
name = "Apr 16, 23 12:58";
shapes = (
{
closed = 1;
nodes = (
(916,-28,o),
(1210,142,o),
(1208,444,cs),
(1208,642,o),
(1082,822,o),
(746,924,cs),
(680,944,ls),
(564,980,o),
(538,990,o),
(538,1012,cs),
(538,1048,o),
(604,1068,o),
(702,1068,cs),
(808,1068,o),
(880,1044,o),
(970,988,c),
(1208,1318,l),
(1106,1386,o),
(938,1476,o),
(702,1476,cs),
(350,1476,o),
(106,1278,o),
(106,1008,cs),
(106,812,o),
(234,652,o),
(556,554,cs),
(622,534,ls),
(734,500,o),
(776,478,o),
(776,444,cs),
(776,400,o),
(698,380,o),
(598,380,cs),
(470,380,o),
(412,406,o),
(300,480,c),
(60,156,l),
(210,50,o),
(382,-28,o),
(598,-28,cs)
);
}
);
width = 1268;
}
);
metricLeft = O;
metricRight = O;
unicode = 83;
},
{
glyphname = U;
kernLeft = U;
kernRight = U;
layers = (
{
layerId = m01;
metricLeft = "=I";
metricRight = "=|";
shapes = (
{
closed = 1;
nodes = (
(1024,-28,o),
(1244,216,o),
(1244,580,cs),
(1244,1444,l),
(1064,1444,l),
(1064,580,ls),
(1064,318,o),
(916,144,o),
(692,144,cs),
(468,144,o),
(320,318,o),
(320,580,cs),
(320,1444,l),
(140,1444,l),
(140,580,ls),
(140,216,o),
(360,-28,o),
(692,-28,cs)
);
}
);
width = 1384;
},
{
layerId = "94F54C43-8AEE-4ED6-B3C2-2A9D33534E61";
metricLeft = "=I*.9";
metricRight = "=|";
shapes = (
{
closed = 1;
nodes = (
(1150,-28,o),
(1412,254,o),
(1412,678,cs),
(1412,1448,l),
(980,1448,l),
(980,678,ls),
(980,482,o),
(904,380,o),
(758,380,cs),
(612,380,o),
(536,482,o),
(536,678,cs),
(536,1448,l),
(104,1448,l),
(104,678,ls),
(104,254,o),
(366,-28,o),
(758,-28,cs)
);
}
);
width = 1516;
},
{
associatedMasterId = "94F54C43-8AEE-4ED6-B3C2-2A9D33534E61";
layerId = "1A200B3C-1AF4-4635-BE02-A016982A3F5B";
name = "100%";
shapes = (
{
attr = {
strokeHeight = 408;
strokeWidth = 432;
};
closed = 0;
nodes = (
(332,1448,l),
(332,724,ls),
(332,410,o),
(566,176,o),
(880,176,cs),
(1194,176,o),
(1428,410,o),
(1428,724,cs),
(1428,1448,l)
);
}
);
width = 1760;
},
{
associatedMasterId = m01;
layerId = "3B4DA6B1-6B6A-41A5-B956-7B6DB9403735";
name = "100%";
shapes = (
{
attr = {
strokeHeight = 172;
strokeWidth = 180;
};
closed = 0;
nodes = (
(230,1444,l),
(230,724,ls),
(230,344,o),
(512,58,o),
(890,58,cs),
(1268,58,o),
(1550,344,o),
(1550,724,cs),
(1550,1444,l)
);
}
);
width = 1780;
},
{
associatedMasterId = m01;
layerId = "A90120ED-FA29-4003-96BC-0A71C2C9C167";
name = "70%";
shapes = (
{
attr = {
strokeHeight = 172;
strokeWidth = 180;
};
closed = 0;
nodes = (
(230,1444,l),
(230,524,ls),
(230,258,o),
(428,58,o),
(692,58,cs),
(956,58,o),
(1154,258,o),
(1154,524,cs),
(1154,1444,l)
);
}
);
width = 1384;
},
{
associatedMasterId = "94F54C43-8AEE-4ED6-B3C2-2A9D33534E61";
layerId = "E5623DDD-13A2-490B-931F-AB86F48E75B7";
name = "80%";
shapes = (
{
attr = {
strokeHeight = 408;
strokeWidth = 432;
};
closed = 0;
nodes = (
(332,1448,l),
(332,614,ls),
(332,364,o),
(520,176,o),
(770,176,cs),
(1022,176,o),
(1208,364,o),
(1208,614,cs),
(1208,1448,l)
);
}
);
width = 1540;
}
);
metricLeft = I;
metricRight = I;
unicode = 85;
},
{
glyphname = V;
kernLeft = V;
kernRight = V;
layers = (
{
background = {
shapes = (
{
pos = (16,1448);
ref = A;
scale = (1,-1);
}
);
};
layerId = m01;
metricRight = "=|";
shapes = (
{
closed = 1;
nodes = (
(846,0,l),
(1424,1448,l),
(1228,1448,l),
(658,0,l)
);
},
{
closed = 1;
nodes = (
(810,0,l),
(240,1448,l),
(44,1448,l),
(622,0,l)
);
}
);
width = 1468;
},
{
background = {
shapes = (
{
pos = (4,1448);
ref = A;
scale = (1,-1);
}
);
};
layerId = "94F54C43-8AEE-4ED6-B3C2-2A9D33534E61";
metricLeft = "=A-8";
metricRight = "=|";
shapes = (
{
closed = 1;
nodes = (
(1006,0,l),
(1580,1448,l),
(1096,1448,l),
(610,0,l)
);
},
{
closed = 1;
nodes = (
(998,0,l),
(512,1448,l),
(28,1448,l),
(602,0,l)
);
}
);
width = 1608;
},
{
associatedMasterId = "94F54C43-8AEE-4ED6-B3C2-2A9D33534E61";
layerId = "B26F495A-A44A-4284-966D-03BC57E86293";
name = "Apr 13, 23 11:50";
shapes = (
{
closed = 1;
nodes = (
(1014,0,l),
(1588,1448,l),
(1148,1448,l),
(642,0,l)
);
},
{
closed = 1;
nodes = (
(982,0,l),
(476,1448,l),
(36,1448,l),
(610,0,l)
);
}
);
width = 1624;
}
);
metricLeft = A;
metricRight = A;
unicode = 86;
},
{
glyphname = W;
kernLeft = V;
kernRight = V;
layers = (
{
background = {
shapes = (
{
closed = 0;
nodes = (
(-12,1568,l),
(512,0,l)
);
},
{
closed = 0;
nodes = (
(740,0,l),
(1228,1654,l)
);
}
);
};
layerId = m01;
shapes = (
{
closed = 1;
nodes = (
(1604,0,l),
(2068,1448,l),
(1876,1448,l),
(1428,0,l)
);
},
{
closed = 1;
nodes = (
(684,0,l),
(236,1448,l),
(44,1448,l),
(508,0,l)
);
},
{
closed = 1;
nodes = (
(740,0,l),
(1128,1358,l),
(1104,1448,l),
(958,1448,l),
(566,0,l)
);
},
{
closed = 1;
nodes = (
(1546,0,l),
(1154,1448,l),
(1008,1448,l),
(984,1358,l),
(1372,0,l)
);
}
);
width = 2112;
},
{
background = {
shapes = (
{
closed = 0;
nodes = (
(912,0,l),
(1260,1222,l)
);
}
);
};
layerId = "94F54C43-8AEE-4ED6-B3C2-2A9D33534E61";
shapes = (
{
closed = 1;
nodes = (
(1772,0,l),
(2236,1448,l),
(1776,1448,l),
(1380,0,l)
);
},
{
closed = 1;
nodes = (
(884,0,l),
(488,1448,l),
(28,1448,l),
(492,0,l)
);
},
{
closed = 1;
nodes = (
(904,0,l),
(1252,1222,l),
(1228,1448,l),
(940,1448,l),
(540,0,l)
);
},
{
closed = 1;
nodes = (
(1724,0,l),
(1324,1448,l),
(1036,1448,l),
(1012,1222,l),
(1360,0,l)
);
}
);
width = 2264;
},
{
associatedMasterId = "94F54C43-8AEE-4ED6-B3C2-2A9D33534E61";
layerId = "52305F1F-818D-4B58-ABBC-6C1D609C1045";
name = "Apr 11, 23 15:52";
shapes = (
{
closed = 1;
nodes = (
(1014,0,l),
(1588,1448,l),
(1162,1448,l),
(650,0,l)
);
},
{
closed = 1;
nodes = (
(974,0,l),
(462,1448,l),
(36,1448,l),
(610,0,l)
);
}
);
width = 1624;
},
{
associatedMasterId = m01;
layerId = "ED59C54B-10D6-49B0-ACC3-BAD3514F0515";
name = "Apr 11, 23 15:52";
shapes = (
{
closed = 1;
nodes = (
(848,0,l),
(1426,1448,l),
(1232,1448,l),
(660,0,l)
);
},
{
closed = 1;
nodes = (
(810,0,l),
(238,1448,l),
(44,1448,l),
(622,0,l)
);
}
);
width = 1470;
},
{
associatedMasterId = m01;
background = {
shapes = (
{
closed = 0;
nodes = (
(-2,1586,l),
(530,0,l)
);
}
);
};
layerId = "0238685D-63BE-4E62-A902-2A091A08D91E";
name = "Apr 11, 23 16:09";
shapes = (
{
closed = 1;
nodes = (
(728,0,l),
(1216,1448,l),
(1026,1448,l),
(544,0,l)
);
},
{
closed = 1;
nodes = (
(716,0,l),
(234,1448,l),
(44,1448,l),
(532,0,l)
);
},
{
closed = 1;
nodes = (
(1650,0,l),
(2138,1448,l),
(1948,1448,l),
(1466,0,l)
);
},
{
closed = 1;
nodes = (
(1638,0,l),
(1156,1448,l),
(966,1448,l),
(1454,0,l)
);
}
);
width = 2182;
},
{
associatedMasterId = "94F54C43-8AEE-4ED6-B3C2-2A9D33534E61";
background = {
shapes = (
{
pos = (-80,0);
ref = w;
scale = (1.4034,1.4034);
}
);
};
layerId = "FE293046-4DF1-4CBB-95F4-15F2E0180DBD";
name = "Apr 11, 23 16:09";
shapes = (
{
closed = 1;
nodes = (
(878,0,l),
(1372,1448,l),
(954,1448,l),
(526,0,l)
);
},
{
closed = 1;
nodes = (
(882,0,l),
(454,1448,l),
(36,1448,l),
(530,0,l)
);
},
{
closed = 1;
nodes = (
(1812,0,l),
(2306,1448,l),
(1888,1448,l),
(1460,0,l)
);
},
{
closed = 1;
nodes = (
(1816,0,l),
(1388,1448,l),
(970,1448,l),
(1464,0,l)
);
}
);
width = 2342;
},
{
associatedMasterId = m01;
background = {
shapes = (
{
closed = 0;
nodes = (
(4,1568,l),
(528,0,l)
);
},
{
closed = 0;
nodes = (
(756,0,l),
(1244,1654,l)
);
}
);
};
layerId = "DE816DFD-7C72-4FCA-AB2F-E9324613CFFB";
name = "Apr 11, 23 17:06";
shapes = (
{
closed = 1;
nodes = (
(706,0,l),
(238,1448,l),
(44,1448,l),
(528,0,l)
);
},
{
closed = 1;
nodes = (
(760,0,l),
(1160,1358,l),
(1136,1448,l),
(990,1448,l),
(586,0,l)
);
},
{
closed = 1;
nodes = (
(2130,1448,l),
(1936,1448,l),
(1468,0,l),
(1646,0,l)
);
},
{
closed = 1;
nodes = (
(1184,1448,l),
(1038,1448,l),
(1014,1358,l),
(1414,0,l),
(1588,0,l)
);
}
);
width = 2174;
},
{
associatedMasterId = m01;
background = {
shapes = (
{
closed = 0;
nodes = (
(-28,1568,l),
(496,0,l)
);
},
{
closed = 0;
nodes = (
(724,0,l),
(1212,1654,l)
);
}
);
};
layerId = "8B64AF8F-39FE-4C6A-B083-01CB7DC77CD9";
name = "Apr 11, 23 17:09";
shapes = (
{
closed = 1;
nodes = (
(668,0,l),
(240,1448,l),
(44,1448,l),
(492,0,l)
);
},
{
closed = 1;
nodes = (
(724,0,l),
(1096,1358,l),
(1072,1448,l),
(926,1448,l),
(550,0,l)
);
},
{
closed = 1;
nodes = (
(2004,1448,l),
(1808,1448,l),
(1380,0,l),
(1556,0,l)
);
},
{
closed = 1;
nodes = (
(1122,1448,l),
(976,1448,l),
(952,1358,l),
(1324,0,l),
(1498,0,l)
);
}
);
width = 2048;
},
{
associatedMasterId = "94F54C43-8AEE-4ED6-B3C2-2A9D33534E61";
background = {
shapes = (
{
closed = 0;
nodes = (
(920,0,l),
(1268,1222,l)
);
}
);
};
layerId = "89EAF32A-0535-45AE-8BAF-86E201D4B623";
name = "Apr 13, 23 11:51";
shapes = (
{
closed = 1;
nodes = (
(1780,0,l),
(2244,1448,l),
(1806,1448,l),
(1400,0,l)
);
},
{
closed = 1;
nodes = (
(880,0,l),
(474,1448,l),
(36,1448,l),
(500,0,l)
);
},
{
closed = 1;
nodes = (
(912,0,l),
(1260,1222,l),
(1236,1448,l),
(956,1448,l),
(564,0,l)
);
},
{
closed = 1;
nodes = (
(1716,0,l),
(1324,1448,l),
(1044,1448,l),
(1020,1222,l),
(1368,0,l)
);
}
);
width = 2280;
}
);
metricLeft = V;
metricRight = V;
unicode = 87;
},
{
glyphname = X;
kernLeft = X;
kernRight = X;
layers = (
{
layerId = m01;
shapes = (
{
closed = 1;
nodes = (
(256,0,l),
(674,594,l),
(1092,0,l),
(1304,0,l),
(788,724,l),
(1304,1448,l),
(1092,1448,l),
(674,856,l),
(256,1448,l),
(44,1448,l),
(560,724,l),
(44,0,l)
);
}
);
width = 1348;
},
{
layerId = "94F54C43-8AEE-4ED6-B3C2-2A9D33534E61";
shapes = (
{
closed = 1;
nodes = (
(538,0,l),
(798,398,l),
(1060,0,l),
(1570,0,l),
(1070,724,l),
(1570,1448,l),
(1060,1448,l),
(798,1050,l),
(538,1448,l),
(28,1448,l),
(528,724,l),
(28,0,l)
);
}
);
width = 1598;
},
{
associatedMasterId = m01;
layerId = "B6CF3748-8BDB-45D5-B657-49AE5D1C413B";
name = Base;
shapes = (
{
attr = {
lineCapEnd = "4";
lineCapStart = "4";
strokeWidth = 172;
};
closed = 0;
nodes = (
(150,1448,l),
(1198,0,l)
);
},
{
attr = {
lineCapEnd = "4";
lineCapStart = "4";
strokeWidth = 172;
};
closed = 0;
nodes = (
(1198,1448,l),
(150,0,l)
);
}
);
width = 1348;
},
{
associatedMasterId = "94F54C43-8AEE-4ED6-B3C2-2A9D33534E61";
layerId = "145A19B4-352C-4B93-9554-9405564ED893";
name = Base;
shapes = (
{
attr = {
lineCapEnd = "4";
lineCapStart = "4";
strokeWidth = 416;
};
closed = 0;
nodes = (
(282,1448,l),
(1314,0,l)
);
},
{
attr = {
lineCapEnd = "4";
lineCapStart = "4";
strokeWidth = 416;
};
closed = 0;
nodes = (
(1314,1448,l),
(282,0,l)
);
}
);
width = 1598;
},
{
associatedMasterId = "94F54C43-8AEE-4ED6-B3C2-2A9D33534E61";
layerId = "43F533A6-3C3A-4A89-B8D5-4C6BE4BC0301";
name = "Apr 14, 23 15:10";
shapes = (
{
closed = 1;
nodes = (
(1054,724,l),
(1570,1448,l),
(1060,1448,l),
(798,1050,l),
(538,1448,l),
(28,1448,l),
(544,724,l),
(28,0,l),
(538,0,l),
(798,398,l),
(1060,0,l),
(1570,0,l)
);
}
);
width = 1598;
},
{
associatedMasterId = m01;
layerId = "73F441CF-B750-4FE3-B4E2-AF1252E6AC49";
name = "Apr 14, 23 15:11";
shapes = (
{
closed = 1;
nodes = (
(256,0,l),
(674,594,l),
(1092,0,l),
(1304,0,l),
(780,724,l),
(1304,1448,l),
(1092,1448,l),
(674,856,l),
(256,1448,l),
(44,1448,l),
(568,724,l),
(44,0,l)
);
}
);
width = 1348;
}
);
metricLeft = V;
metricRight = V;
unicode = 88;
},
{
glyphname = Y;
kernLeft = V;
kernRight = V;
layers = (
{
.lastUpdate = 704788277.652;
background = {
shapes = (
{
closed = 1;
nodes = (
(1308,1448,l),
(1074,1448,l),
(670,794,l),
(270,1448,l),
(20,1448,l),
(562,626,l),
(562,0,l),
(766,0,l),
(766,626,l),
(766,626,l)
);
}
);
};
layerId = m01;
shapes = (
{
ref = _part.Ybase;
},
{
piece = {
Height = 724;
};
pos = (434,0);
ref = _smart.upperstem;
}
);
width = 1328;
},
{
.lastUpdate = 704788365.106;
background = {
shapes = (
{
closed = 1;
nodes = (
(1644,1448,l),
(1072,1448,l),
(854,1024,l),
(624,1448,l),
(38,1448,l),
(584,594,l),
(584,0,l),
(1070,0,l),
(1070,594,l),
(1070,594,l)
);
}
);
};
layerId = "94F54C43-8AEE-4ED6-B3C2-2A9D33534E61";
shapes = (
{
ref = _part.Ybase;
},
{
piece = {
Height = 724;
};
pos = (486,0);
ref = _smart.upperstem;
}
);
width = 1636;
}
);
metricLeft = X;
metricRight = X;
unicode = 89;
},
{
glyphname = Z;
kernLeft = Z;
kernRight = Z;
layers = (
{
layerId = m01;
metricLeft = "=I*.754";
metricRight = "=|";
shapes = (
{
closed = 1;
nodes = (
(322,168,l),
(1170,1280,l),
(954,1280,l),
(105,168,l)
);
},
{
attr = {
strokePos = "1";
};
closed = 1;
nodes = (
(1186,0,l),
(1186,168,l),
(322,168,l),
(106,168,l),
(106,0,l)
);
},
{
attr = {
strokePos = "0";
};
closed = 1;
nodes = (
(954,1280,l),
(1170,1280,l),
(1170,1448,l),
(114,1448,l),
(114,1280,l)
);
}
);
width = 1292;
},
{
layerId = "94F54C43-8AEE-4ED6-B3C2-2A9D33534E61";
metricRight = "=|";
shapes = (
{
closed = 1;
nodes = (
(688,400,l),
(1260,1064,l),
(674,1048,l),
(116,400,l)
);
},
{
attr = {
strokePos = "1";
};
closed = 1;
nodes = (
(1276,0,l),
(1276,400,l),
(688,400,l),
(116,400,l),
(116,0,l)
);
},
{
attr = {
strokePos = "0";
};
closed = 1;
nodes = (
(674,1048,l),
(1260,1064,l),
(1260,1448,l),
(124,1448,l),
(124,1048,l)
);
}
);
width = 1392;
},
{
associatedMasterId = m01;
layerId = "65B8231A-9CCF-48B1-8C6D-536586C5C65E";
metricLeft = "=I*.754";
metricRight = "=|Z";
name = "Apr 14, 23 15:46";
shapes = (
{
attr = {
strokePos = "0";
strokeWidth = 168;
};
closed = 0;
nodes = (
(106,1448,l),
(1250,1448,l)
);
},
{
attr = {
strokePos = 1;
strokeWidth = 168;
};
closed = 0;
nodes = (
(106,0,l),
(1250,0,l)
);
},
{
attr = {
lineCapEnd = "4";
lineCapStart = "4";
strokeWidth = 172;
};
closed = 0;
nodes = (
(1138,1280,l),
(218,168,l)
);
}
);
width = 1356;
},
{
associatedMasterId = "94F54C43-8AEE-4ED6-B3C2-2A9D33534E61";
layerId = "8F39DBDD-F60B-4DB4-950F-5DD2AC36814E";
name = "Apr 14, 23 15:46";
shapes = (
{
attr = {
strokePos = "0";
strokeWidth = 400;
};
closed = 0;
nodes = (
(116,1448,l),
(1292,1448,l)
);
},
{
attr = {
strokePos = "1";
strokeWidth = 400;
};
closed = 0;
nodes = (
(116,0,l),
(1292,0,l)
);
},
{
attr = {
lineCapEnd = 4;
lineCapStart = 4;
strokeWidth = 448;
};
closed = 0;
nodes = (
(992,1048,l),
(416,400,l)
);
}
);
width = 1342;
},
{
associatedMasterId = "94F54C43-8AEE-4ED6-B3C2-2A9D33534E61";
layerId = "EFED6C30-7C03-4DCE-86D9-5EE854315C7A";
name = Base;
shapes = (
{
attr = {
strokePos = "0";
strokeWidth = 400;
};
closed = 0;
nodes = (
(124,1448,l),
(1260,1448,l)
);
},
{
attr = {
strokePos = "1";
strokeWidth = 400;
};
closed = 0;
nodes = (
(116,0,l),
(1276,0,l)
);
},
{
attr = {
lineCapEnd = "4";
lineCapStart = "4";
strokeWidth = 432;
};
closed = 0;
nodes = (
(972,1048,l),
(402,400,l)
);
}
);
width = 1392;
},
{
associatedMasterId = m01;
layerId = "B7FA6B9B-632C-4810-BC4B-E18B88A56CF3";
metricLeft = "=I*.754";
metricRight = "=|Z";
name = Base;
shapes = (
{
attr = {
strokePos = "0";
strokeWidth = 168;
};
closed = 0;
nodes = (
(114,1448,l),
(1170,1448,l)
);
},
{
attr = {
strokePos = "1";
strokeWidth = 168;
};
closed = 0;
nodes = (
(106,0,l),
(1186,0,l)
);
},
{
attr = {
lineCapEnd = "4";
lineCapStart = "4";
strokeWidth = 172;
};
closed = 0;
nodes = (
(1062,1280,l),
(214,168,l)
);
}
);
width = 1292;
}
);
metricLeft = I;
metricRight = I;
unicode = 90;
},
{
glyphname = Q.cv06;
kernLeft = O;
kernRight = Q.cv06;
layers = (
{
background = {
shapes = (
{
attr = {
strokeHeight = 172;
strokeWidth = 184;
};
closed = 1;
nodes = (
(1200,86,o),
(1476,366,o),
(1476,738,cs),
(1476,1110,o),
(1200,1390,o),
(830,1390,cs),
(460,1390,o),
(184,1110,o),
(184,738,cs),
(184,366,o),
(460,86,o),
(830,86,cs)
);
},
{
attr = {
strokePos = "1";
strokeWidth = 168;
};
closed = 0;
nodes = (
(830,0,l),
(1646,0,l)
);
}
);
};
layerId = m01;
shapes = (
{
closed = 1;
nodes = (
(830,72,l),
(1276,72,o),
(1568,336,o),
(1568,738,cs),
(1568,1160,o),
(1252,1476,o),
(830,1476,cs),
(408,1476,o),
(92,1160,o),
(92,738,cs),
(92,296,o),
(416,0,o),
(904,0,c)
);
},
{
closed = 1;
nodes = (
(504,172,o),
(276,406,o),
(276,738,cs),
(276,1070,o),
(504,1304,o),
(830,1304,cs),
(1156,1304,o),
(1384,1070,o),
(1384,738,cs),
(1384,406,o),
(1156,172,o),
(830,172,cs)
);
},
{
attr = {
strokePos = "1";
};
closed = 1;
nodes = (
(1646,0,l),
(1646,168,l),
(686,168,l),
(904,0,l)
);
}
);
width = 1752;
},
{
background = {
shapes = (
{
attr = {
strokeHeight = 408;
strokeWidth = 432;
};
closed = 1;
nodes = (
(1116,204,o),
(1344,432,o),
(1344,738,cs),
(1344,1044,o),
(1116,1272,o),
(810,1272,cs),
(504,1272,o),
(276,1044,o),
(276,738,cs),
(276,432,o),
(504,204,o),
(810,204,cs)
);
},
{
attr = {
strokePos = "1";
strokeWidth = 400;
};
closed = 0;
nodes = (
(810,0,l),
(1618,0,l)
);
}
);
};
layerId = "94F54C43-8AEE-4ED6-B3C2-2A9D33534E61";
shapes = (
{
closed = 1;
nodes = (
(810,266,l),
(1296,266,o),
(1560,452,o),
(1560,802,cs),
(1560,1188,o),
(1238,1476,o),
(810,1476,cs),
(382,1476,o),
(60,1160,o),
(60,738,cs),
(60,296,o),
(390,0,o),
(886,0,c)
);
},
{
closed = 1;
nodes = (
(624,408,o),
(492,544,o),
(492,738,cs),
(492,932,o),
(624,1068,o),
(810,1068,cs),
(996,1068,o),
(1128,932,o),
(1128,738,cs),
(1128,544,o),
(996,408,o),
(810,408,cs)
);
},
{
attr = {
strokePos = "1";
};
closed = 1;
nodes = (
(1618,0,l),
(1618,400,l),
(698,400,l),
(886,0,l)
);
}
);
width = 1706;
},
{
associatedMasterId = m01;
background = {
shapes = (
{
attr = {
strokeHeight = 172;
strokeWidth = 184;
};
closed = 1;
nodes = (
(1206,58,o),
(1488,344,o),
(1488,724,cs),
(1488,1104,o),
(1206,1390,o),
(828,1390,cs),
(450,1390,o),
(168,1104,o),
(168,724,cs),
(168,344,o),
(450,58,o),
(828,58,cs)
);
}
);
};
layerId = "6AC9A12E-421E-4DC6-ADA4-9C56852EBE49";
name = Avenir;
shapes = (
{
closed = 1;
nodes = (
(1696,0,l),
(1696,170,l),
(1298,170,l),
(1298,174,l),
(1478,284,o),
(1596,480,o),
(1596,738,cs),
(1596,1184,o),
(1264,1476,o),
(852,1476,cs),
(422,1476,o),
(102,1170,o),
(102,738,cs),
(102,288,o),
(416,0,o),
(850,0,cs)
);
},
{
closed = 1;
nodes = (
(524,178,o),
(318,428,o),
(318,738,cs),
(318,1046,o),
(532,1300,o),
(852,1300,cs),
(1170,1300,o),
(1380,1050,o),
(1380,738,cs),
(1380,422,o),
(1164,178,o),
(850,178,cs)
);
}
);
width = 1720;
},
{
associatedMasterId = "94F54C43-8AEE-4ED6-B3C2-2A9D33534E61";
layerId = "06C77FC5-3C40-4F49-B632-B8F3F6D6828A";
name = Avenir;
shapes = (
{
closed = 1;
nodes = (
(1726,0,l),
(1726,378,l),
(1500,364,l),
(1500,372,l),
(1574,436,o),
(1650,594,o),
(1650,752,cs),
(1650,1186,o),
(1304,1476,o),
(866,1476,cs),
(410,1476,o),
(70,1172,o),
(70,734,cs),
(70,258,o),
(386,0,o),
(840,0,cs)
);
},
{
closed = 1;
nodes = (
(702,406,o),
(582,536,o),
(582,726,cs),
(582,918,o),
(708,1034,o),
(866,1034,cs),
(1030,1034,o),
(1150,908,o),
(1150,726,cs),
(1150,538,o),
(1030,406,o),
(866,406,cs)
);
}
);
width = 1752;
},
{
associatedMasterId = "94F54C43-8AEE-4ED6-B3C2-2A9D33534E61";
background = {
shapes = (
{
attr = {
strokeHeight = 408;
strokeWidth = 432;
};
closed = 1;
nodes = (
(1116,204,o),
(1344,432,o),
(1344,738,cs),
(1344,1044,o),
(1116,1272,o),
(810,1272,cs),
(504,1272,o),
(276,1044,o),
(276,738,cs),
(276,432,o),
(504,204,o),
(810,204,cs)
);
},
{
attr = {
strokePos = "1";
strokeWidth = 400;
};
closed = 0;
nodes = (
(810,0,l),
(1618,0,l)
);
}
);
};
layerId = "4044060F-31FF-49BF-B668-88122E11A0A0";
name = "Apr 24, 23 18:04";
shapes = (
{
closed = 1;
nodes = (
(810,266,l),
(1296,266,o),
(1560,452,o),
(1560,802,cs),
(1560,1188,o),
(1238,1476,o),
(810,1476,cs),
(382,1476,o),
(60,1160,o),
(60,738,cs),
(60,316,o),
(382,0,o),
(810,0,c)
);
},
{
closed = 1;
nodes = (
(624,408,o),
(492,544,o),
(492,738,cs),
(492,932,o),
(624,1068,o),
(810,1068,cs),
(996,1068,o),
(1128,932,o),
(1128,738,cs),
(1128,544,o),
(996,408,o),
(810,408,cs)
);
},
{
attr = {
strokePos = "1";
};
closed = 1;
nodes = (
(1618,0,l),
(1618,400,l),
(770,400,l),
(810,0,l)
);
}
);
width = 1706;
},
{
associatedMasterId = m01;
background = {
shapes = (
{
attr = {
strokeHeight = 172;
strokeWidth = 184;
};
closed = 1;
nodes = (
(1200,86,o),
(1476,366,o),
(1476,738,cs),
(1476,1110,o),
(1200,1390,o),
(830,1390,cs),
(460,1390,o),
(184,1110,o),
(184,738,cs),
(184,366,o),
(460,86,o),
(830,86,cs)
);
},
{
attr = {
strokePos = "1";
strokeWidth = 168;
};
closed = 0;
nodes = (
(830,0,l),
(1646,0,l)
);
}
);
};
layerId = "7E6BA9B8-FBB3-41C2-A2FA-6549522CFA9D";
name = "Apr 24, 23 18:04";
shapes = (
{
closed = 1;
nodes = (
(830,72,l),
(1276,72,o),
(1568,336,o),
(1568,738,cs),
(1568,1160,o),
(1252,1476,o),
(830,1476,cs),
(408,1476,o),
(92,1160,o),
(92,738,cs),
(92,316,o),
(408,0,o),
(830,0,c)
);
},
{
closed = 1;
nodes = (
(504,172,o),
(276,406,o),
(276,738,cs),
(276,1070,o),
(504,1304,o),
(830,1304,cs),
(1156,1304,o),
(1384,1070,o),
(1384,738,cs),
(1384,406,o),
(1156,172,o),
(830,172,cs)
);
},
{
attr = {
strokePos = "1";
};
closed = 1;
nodes = (
(1646,0,l),
(1646,168,l),
(790,168,l),
(830,0,l)
);
}
);
width = 1752;
}
);
metricLeft = O;
metricRight = L;
},
{
glyphname = a;
kernLeft = o;
kernRight = a;
layers = (
{
.lastUpdate = 704788277.652;
layerId = m01;
shapes = (
{
pos = (920,0);
ref = _smart.bowl;
scale = (-1,1);
},
{
piece = {
Cross = 1;
};
pos = (1224,0);
ref = _smart.lowerstem;
scale = (-1,1);
}
);
width = 1224;
},
{
.lastUpdate = 704788277.652;
layerId = "94F54C43-8AEE-4ED6-B3C2-2A9D33534E61";
shapes = (
{
pos = (808,0);
ref = _smart.bowl;
scale = (-1,1);
},
{
piece = {
Cross = 1;
};
pos = (1316,0);
ref = _smart.lowerstem;
scale = (-1,1);
}
);
width = 1316;
},
{
associatedMasterId = m01;
layerId = "63B3D984-903F-4277-A0F8-9F1F4F7423C9";
name = "Wanted Logotype";
shapes = (
{
closed = 1;
nodes = (
(410,180,o),
(264,334,o),
(264,516,cs),
(264,698,o),
(410,852,o),
(588,852,cs),
(766,852,o),
(912,698,o),
(912,516,cs),
(912,334,o),
(766,180,o),
(588,180,cs)
);
},
{
closed = 1;
nodes = (
(50,214,o),
(284,-28,o),
(588,-28,cs),
(720,-28,o),
(830,28,o),
(892,116,c),
(892,-8,l),
(1110,-8,l),
(1110,1040,l),
(892,1040,l),
(892,926,l),
(830,1008,o),
(718,1060,o),
(586,1060,cs),
(282,1060,o),
(50,816,o),
(50,516,cs)
);
}
);
width = 1200;
}
);
metricLeft = o;
metricRight = l;
unicode = 97;
},
{
glyphname = b;
kernLeft = l;
kernRight = o;
layers = (
{
.lastUpdate = 704788277.652;
annotations = (
{
pos = (264,1618);
text = "X와 다르게 높이를 높여야 할지?";
type = Text;
}
);
background = {
shapes = (
{
ref = n;
}
);
};
layerId = m01;
shapes = (
{
piece = {
Cap = 100;
Cross = 1;
Descender = 0;
};
ref = _smart.lowerstem;
},
{
pos = (304,0);
ref = _smart.bowl;
}
);
width = 1224;
},
{
.lastUpdate = 704788277.652;
background = {
shapes = (
{
pos = (-16,0);
ref = n;
}
);
};
layerId = "94F54C43-8AEE-4ED6-B3C2-2A9D33534E61";
shapes = (
{
piece = {
Cap = 100;
Cross = 1;
Descender = 0;
};
ref = _smart.lowerstem;
},
{
pos = (508,0);
ref = _smart.bowl;
}
);
width = 1316;
},
{
associatedMasterId = m01;
background = {
shapes = (
{
closed = 1;
nodes = (
(440,180,o),
(292,334,o),
(292,514,cs),
(292,696,o),
(440,850,o),
(618,850,cs),
(796,850,o),
(942,696,o),
(942,514,cs),
(942,334,o),
(796,180,o),
(618,180,cs)
);
},
{
closed = 1;
nodes = (
(1154,816,o),
(922,1058,o),
(620,1058,cs),
(486,1058,o),
(376,1008,o),
(314,926,c),
(314,1500,l),
(98,1500,l),
(98,-8,l),
(314,-8,l),
(314,118,l),
(376,28,o),
(484,-28,o),
(618,-28,cs),
(920,-28,o),
(1154,214,o),
(1154,514,cs)
);
}
);
};
layerId = "645AF917-8E24-4810-84F4-B801F8634341";
name = "Wanted Logotype";
shapes = (
{
alignment = -1;
ref = l;
},
{
closed = 1;
nodes = (
(440,180,o),
(292,334,o),
(292,514,cs),
(292,696,o),
(440,850,o),
(618,850,cs),
(796,850,o),
(942,696,o),
(942,514,cs),
(942,334,o),
(796,180,o),
(618,180,cs)
);
},
{
closed = 1;
nodes = (
(1154,816,o),
(922,1058,o),
(620,1058,cs),
(486,1058,o),
(376,1008,o),
(314,926,c),
(314,1500,l),
(98,1500,l),
(98,-8,l),
(314,-8,l),
(314,118,l),
(376,28,o),
(484,-28,o),
(618,-28,cs),
(920,-28,o),
(1154,214,o),
(1154,514,cs)
);
}
);
width = 1200;
},
{
associatedMasterId = m01;
background = {
shapes = (
{
closed = 1;
nodes = (
(294,-2,l),
(294,150,l),
(360,36,o),
(478,-28,o),
(628,-28,cs),
(936,-28,o),
(1110,214,o),
(1110,520,cs),
(1110,822,o),
(948,1060,o),
(636,1060,cs),
(464,1060,o),
(344,978,o),
(294,884,c),
(294,1552,l),
(94,1552,l),
(94,-2,l)
);
},
{
closed = 1;
nodes = (
(904,298,o),
(784,152,o),
(600,152,cs),
(420,152,o),
(292,298,o),
(292,520,cs),
(292,742,o),
(420,882,o),
(600,882,cs),
(786,882,o),
(904,742,o),
(904,520,cs)
);
}
);
};
layerId = "3D8ACF31-62B6-42F3-8F22-1892CD4D8573";
name = Circular;
shapes = (
{
closed = 1;
nodes = (
(294,-2,l),
(294,150,l),
(360,36,o),
(478,-28,o),
(628,-28,cs),
(936,-28,o),
(1110,214,o),
(1110,520,cs),
(1110,822,o),
(948,1060,o),
(636,1060,cs),
(464,1060,o),
(344,978,o),
(294,884,c),
(294,1552,l),
(94,1552,l),
(94,-2,l)
);
},
{
closed = 1;
nodes = (
(904,298,o),
(784,152,o),
(600,152,cs),
(420,152,o),
(292,298,o),
(292,520,cs),
(292,742,o),
(420,882,o),
(600,882,cs),
(786,882,o),
(904,742,o),
(904,520,cs)
);
}
);
width = 1200;
},
{
associatedMasterId = m01;
background = {
shapes = (
{
closed = 1;
nodes = (
(958,-28,o),
(1182,226,o),
(1182,522,cs),
(1182,814,o),
(954,1060,o),
(686,1060,cs),
(518,1060,o),
(386,986,o),
(296,828,c),
(292,828,l),
(292,1624,l),
(74,1624,l),
(74,0,l),
(292,0,l),
(292,218,l),
(296,218,l),
(364,78,o),
(520,-28,o),
(700,-28,cs)
);
},
{
closed = 1;
nodes = (
(416,178,o),
(262,326,o),
(262,522,cs),
(262,710,o),
(424,864,o),
(602,864,cs),
(802,864,o),
(950,708,o),
(950,522,cs),
(950,330,o),
(796,178,o),
(614,178,cs)
);
}
);
};
layerId = "D2938353-A5E0-40F8-A056-446F94886932";
name = "o 92.5%";
shapes = (
{
closed = 1;
nodes = (
(966,-28,o),
(1182,204,o),
(1182,514,cs),
(1182,824,o),
(966,1058,o),
(680,1058,cs),
(392,1058,o),
(176,824,o),
(176,514,cs),
(176,204,o),
(392,-28,o),
(680,-28,cs)
);
},
{
closed = 1;
nodes = (
(488,134,o),
(352,290,o),
(352,514,cs),
(352,738,o),
(488,894,o),
(680,894,cs),
(870,894,o),
(1006,738,o),
(1006,514,cs),
(1006,290,o),
(870,134,o),
(680,134,cs)
);
}
);
width = 1266;
},
{
associatedMasterId = m01;
background = {
shapes = (
{
closed = 1;
nodes = (
(962,-28,o),
(1194,204,o),
(1194,514,cs),
(1194,824,o),
(962,1058,o),
(652,1058,cs),
(340,1058,o),
(108,824,o),
(108,514,cs),
(108,204,o),
(340,-28,o),
(652,-28,cs)
);
},
{
closed = 1;
nodes = (
(436,134,o),
(284,290,o),
(284,514,cs),
(284,738,o),
(436,894,o),
(652,894,cs),
(866,894,o),
(1018,738,o),
(1018,514,cs),
(1018,290,o),
(866,134,o),
(652,134,cs)
);
}
);
};
layerId = "860789D8-7E4C-4432-BA2F-8EDE434BCFAB";
name = "o 100%";
shapes = (
{
closed = 1;
nodes = (
(292,0,l),
(292,242,l),
(254,514,l),
(300,824,l),
(300,1446,l),
(120,1446,l),
(120,0,l)
);
},
{
closed = 1;
nodes = (
(984,-28,o),
(1194,204,o),
(1194,514,cs),
(1194,824,o),
(988,1058,o),
(688,1058,cs),
(396,1058,o),
(200,836,o),
(200,514,cs),
(200,216,o),
(392,-28,o),
(688,-28,cs)
);
},
{
closed = 1;
nodes = (
(438,134,o),
(292,290,o),
(292,514,cs),
(292,738,o),
(438,894,o),
(652,894,cs),
(866,894,o),
(1018,738,o),
(1018,514,cs),
(1018,290,o),
(866,134,o),
(652,134,cs)
);
}
);
width = 1266;
},
{
associatedMasterId = "94F54C43-8AEE-4ED6-B3C2-2A9D33534E61";
layerId = "97D2EE62-1D91-4F19-9122-626830D71A1D";
name = "o 100%";
shapes = (
{
closed = 1;
nodes = (
(894,-28,o),
(1126,204,o),
(1126,514,cs),
(1126,824,o),
(894,1058,o),
(584,1058,cs),
(272,1058,o),
(40,824,o),
(40,514,cs),
(40,204,o),
(272,-28,o),
(584,-28,cs)
);
},
{
closed = 1;
nodes = (
(486,330,o),
(416,406,o),
(416,514,cs),
(416,622,o),
(486,698,o),
(584,698,cs),
(680,698,o),
(750,622,o),
(750,514,cs),
(750,406,o),
(680,330,o),
(584,330,cs)
);
}
);
width = 1200;
},
{
associatedMasterId = "94F54C43-8AEE-4ED6-B3C2-2A9D33534E61";
background = {
shapes = (
{
pos = (-16,0);
ref = n;
}
);
};
layerId = "E9B56C7E-1D8F-4AA6-9A95-E2970BB1E652";
name = "Apr 5, 23 11:26";
shapes = (
{
closed = 1;
nodes = (
(480,0,l),
(480,242,l),
(434,516,l),
(480,824,l),
(480,1446,l),
(96,1446,l),
(96,0,l)
);
},
{
closed = 1;
nodes = (
(1004,-28,o),
(1184,196,o),
(1184,516,cs),
(1184,836,o),
(1006,1060,o),
(744,1060,cs),
(518,1060,o),
(414,898,o),
(414,516,cs),
(414,142,o),
(516,-28,o),
(744,-28,cs)
);
},
{
closed = 1;
nodes = (
(542,332,o),
(472,408,o),
(472,516,cs),
(472,624,o),
(542,700,o),
(640,700,cs),
(738,700,o),
(808,624,o),
(808,516,cs),
(808,408,o),
(738,332,o),
(640,332,cs)
);
}
);
width = 1224;
}
);
metricLeft = n;
metricRight = o;
unicode = 98;
},
{
glyphname = c;
kernLeft = o;
kernRight = c;
layers = (
{
background = {
shapes = (
{
ref = o;
},
{
closed = 0;
nodes = (
(614,516,l),
(1112,936,l)
);
}
);
};
layerId = m01;
shapes = (
{
closed = 1;
nodes = (
(856,-28,o),
(1048,120,o),
(1118,336,c),
(1068,106,l),
(786,334,l),
(948,380,l),
(902,232,o),
(778,136,o),
(614,136,cs),
(406,136,o),
(260,292,o),
(260,516,cs),
(260,740,o),
(406,896,o),
(614,896,cs),
(778,896,o),
(902,800,o),
(948,652,c),
(786,698,l),
(1068,926,l),
(1118,696,l),
(1048,912,o),
(856,1060,o),
(614,1060,cs),
(312,1060,o),
(84,826,o),
(84,516,cs),
(84,206,o),
(312,-28,o),
(614,-28,cs)
);
}
);
width = 1098;
},
{
associatedMasterId = m01;
background = {
shapes = (
{
closed = 0;
nodes = (
(602,516,l),
(602,-148,l)
);
},
{
closed = 0;
nodes = (
(1070,48,l),
(602,516,l),
(1070,984,l)
);
},
{
closed = 1;
nodes = (
(926,980,o),
(720,1060,o),
(606,1060,qs),
(486,1060,o),
(290,978,o),
(146,832,o),
(68,634,o),
(68,516,qs),
(68,396,o),
(146,198,o),
(286,52,o),
(486,-28,o),
(606,-28,qs),
(718,-28,o),
(922,52,o),
(998,138,q),
(868,260,l),
(774,132,o),
(606,132,qs),
(526,132,o),
(398,190,o),
(306,298,o),
(254,438,o),
(254,516,qs),
(254,594,o),
(300,734,o),
(386,842,o),
(518,900,o),
(606,900,qs),
(684,900,o),
(812,842,o),
(866,774,q),
(1004,896,l)
);
}
);
};
layerId = "CE918CFC-8F0B-4DF1-B702-E01F641B3CAA";
name = "o right 90%";
shapes = (
{
attr = {
lineCapStart = 3;
strokeHeight = 164;
strokeWidth = 176;
};
closed = 0;
nodes = (
(906,820,l),
(834,918,o),
(726,978,o),
(592,978,cs),
(350,978,o),
(160,780,o),
(160,516,c)
);
}
);
width = 1204;
},
{
layerId = "94F54C43-8AEE-4ED6-B3C2-2A9D33534E61";
name = Black;
shapes = (
{
closed = 1;
nodes = (
(940,-28,o),
(1184,206,o),
(1184,516,c),
(1246,320,l),
(738,454,l),
(808,516,l),
(808,408,o),
(728,332,o),
(618,332,cs),
(508,332,o),
(428,408,o),
(428,516,cs),
(428,624,o),
(508,700,o),
(618,700,cs),
(728,700,o),
(808,624,o),
(808,516,c),
(738,578,l),
(1246,712,l),
(1184,516,l),
(1184,826,o),
(940,1060,o),
(618,1060,cs),
(296,1060,o),
(52,826,o),
(52,516,cs),
(52,206,o),
(300,-28,o),
(618,-28,cs)
);
}
);
width = 1210;
},
{
associatedMasterId = "94F54C43-8AEE-4ED6-B3C2-2A9D33534E61";
background = {
shapes = (
{
attr = {
strokeHeight = 360;
strokeWidth = 376;
};
closed = 1;
nodes = (
(808,152,o),
(968,308,o),
(968,516,cs),
(968,724,o),
(808,880,o),
(598,880,cs),
(388,880,o),
(228,724,o),
(228,516,cs),
(228,308,o),
(388,152,o),
(598,152,cs)
);
},
{
closed = 0;
nodes = (
(598,516,l),
(598,-148,l)
);
},
{
closed = 0;
nodes = (
(1066,48,l),
(598,516,l),
(1066,984,l)
);
},
{
closed = 1;
nodes = (
(446,634,o),
(510,696,o),
(642,696,cs),
(668,696,o),
(710,684,o),
(732,646,c),
(998,934,l),
(896,1028,o),
(746,1056,o),
(642,1056,cs),
(326,1056,o),
(40,856,o),
(40,512,cs),
(40,168,o),
(326,-32,o),
(642,-32,cs),
(746,-32,o),
(896,-4,o),
(998,90,c),
(732,378,l),
(710,346,o),
(668,328,o),
(642,328,cs),
(510,328,o),
(446,390,o),
(446,512,cs)
);
}
);
};
layerId = "6A091AD4-59F1-4097-A409-E62F34DC331D";
name = "o 100%";
shapes = (
{
attr = {
lineCapStart = 3;
strokeHeight = 360;
strokeWidth = 376;
};
closed = 0;
nodes = (
(860,776,l),
(792,842,o),
(702,880,o),
(598,880,cs),
(388,880,o),
(228,724,o),
(228,516,c)
);
}
);
width = 1196;
},
{
associatedMasterId = "94F54C43-8AEE-4ED6-B3C2-2A9D33534E61";
background = {
shapes = (
{
closed = 1;
nodes = (
(790,-28,o),
(934,24,o),
(1018,92,c),
(796,402,l),
(764,370,o),
(712,348,o),
(660,348,cs),
(572,348,o),
(488,406,o),
(488,516,cs),
(488,624,o),
(570,686,o),
(660,686,cs),
(708,686,o),
(762,666,o),
(794,632,c),
(1014,950,l),
(948,1002,o),
(790,1060,o),
(646,1060,cs),
(306,1060,o),
(52,844,o),
(52,516,cs),
(52,186,o),
(300,-28,o),
(642,-28,cs)
);
}
);
};
layerId = "DAF94362-8500-45F6-98C4-219A28FF8ABE";
metricRight = "=o/1.51";
name = "Avenir Base";
shapes = (
{
closed = 1;
nodes = (
(776,-28,o),
(912,18,o),
(1020,96,c),
(796,400,l),
(750,356,o),
(690,332,o),
(626,332,cs),
(510,332,o),
(428,408,o),
(428,516,cs),
(428,624,o),
(510,700,o),
(626,700,cs),
(690,700,o),
(750,676,o),
(796,632,c),
(1020,936,l),
(912,1014,o),
(776,1060,o),
(626,1060,cs),
(290,1060,o),
(52,826,o),
(52,516,cs),
(52,206,o),
(290,-28,o),
(626,-28,cs)
);
}
);
width = 1052;
},
{
associatedMasterId = "94F54C43-8AEE-4ED6-B3C2-2A9D33534E61";
background = {
shapes = (
{
closed = 1;
nodes = (
(1026,888,l),
(928,992,o),
(786,1060,o),
(594,1060,cs),
(296,1060,o),
(46,814,o),
(46,514,cs),
(46,216,o),
(292,-28,o),
(606,-28,cs),
(778,-28,o),
(936,46,o),
(1014,142,c),
(822,428,l),
(762,368,o),
(704,336,o),
(614,336,cs),
(504,336,o),
(434,412,o),
(434,514,cs),
(434,616,o),
(502,694,o),
(614,694,cs),
(696,694,o),
(750,668,o),
(808,614,c)
);
}
);
};
layerId = "42627398-32E5-4D43-839C-2E1D2A58DAFC";
metricRight = "=o/1.51";
name = "Apr 6, 23 17:55";
shapes = (
{
closed = 1;
nodes = (
(772,-28,o),
(900,32,o),
(1020,144,c),
(796,400,l),
(750,356,o),
(690,332,o),
(626,332,cs),
(510,332,o),
(428,408,o),
(428,516,cs),
(428,624,o),
(510,700,o),
(626,700,cs),
(690,700,o),
(750,676,o),
(796,632,c),
(1020,888,l),
(900,1000,o),
(772,1060,o),
(610,1060,cs),
(292,1060,o),
(52,826,o),
(52,516,cs),
(52,206,o),
(292,-28,o),
(610,-28,cs)
);
}
);
width = 1054;
},
{
associatedMasterId = "94F54C43-8AEE-4ED6-B3C2-2A9D33534E61";
background = {
shapes = (
{
closed = 1;
nodes = (
(928,-28,o),
(1168,206,o),
(1168,516,cs),
(1168,826,o),
(928,1060,o),
(610,1060,cs),
(292,1060,o),
(52,826,o),
(52,516,cs),
(52,206,o),
(292,-28,o),
(610,-28,cs)
);
},
{
closed = 1;
nodes = (
(504,332,o),
(428,408,o),
(428,516,cs),
(428,624,o),
(504,700,o),
(610,700,cs),
(716,700,o),
(792,624,o),
(792,516,cs),
(792,408,o),
(716,332,o),
(610,332,cs)
);
},
{
closed = 0;
nodes = (
(792,634,l),
(1058,868,l)
);
}
);
};
layerId = "52158C13-D9A0-4CFB-8C04-C60172290A57";
metricRight = "=o/1.51";
name = "Apr 6, 23 21:47";
shapes = (
{
closed = 1;
nodes = (
(52,206,o),
(292,-28,o),
(610,-28,cs),
(766,-28,o),
(928,28,o),
(1042,160,c),
(782,396,l),
(738,358,o),
(692,332,o),
(628,332,cs),
(508,332,o),
(428,410,o),
(428,516,cs),
(428,622,o),
(508,700,o),
(628,700,cs),
(692,700,o),
(738,674,o),
(782,636,c),
(1042,872,l),
(928,1004,o),
(766,1060,o),
(610,1060,cs),
(292,1060,o),
(52,826,o),
(52,516,cs)
);
}
);
width = 1076;
},
{
associatedMasterId = "94F54C43-8AEE-4ED6-B3C2-2A9D33534E61";
background = {
shapes = (
{
closed = 1;
nodes = (
(916,-28,o),
(1156,206,o),
(1156,516,cs),
(1156,826,o),
(916,1060,o),
(598,1060,cs),
(280,1060,o),
(40,826,o),
(40,516,cs),
(40,206,o),
(280,-28,o),
(598,-28,cs)
);
},
{
closed = 1;
nodes = (
(492,332,o),
(416,408,o),
(416,516,cs),
(416,624,o),
(492,700,o),
(598,700,cs),
(704,700,o),
(780,624,o),
(780,516,cs),
(780,408,o),
(704,332,o),
(598,332,cs)
);
},
{
closed = 0;
nodes = (
(774,586,l),
(1108,752,l)
);
}
);
};
layerId = "25957675-100A-4EE7-AA8B-2384F5542E56";
metricRight = "=o/1.51";
name = "Apr 15, 23 0:27";
shapes = (
{
closed = 1;
nodes = (
(762,-28,o),
(1000,36,o),
(1124,278,c),
(794,442,l),
(746,366,o),
(678,332,o),
(608,332,cs),
(504,332,o),
(428,408,o),
(428,516,cs),
(428,624,o),
(504,700,o),
(608,700,cs),
(678,700,o),
(746,666,o),
(794,590,c),
(1124,754,l),
(1000,996,o),
(762,1060,o),
(600,1060,cs),
(292,1060,o),
(52,826,o),
(52,516,cs),
(52,206,o),
(292,-28,o),
(600,-28,cs)
);
}
);
width = 1158;
},
{
associatedMasterId = "94F54C43-8AEE-4ED6-B3C2-2A9D33534E61";
background = {
shapes = (
{
ref = o;
},
{
closed = 0;
nodes = (
(1166,664,l),
(742,584,l)
);
}
);
};
layerId = "2CD8F4A4-D45C-44C8-8659-727E8C329239";
metricRight = "=o/1.51";
name = "Apr 15, 23 0:47";
shapes = (
{
closed = 1;
nodes = (
(860,-28,o),
(1082,138,o),
(1140,374,c),
(772,442,l),
(748,374,o),
(686,332,o),
(608,332,cs),
(504,332,o),
(428,408,o),
(428,516,cs),
(428,624,o),
(504,700,o),
(608,700,cs),
(686,700,o),
(748,658,o),
(772,590,c),
(1140,658,l),
(1082,894,o),
(860,1060,o),
(600,1060,cs),
(292,1060,o),
(52,826,o),
(52,516,cs),
(52,206,o),
(292,-28,o),
(600,-28,cs)
);
}
);
width = 1174;
},
{
associatedMasterId = m01;
background = {
shapes = (
{
closed = 1;
nodes = (
(904,-28,o),
(1132,206,o),
(1132,516,cs),
(1132,826,o),
(904,1060,o),
(602,1060,cs),
(300,1060,o),
(72,826,o),
(72,516,cs),
(72,206,o),
(300,-28,o),
(602,-28,cs)
);
},
{
closed = 1;
nodes = (
(394,136,o),
(248,292,o),
(248,516,cs),
(248,740,o),
(394,896,o),
(602,896,cs),
(810,896,o),
(956,740,o),
(956,516,cs),
(956,292,o),
(810,136,o),
(602,136,cs)
);
}
);
};
layerId = "C878D161-7926-489A-B814-40FF2137F565";
metricRight = "=o/1.5";
name = "Apr 15, 23 2:21";
shapes = (
{
closed = 1;
nodes = (
(766,-28,o),
(902,40,o),
(1000,140,c),
(882,258,l),
(816,184,o),
(718,136,o),
(606,136,cs),
(404,136,o),
(260,296,o),
(260,516,cs),
(260,736,o),
(404,896,o),
(606,896,cs),
(718,896,o),
(816,848,o),
(882,774,c),
(1000,892,l),
(902,992,o),
(766,1060,o),
(606,1060,cs),
(312,1060,o),
(84,822,o),
(84,516,cs),
(84,210,o),
(312,-28,o),
(606,-28,cs)
);
}
);
width = 1056;
},
{
associatedMasterId = "94F54C43-8AEE-4ED6-B3C2-2A9D33534E61";
layerId = "17CAF677-0F0C-4CD6-A530-2CAB3F12A0A0";
metricRight = "=o/1.51";
name = "Apr 15, 23 2:34";
shapes = (
{
closed = 1;
nodes = (
(928,-28,o),
(1168,206,o),
(1168,516,c),
(1186,320,l),
(658,470,l),
(792,516,l),
(792,408,o),
(716,332,o),
(610,332,cs),
(504,332,o),
(428,408,o),
(428,516,cs),
(428,624,o),
(504,700,o),
(610,700,cs),
(716,700,o),
(792,624,o),
(792,516,c),
(658,562,l),
(1186,712,l),
(1168,516,l),
(1168,826,o),
(928,1060,o),
(610,1060,cs),
(292,1060,o),
(52,826,o),
(52,516,cs),
(52,206,o),
(292,-28,o),
(610,-28,cs)
);
}
);
width = 1172;
}
);
metricLeft = o;
metricRight = o;
unicode = 99;
},
{
glyphname = d;
kernLeft = o;
kernRight = l;
layers = (
{
.lastUpdate = 704788277.652;
layerId = m01;
shapes = (
{
pos = (1224,0);
ref = b;
scale = (-1,1);
}
);
width = 1224;
},
{
.lastUpdate = 704788277.652;
layerId = "94F54C43-8AEE-4ED6-B3C2-2A9D33534E61";
shapes = (
{
pos = (1316,0);
ref = b;
scale = (-1,1);
}
);
width = 1316;
},
{
associatedMasterId = m01;
layerId = "1C28472C-95C6-435C-B27F-0D6BFA207C36";
name = "Wanted Logotype";
shapes = (
{
closed = 1;
nodes = (
(410,180,o),
(262,334,o),
(262,516,cs),
(262,698,o),
(410,852,o),
(588,852,cs),
(766,852,o),
(912,698,o),
(912,516,cs),
(912,334,o),
(766,180,o),
(588,180,cs)
);
},
{
closed = 1;
nodes = (
(48,214,o),
(284,-28,o),
(588,-28,cs),
(720,-28,o),
(830,28,o),
(892,116,c),
(892,-8,l),
(1110,-8,l),
(1110,1502,l),
(892,1502,l),
(892,926,l),
(830,1008,o),
(718,1060,o),
(586,1060,cs),
(282,1060,o),
(48,816,o),
(48,516,cs)
);
}
);
width = 1200;
}
);
unicode = 100;
},
{
glyphname = e;
kernLeft = o;
kernRight = o;
layers = (
{
layerId = m01;
shapes = (
{
closed = 1;
nodes = (
(944,-28,o),
(1168,196,o),
(1168,516,c),
(1274,0,l),
(834,356,l),
(992,516,l),
(992,282,o),
(850,136,o),
(626,136,cs),
(402,136,o),
(260,282,o),
(260,516,cs),
(260,516,ls),
(260,740,o),
(402,896,o),
(602,896,cs),
(778,896,o),
(916,774,o),
(916,600,c),
(936,606,l),
(220,606,l),
(220,442,l),
(1222,442,l),
(1082,348,l),
(1096,400,o),
(1104,458,o),
(1104,516,cs),
(1104,836,o),
(892,1060,o),
(602,1060,cs),
(306,1060,o),
(84,826,o),
(84,516,cs),
(84,196,o),
(308,-28,o),
(626,-28,cs)
);
}
);
width = 1188;
},
{
associatedMasterId = m01;
layerId = "5DBD28EE-ED44-4AAC-9D89-2157A2DE49C3";
name = "Wanted Logotype";
shapes = (
{
closed = 1;
nodes = (
(284,740,o),
(420,870,o),
(586,870,cs),
(746,870,o),
(876,740,o),
(884,604,c),
(276,604,l)
);
},
{
closed = 1;
nodes = (
(68,196,o),
(286,-28,o),
(604,-28,cs),
(816,-28,o),
(1000,92,o),
(1076,260,c),
(902,320,l),
(854,230,o),
(734,160,o),
(606,160,cs),
(422,160,o),
(284,280,o),
(276,432,c),
(1088,432,l),
(1130,784,o),
(918,1060,o),
(604,1060,cs),
(286,1060,o),
(68,838,o),
(68,516,cs)
);
}
);
width = 1160;
},
{
associatedMasterId = m01;
layerId = "0579306E-02BE-42C5-A349-736B36CBFDB2";
name = "o 95%";
shapes = (
{
attr = {
strokeHeight = 164;
strokeWidth = 176;
};
closed = 1;
nodes = (
(1000,252,o),
(820,54,o),
(580,54,cs),
(340,54,o),
(160,252,o),
(160,516,cs),
(160,780,o),
(340,978,o),
(580,978,cs),
(820,978,o),
(1000,780,o),
(1000,516,cs)
);
}
);
width = 1160;
},
{
associatedMasterId = m01;
background = {
shapes = (
{
closed = 1;
nodes = (
(284,740,o),
(420,870,o),
(586,870,cs),
(746,870,o),
(876,740,o),
(884,604,c),
(276,604,l)
);
},
{
closed = 1;
nodes = (
(68,196,o),
(286,-28,o),
(604,-28,cs),
(816,-28,o),
(1000,92,o),
(1076,260,c),
(902,320,l),
(854,230,o),
(734,160,o),
(606,160,cs),
(422,160,o),
(284,280,o),
(276,432,c),
(1088,432,l),
(1130,784,o),
(918,1060,o),
(604,1060,cs),
(286,1060,o),
(68,838,o),
(68,516,cs)
);
}
);
};
layerId = "F882E7E4-78A6-4C58-97B0-4E34E196ADD7";
name = "Wanted Logotype Base";
shapes = (
{
attr = {
strokeHeight = 164;
strokeWidth = 176;
};
closed = 0;
nodes = (
(992,296,l),
(910,130,o),
(772,54,o),
(580,54,cs),
(340,54,o),
(160,252,o),
(160,516,cs),
(160,780,o),
(340,978,o),
(580,978,cs),
(820,978,o),
(1000,780,o),
(1000,516,c),
(208,516,l)
);
}
);
width = 1204;
},
{
annotations = (
{
pos = (630,698);
text = "중앙에서 95%";
type = Text;
}
);
associatedMasterId = m01;
background = {
shapes = (
{
closed = 1;
nodes = (
(868,212,o),
(714,132,o),
(602,132,qs),
(530,132,o),
(412,186,o),
(324,276,o),
(268,398,o),
(264,464,q),
(1100,464,l),
(1100,520,ls),
(1100,646,o),
(1028,848,o),
(898,988,o),
(716,1060,o),
(608,1060,qs),
(494,1060,o),
(300,980,o),
(158,836,o),
(78,636,o),
(78,518,qs),
(78,404,o),
(152,204,o),
(286,58,o),
(480,-28,o),
(602,-28,qs),
(748,-28,o),
(968,68,o),
(1062,188,q),
(930,290,l)
);
},
{
closed = 1;
nodes = (
(282,742,o),
(458,900,o),
(602,900,qs),
(746,900,o),
(908,742,o),
(914,608,q),
(264,608,l)
);
}
);
};
layerId = "C8261005-43AC-497C-A9DD-E0780F10383A";
name = Avenir;
shapes = (
{
attr = {
strokeHeight = 164;
strokeWidth = 176;
};
closed = 0;
nodes = (
(996,244,l),
(920,130,o),
(804,54,o),
(592,54,cs),
(352,54,o),
(172,252,o),
(172,516,cs),
(172,780,o),
(356,978,o),
(596,978,cs),
(836,978,o),
(1012,798,o),
(1012,540,c),
(224,540,l)
);
}
);
width = 1186;
},
{
associatedMasterId = m01;
background = {
shapes = (
{
ref = o;
}
);
};
layerId = "8985971C-7D69-49A0-A7E0-C5909079CC18";
name = "Apr 6, 23 15:45";
shapes = (
{
closed = 1;
nodes = (
(208,598,l),
(208,434,l),
(1083,434,l),
(1122,782,o),
(896,1060,o),
(580,1060,cs),
(289,1060,o),
(72,824,o),
(72,516,cs),
(72,208,o),
(289,-28,o),
(600,-28,cs),
(796,-28,o),
(975,66,o),
(1071,260,c),
(906,318,l),
(842,194,o),
(730,136,o),
(600,136,cs),
(386,136,o),
(248,294,o),
(248,516,cs),
(248,738,o),
(386,896,o),
(580,896,cs),
(749,896,o),
(876,776,o),
(906,598,c)
);
}
);
width = 1160;
},
{
associatedMasterId = m01;
background = {
shapes = (
{
pos = (12,0);
ref = o;
}
);
};
layerId = "88105434-E65B-4C36-8C96-96216A6FE50B";
name = "Apr 6, 23 23:28";
shapes = (
{
closed = 1;
nodes = (
(824,-28,o),
(966,52,o),
(1050,172,c),
(936,286,l),
(858,194,o),
(770,136,o),
(630,136,cs),
(398,136,o),
(260,294,o),
(260,516,cs),
(260,516,ls),
(260,738,o),
(398,896,o),
(602,896,cs),
(776,896,o),
(916,782,o),
(916,600,c),
(936,622,l),
(220,622,l),
(220,458,l),
(1096,458,l),
(1132,842,o),
(892,1060,o),
(602,1060,cs),
(302,1060,o),
(84,824,o),
(84,516,cs),
(84,208,o),
(302,-28,o),
(630,-28,cs)
);
}
);
width = 1184;
},
{
annotations = (
{
pos = (472.544,1320.503);
text = "e가 살짝 작게 느껴진다";
type = Text;
},
{
pos = (778,254);
text = "위와 아래의 편차가 심해보인다";
type = Text;
}
);
associatedMasterId = m01;
background = {
shapes = (
{
ref = o;
}
);
};
layerId = "99F035AD-0C21-4026-8942-8745634AD96A";
name = "Apr 15, 23 1:26";
shapes = (
{
closed = 1;
nodes = (
(824,-28,o),
(968,50,o),
(1058,178,c),
(930,282,l),
(858,194,o),
(770,136,o),
(630,136,cs),
(398,136,o),
(260,294,o),
(260,516,cs),
(260,516,ls),
(260,738,o),
(398,896,o),
(602,896,cs),
(776,896,o),
(916,782,o),
(916,600,c),
(936,622,l),
(220,622,l),
(220,458,l),
(1096,458,l),
(1132,842,o),
(892,1060,o),
(602,1060,cs),
(302,1060,o),
(84,824,o),
(84,516,cs),
(84,208,o),
(302,-28,o),
(630,-28,cs)
);
}
);
width = 1184;
},
{
background = {
shapes = (
{
closed = 0;
nodes = (
(1110,202,l),
(776,368,l)
);
}
);
};
layerId = "94F54C43-8AEE-4ED6-B3C2-2A9D33534E61";
shapes = (
{
closed = 1;
nodes = (
(972,-28,o),
(1200,190,o),
(1200,516,c),
(1204,194,l),
(694,356,l),
(804,452,l),
(804,352,o),
(726,276,o),
(626,276,cs),
(526,276,o),
(448,352,o),
(448,452,cs),
(448,570,ls),
(448,670,o),
(512,740,o),
(610,740,cs),
(702,740,o),
(772,678,o),
(772,592,c),
(790,624,l),
(250,624,l),
(250,408,l),
(1224,408,l),
(1148,354,l),
(1161,404,o),
(1168,459,o),
(1168,516,cs),
(1168,842,o),
(944,1060,o),
(624,1060,cs),
(292,1060,o),
(52,826,o),
(52,516,cs),
(52,190,o),
(280,-28,o),
(626,-28,cs)
);
}
);
width = 1220;
},
{
.lastUpdate = 704278045.59;
annotations = (
{
pos = (911.465,361.601);
text = "black에서는 아예 닫아둘까?";
type = Text;
}
);
associatedMasterId = "94F54C43-8AEE-4ED6-B3C2-2A9D33534E61";
attr = {
coordinates = (
700
);
};
background = {
shapes = (
{
closed = 0;
nodes = (
(1110,202,l),
(776,368,l)
);
}
);
};
layerId = "FE407B4A-5A0A-47DC-90FB-AC9B639F0E3A";
metricLeft = "=64";
metricRight = "=64";
name = "Apr 15, 23 2:15";
shapes = (
{
closed = 1;
nodes = (
(960,-28,o),
(1188,192,o),
(1188,516,c),
(1232,118,l),
(750,358,l),
(880,478,l),
(880,324,o),
(776,220,o),
(626,220,cs),
(476,220,o),
(372,324,o),
(372,478,cs),
(372,548,ls),
(372,698,o),
(468,802,o),
(606,802,cs),
(732,802,o),
(830,716,o),
(830,596,c),
(848,636,l),
(238,636,l),
(238,396,l),
(1224,396,l),
(1122,352,l),
(1136,402,o),
(1142,458,o),
(1142,516,cs),
(1142,840,o),
(924,1060,o),
(616,1060,cs),
(298,1060,o),
(64,826,o),
(64,516,cs),
(64,192,o),
(292,-28,o),
(626,-28,cs)
);
}
);
width = 1206;
},
{
annotations = (
{
pos = (911.465,361.601);
text = "black에서는 아예 닫아둘까?";
type = Text;
}
);
associatedMasterId = "94F54C43-8AEE-4ED6-B3C2-2A9D33534E61";
background = {
shapes = (
{
closed = 0;
nodes = (
(1110,202,l),
(776,368,l)
);
}
);
};
layerId = "7E71A46F-D020-4B0F-BC34-1D001D426373";
name = "Before Make 700";
shapes = (
{
closed = 1;
nodes = (
(972,-28,o),
(1200,190,o),
(1200,516,c),
(1204,194,l),
(694,356,l),
(804,452,l),
(804,352,o),
(726,276,o),
(626,276,cs),
(526,276,o),
(448,352,o),
(448,452,cs),
(448,570,ls),
(448,670,o),
(512,740,o),
(610,740,cs),
(702,740,o),
(772,678,o),
(772,592,c),
(790,652,l),
(250,652,l),
(250,380,l),
(1224,380,l),
(1148,354,l),
(1161,404,o),
(1168,459,o),
(1168,516,cs),
(1168,842,o),
(944,1060,o),
(624,1060,cs),
(292,1060,o),
(52,826,o),
(52,516,cs),
(52,190,o),
(280,-28,o),
(626,-28,cs)
);
}
);
width = 1220;
},
{
associatedMasterId = "94F54C43-8AEE-4ED6-B3C2-2A9D33534E61";
background = {
shapes = (
{
ref = o;
}
);
};
layerId = "D96351F6-818B-4BD3-B628-CCD0C3072E73";
name = "o 100%";
shapes = (
{
attr = {
strokeHeight = 360;
strokeWidth = 376;
};
closed = 1;
nodes = (
(808,152,o),
(968,308,o),
(968,516,cs),
(968,724,o),
(808,880,o),
(598,880,cs),
(388,880,o),
(228,724,o),
(228,516,cs),
(228,308,o),
(388,152,o),
(598,152,cs)
);
}
);
width = 1196;
},
{
associatedMasterId = "94F54C43-8AEE-4ED6-B3C2-2A9D33534E61";
background = {
shapes = (
{
pos = (-36,0);
ref = o;
}
);
};
layerId = "C43EEB88-067E-4B2C-B8F2-FF44AE947FAC";
name = "Apr 6, 23 16:32";
shapes = (
{
attr = {
strokeHeight = 360;
strokeWidth = 376;
};
closed = 0;
nodes = (
(228,532,l),
(932,532,l),
(932,740,o),
(772,880,o),
(562,880,cs),
(352,880,o),
(192,724,o),
(192,516,cs),
(192,308,o),
(352,152,o),
(562,152,cs),
(742,152,o),
(886,268,o),
(924,432,c)
);
}
);
width = 1124;
},
{
associatedMasterId = "94F54C43-8AEE-4ED6-B3C2-2A9D33534E61";
background = {
shapes = (
{
pos = (-36,0);
ref = o;
}
);
};
layerId = "A7349D16-2B1A-4600-B9AE-DDCF2703BE54";
name = "Apr 6, 23 16:41";
shapes = (
{
closed = 0;
nodes = (
(1100,516,l),
(1100,826,o),
(872,1060,o),
(570,1060,cs),
(268,1060,o),
(40,826,o),
(40,516,cs),
(40,206,o),
(268,-28,o),
(570,-28,cs),
(850,-28,o),
(1067,174,o),
(1097,451,c),
(718,460,l),
(700,383,o),
(644,332,o),
(570,332,cs),
(480,332,o),
(416,408,o),
(416,516,cs),
(416,624,o),
(480,700,o),
(570,700,cs),
(660,700,o),
(724,624,o),
(724,516,c)
);
},
{
closed = 0;
nodes = (
(932,652,l),
(228,652,l),
(228,412,l),
(932,412,l)
);
}
);
width = 1196;
},
{
annotations = (
{
pos = (911.465,361.601);
text = "black에서는 아예 닫아둘까?";
type = Text;
}
);
associatedMasterId = "94F54C43-8AEE-4ED6-B3C2-2A9D33534E61";
background = {
shapes = (
{
closed = 0;
nodes = (
(992,242,l),
(726,360,l)
);
},
{
ref = o;
}
);
};
layerId = "B2738CF7-5CDE-4EED-B213-AED5E07F4542";
name = "Apr 15, 23 0:51";
shapes = (
{
closed = 1;
nodes = (
(826,-28,o),
(1030,54,o),
(1110,202,c),
(776,368,l),
(738,326,o),
(680,306,o),
(626,306,cs),
(536,306,o),
(448,362,o),
(448,438,cs),
(448,570,ls),
(448,670,o),
(512,740,o),
(610,740,cs),
(702,740,o),
(772,678,o),
(772,592,c),
(790,608,l),
(250,608,l),
(250,416,l),
(1164,416,l),
(1204,886,o),
(928,1060,o),
(610,1060,cs),
(292,1060,o),
(52,826,o),
(52,516,cs),
(52,206,o),
(292,-28,o),
(626,-28,cs)
);
}
);
width = 1220;
},
{
associatedMasterId = "94F54C43-8AEE-4ED6-B3C2-2A9D33534E61";
background = {
shapes = (
{
closed = 1;
nodes = (
(938,-28,o),
(1180,166,o),
(1180,424,c),
(1212,160,l),
(706,390,l),
(816,424,l),
(816,340,o),
(736,276,o),
(632,276,cs),
(528,276,o),
(448,352,o),
(448,452,cs),
(448,570,ls),
(448,670,o),
(512,740,o),
(610,740,cs),
(702,740,o),
(772,678,o),
(772,592,c),
(790,624,l),
(250,624,l),
(250,424,l),
(1164,424,l),
(1204,884,o),
(928,1060,o),
(610,1060,cs),
(292,1060,o),
(52,826,o),
(52,516,cs),
(52,206,o),
(294,-28,o),
(616,-28,cs)
);
}
);
};
layerId = "FD4610B5-BC37-4DA9-A8C2-E31F4CF0FBE5";
name = "Apr 6, 23 17:32";
shapes = (
{
closed = 1;
nodes = (
(826,-28,o),
(1030,54,o),
(1110,202,c),
(776,354,l),
(738,312,o),
(680,292,o),
(626,292,cs),
(536,292,o),
(448,348,o),
(448,424,cs),
(448,570,ls),
(448,670,o),
(512,740,o),
(610,740,cs),
(702,740,o),
(772,678,o),
(772,592,c),
(790,664,l),
(250,664,l),
(250,392,l),
(1162,392,l),
(1214,886,o),
(928,1060,o),
(610,1060,cs),
(292,1060,o),
(52,826,o),
(52,516,cs),
(52,206,o),
(292,-28,o),
(626,-28,cs)
);
}
);
width = 1220;
},
{
annotations = (
{
pos = (911.465,361.601);
text = "black에서는 아예 닫아둘까?";
type = Text;
}
);
associatedMasterId = "94F54C43-8AEE-4ED6-B3C2-2A9D33534E61";
background = {
shapes = (
{
closed = 0;
nodes = (
(992,242,l),
(726,360,l)
);
},
{
ref = o;
}
);
};
layerId = "FE451A51-C6FA-4C29-B66B-83BD53C1AA7E";
name = "Apr 15, 23 1:07";
shapes = (
{
closed = 1;
nodes = (
(892,-28,o),
(1106,120,o),
(1156,338,c),
(752,338,l),
(726,296,o),
(678,272,o),
(626,272,cs),
(536,272,o),
(448,348,o),
(448,448,cs),
(448,594,ls),
(448,694,o),
(512,764,o),
(610,764,cs),
(702,764,o),
(772,702,o),
(772,616,c),
(790,616,l),
(250,616,l),
(250,424,l),
(1164,424,l),
(1204,894,o),
(928,1060,o),
(610,1060,cs),
(292,1060,o),
(52,826,o),
(52,516,cs),
(52,206,o),
(292,-28,o),
(626,-28,cs)
);
}
);
width = 1220;
},
{
annotations = (
{
pos = (911.465,361.601);
text = "black에서는 아예 닫아둘까?";
type = Text;
}
);
associatedMasterId = "94F54C43-8AEE-4ED6-B3C2-2A9D33534E61";
background = {
shapes = (
{
closed = 1;
nodes = (
(1161,404,o),
(1168,459,o),
(1168,516,cs),
(1168,842,o),
(944,1060,o),
(624,1060,cs),
(292,1060,o),
(52,826,o),
(52,516,cs),
(52,206,o),
(294,-28,o),
(614,-28,cs),
(928,-28,o),
(1164,166,o),
(1164,424,c),
(1216,336,l),
(678,336,l),
(780,428,l),
(780,342,o),
(708,276,o),
(614,276,cs),
(520,276,o),
(448,352,o),
(448,452,cs),
(448,570,ls),
(448,670,o),
(512,740,o),
(610,740,cs),
(702,740,o),
(772,678,o),
(772,592,c),
(790,624,l),
(250,624,l),
(250,424,l),
(1224,424,l),
(1148,354,l)
);
}
);
};
layerId = "8EF3A588-0C9D-4A97-BE1B-45B4A00C291F";
name = "Apr 15, 23 2:04";
shapes = (
{
closed = 1;
nodes = (
(928,-28,o),
(1164,166,o),
(1164,424,c),
(1216,336,l),
(678,336,l),
(780,428,l),
(780,342,o),
(708,276,o),
(614,276,cs),
(520,276,o),
(448,352,o),
(448,452,cs),
(448,570,ls),
(448,670,o),
(512,740,o),
(610,740,cs),
(702,740,o),
(772,678,o),
(772,592,c),
(790,624,l),
(250,624,l),
(250,424,l),
(1224,424,l),
(1148,354,l),
(1161,404,o),
(1168,459,o),
(1168,516,cs),
(1168,842,o),
(944,1060,o),
(624,1060,cs),
(292,1060,o),
(52,826,o),
(52,516,cs),
(52,206,o),
(294,-28,o),
(614,-28,cs)
);
}
);
width = 1220;
}
);
metricLeft = o;
metricRight = o;
unicode = 101;
},
{
glyphname = f;
kernLeft = f;
kernRight = f;
layers = (
{
.lastUpdate = 704788277.653;
layerId = m01;
shapes = (
{
ref = _smart.crossbar;
},
{
piece = {
Group = 1;
};
pos = (146,0);
ref = _part.fbase;
}
);
width = 814;
},
{
.lastUpdate = 704788277.653;
background = {
shapes = (
{
closed = 1;
nodes = (
(594,1448,l),
(646,1448,l),
(646,1560,l),
(594,1560,l)
);
}
);
};
layerId = "94F54C43-8AEE-4ED6-B3C2-2A9D33534E61";
shapes = (
{
ref = _smart.crossbar;
},
{
piece = {
Group = 1;
};
pos = (124,0);
ref = _part.fbase;
}
);
width = 952;
}
);
unicode = 102;
},
{
glyphname = g;
kernLeft = g;
kernRight = g;
layers = (
{
.lastUpdate = 704788277.653;
layerId = m01;
shapes = (
{
piece = {
Height = 100;
};
pos = (920,0);
ref = _smart.bowl;
scale = (-1,1);
},
{
ref = _part.gbase;
}
);
width = 1224;
},
{
.lastUpdate = 704788277.653;
layerId = "94F54C43-8AEE-4ED6-B3C2-2A9D33534E61";
shapes = (
{
piece = {
Height = 100;
};
pos = (808,0);
ref = _smart.bowl;
scale = (-1,1);
},
{
ref = _part.gbase;
}
);
width = 1316;
},
{
associatedMasterId = m01;
background = {
shapes = (
{
closed = 1;
nodes = (
(798,-478,o),
(1074,-216,o),
(1074,34,qs),
(1074,1028,l),
(910,1028,l),
(910,880,l),
(904,880,l),
(852,960,o),
(668,1058,o),
(548,1058,qs),
(416,1058,o),
(194,920,o),
(66,672,o),
(66,516,qs),
(66,358,o),
(194,110,o),
(416,-28,o),
(548,-28,qs),
(668,-28,o),
(852,72,o),
(904,150,q),
(910,150,l),
(910,34,ls),
(910,-136,o),
(734,-320,o),
(574,-320,qs),
(466,-320,o),
(304,-212,o),
(270,-120,q),
(112,-188,l),
(154,-306,o),
(392,-478,o),
(574,-478,qs)
);
},
{
closed = 1;
nodes = (
(482,130,o),
(328,220,o),
(236,396,o),
(236,516,qs),
(236,634,o),
(328,810,o),
(482,904,o),
(574,904,qs),
(668,904,o),
(820,810,o),
(910,636,o),
(910,516,qs),
(910,396,o),
(820,222,o),
(668,130,o),
(574,130,qs)
);
}
);
};
layerId = "94F7BA1B-5265-4F9B-BE4F-BE47E56133F8";
name = "o 90%";
shapes = (
{
closed = 1;
nodes = (
(1080,1032,l),
(908,1032,l),
(908,824,l),
(954,516,l),
(908,242,l),
(908,0,l),
(1080,0,l)
);
},
{
piece = {
Height = 100;
};
pos = (908,0);
ref = _smart.bowl;
scale = (-1,1);
},
{
attr = {
strokeHeight = 164;
strokeWidth = 172;
};
closed = 0;
nodes = (
(198,0,l),
(198,-238,o),
(370,-416,o),
(596,-416,cs),
(824,-416,o),
(994,-238,o),
(994,0,c)
);
}
);
width = 1200;
},
{
associatedMasterId = m01;
background = {
shapes = (
{
closed = 1;
nodes = (
(798,-462,o),
(1074,-200,o),
(1074,50,qs),
(1074,1044,l),
(910,1044,l),
(910,896,l),
(904,896,l),
(852,976,o),
(668,1074,o),
(548,1074,qs),
(416,1074,o),
(194,936,o),
(66,688,o),
(66,532,qs),
(66,374,o),
(194,126,o),
(416,-12,o),
(548,-12,qs),
(668,-12,o),
(852,88,o),
(904,166,q),
(910,166,l),
(910,50,ls),
(910,-120,o),
(734,-304,o),
(574,-304,qs),
(466,-304,o),
(304,-196,o),
(270,-104,q),
(112,-172,l),
(154,-290,o),
(392,-462,o),
(574,-462,qs)
);
},
{
closed = 1;
nodes = (
(482,146,o),
(328,236,o),
(236,412,o),
(236,532,qs),
(236,650,o),
(328,826,o),
(482,920,o),
(574,920,qs),
(668,920,o),
(820,826,o),
(910,652,o),
(910,532,qs),
(910,412,o),
(820,238,o),
(668,146,o),
(574,146,qs)
);
}
);
};
layerId = "7B497B57-E7A3-4F00-96DE-7733C0B64E4D";
name = "Google Sans Base";
shapes = (
{
closed = 1;
nodes = (
(1080,1032,l),
(908,1032,l),
(908,824,l),
(954,516,l),
(908,242,l),
(908,36,l),
(1080,36,l)
);
},
{
piece = {
Height = 100;
};
pos = (908,0);
ref = _smart.bowl;
scale = (-1,1);
},
{
attr = {
strokeHeight = 164;
strokeWidth = 172;
};
closed = 0;
nodes = (
(188,-138,l),
(272,-308,o),
(378,-380,o),
(592,-380,cs),
(832,-380,o),
(994,-210,o),
(994,36,c)
);
}
);
width = 1200;
},
{
associatedMasterId = m01;
background = {
shapes = (
{
closed = 1;
nodes = (
(916,976,l),
(916,816,l),
(914,816,l),
(886,862,o),
(816,934,o),
(726,980,o),
(626,1004,o),
(578,1004,qs),
(464,1004,o),
(276,934,o),
(144,804,o),
(72,618,o),
(72,504,qs),
(72,400,o),
(144,218,o),
(278,84,o),
(466,12,o),
(578,12,qs),
(672,12,o),
(854,98,o),
(914,190,q),
(916,190,l),
(916,70,ls),
(916,-8,o),
(882,-148,o),
(804,-252,o),
(662,-316,o),
(556,-316,qs),
(446,-316,o),
(278,-232,o),
(204,-152,q),
(90,-282,l),
(194,-382,o),
(416,-462,o),
(556,-462,qs),
(808,-462,o),
(1074,-194,o),
(1074,70,qs),
(1074,976,l)
);
},
{
closed = 1;
nodes = (
(292,708,o),
(378,800,o),
(504,854,o),
(578,854,qs),
(652,854,o),
(778,804,o),
(868,714,o),
(916,584,o),
(916,508,qs),
(916,438,o),
(872,314,o),
(784,218,o),
(658,158,o),
(578,158,qs),
(510,158,o),
(386,214,o),
(296,306,o),
(242,432,o),
(242,504,qs),
(242,578,o)
);
}
);
};
layerId = "DB54FFB6-FD76-4C73-BB9D-8E4088DF9AD9";
name = "Avenir Base";
shapes = (
{
closed = 1;
nodes = (
(1080,1032,l),
(908,1032,l),
(908,824,l),
(954,516,l),
(908,242,l),
(908,102,l),
(1080,102,l)
);
},
{
piece = {
Height = 100;
};
pos = (908,0);
ref = _smart.bowl;
scale = (-1,1);
},
{
attr = {
strokeHeight = 164;
strokeWidth = 172;
};
closed = 0;
nodes = (
(144,-210,l),
(226,-288,o),
(346,-380,o),
(548,-380,cs),
(824,-380,o),
(994,-204,o),
(994,102,c)
);
}
);
width = 1200;
},
{
associatedMasterId = "94F54C43-8AEE-4ED6-B3C2-2A9D33534E61";
layerId = "D71E5938-C6E8-40E7-A9D7-8C0314D23C03";
name = "Avenir Base";
shapes = (
{
closed = 1;
nodes = (
(1180,1032,l),
(796,1032,l),
(796,824,l),
(842,516,l),
(796,242,l),
(796,102,l),
(1180,102,l)
);
},
{
piece = {
Height = 100;
};
pos = (796,0);
ref = _smart.bowl;
scale = (-1,1);
},
{
attr = {
strokeHeight = 336;
strokeWidth = 384;
};
closed = 0;
nodes = (
(164,-162,l),
(242,-222,o),
(356,-294,o),
(548,-294,cs),
(824,-294,o),
(988,-148,o),
(988,102,c)
);
}
);
width = 1276;
},
{
associatedMasterId = m01;
layerId = "D7F691B1-F8F7-43F0-8442-FD31E8F9F92F";
name = Avenir;
shapes = (
{
closed = 1;
nodes = (
(792,-460,o),
(928,-392,o),
(1014,-292,cs),
(1102,-190,o),
(1136,-54,o),
(1136,92,cs),
(1136,1032,l),
(946,1032,l),
(946,874,l),
(940,874,l),
(864,998,o),
(724,1060,o),
(584,1060,cs),
(284,1060,o),
(84,828,o),
(84,544,cs),
(84,258,o),
(286,34,o),
(586,34,cs),
(726,34,o),
(862,94,o),
(934,206,c),
(938,206,l),
(938,78,ls),
(938,-130,o),
(850,-288,o),
(590,-288,cs),
(452,-288,o),
(314,-226,o),
(228,-126,c),
(104,-280,l),
(228,-394,o),
(414,-460,o),
(588,-460,cs)
);
},
{
closed = 1;
nodes = (
(422,198,o),
(290,354,o),
(290,548,cs),
(290,736,o),
(410,896,o),
(616,896,cs),
(812,896,o),
(954,740,o),
(954,548,cs),
(954,350,o),
(814,198,o),
(616,198,cs)
);
}
);
width = 1268;
}
);
metricLeft = o;
metricRight = l;
unicode = 103;
},
{
glyphname = k;
kernLeft = l;
kernRight = x;
layers = (
{
.lastUpdate = 704788277.653;
background = {
shapes = (
{
closed = 0;
nodes = (
(84,540,l),
(1154,540,l)
);
}
);
};
layerId = m01;
shapes = (
{
piece = {
Cap = 100;
};
ref = _smart.lowerstem;
},
{
pos = (304,0);
ref = _part.kbase;
}
);
width = 998;
},
{
.lastUpdate = 704788277.653;
layerId = "94F54C43-8AEE-4ED6-B3C2-2A9D33534E61";
shapes = (
{
piece = {
Cap = 100;
};
ref = _smart.lowerstem;
},
{
pos = (508,0);
ref = _part.kbase;
}
);
width = 1258;
},
{
associatedMasterId = m01;
background = {
shapes = (
{
closed = 0;
nodes = (
(82,540,l),
(1152,540,l)
);
},
{
pos = (-92,0);
ref = x;
}
);
};
layerId = "6FEC1728-80A2-4202-94C9-45ABB014C6B8";
name = "Apr 7, 23 16:29";
shapes = (
{
closed = 1;
nodes = (
(946,0,l),
(466,540,l),
(260,540,l),
(260,532,l),
(724,0,l)
);
},
{
alignment = -1;
ref = l;
},
{
closed = 1;
nodes = (
(466,540,l),
(930,1032,l),
(706,1032,l),
(260,544,l),
(260,540,l)
);
}
);
width = 978;
}
);
metricLeft = l;
metricRight = x;
unicode = 107;
},
{
glyphname = n;
kernLeft = n;
kernRight = n;
layers = (
{
.lastUpdate = 704788277.653;
layerId = m01;
shapes = (
{
ref = _smart.lowerstem;
},
{
pos = (304,0);
ref = _smart.shoulder;
}
);
width = 1108;
},
{
.lastUpdate = 704788488.213;
layerId = "94F54C43-8AEE-4ED6-B3C2-2A9D33534E61";
shapes = (
{
ref = _smart.lowerstem;
},
{
pos = (508,0);
ref = _smart.shoulder;
}
);
width = 1334;
},
{
associatedMasterId = m01;
layerId = "EE6C7DD3-D9F5-484E-A155-C033E4576943";
name = "Wanted Logotype";
shapes = (
{
closed = 1;
nodes = (
(76,0,l),
(292,0,l),
(292,590,ls),
(292,772,o),
(396,874,o),
(542,874,cs),
(690,874,o),
(792,772,o),
(792,590,cs),
(790,0,l),
(1008,0,l),
(1008,604,ls),
(1008,898,o),
(870,1060,o),
(610,1060,cs),
(468,1060,o),
(346,1006,o),
(292,908,c),
(292,1040,l),
(76,1040,l)
);
}
);
width = 1070;
}
);
unicode = 110;
},
{
glyphname = o;
kernLeft = o;
kernRight = o;
layers = (
{
layerId = m01;
metricLeft = "=84";
metricRight = "=|";
shapes = (
{
closed = 1;
nodes = (
(916,-28,o),
(1144,206,o),
(1144,516,cs),
(1144,826,o),
(916,1060,o),
(614,1060,cs),
(312,1060,o),
(84,826,o),
(84,516,cs),
(84,206,o),
(312,-28,o),
(614,-28,cs)
);
},
{
closed = 1;
nodes = (
(406,136,o),
(260,292,o),
(260,516,cs),
(260,740,o),
(406,896,o),
(614,896,cs),
(822,896,o),
(968,740,o),
(968,516,cs),
(968,292,o),
(822,136,o),
(614,136,cs)
);
}
);
width = 1228;
},
{
associatedMasterId = m01;
layerId = "AABEAC61-CC9E-48F5-A2C3-BCADFA738349";
name = "width 100%";
shapes = (
{
closed = 1;
nodes = (
(926,-28,o),
(1160,206,o),
(1160,516,cs),
(1160,826,o),
(926,1060,o),
(616,1060,cs),
(306,1060,o),
(72,826,o),
(72,516,cs),
(72,206,o),
(306,-28,o),
(616,-28,cs)
);
},
{
closed = 1;
nodes = (
(400,136,o),
(248,292,o),
(248,516,cs),
(248,740,o),
(400,896,o),
(616,896,cs),
(832,896,o),
(984,740,o),
(984,516,cs),
(984,292,o),
(832,136,o),
(616,136,cs)
);
}
);
width = 1232;
},
{
annotations = (
{
pos = (684.791,1123.317);
text = "97.5%";
type = Text;
}
);
associatedMasterId = m01;
layerId = "4488BEB0-8F99-4D40-8503-DE1A4368BDF8";
name = "width 97.5%";
shapes = (
{
closed = 1;
nodes = (
(904,-28,o),
(1132,206,o),
(1132,516,cs),
(1132,826,o),
(904,1060,o),
(602,1060,cs),
(300,1060,o),
(72,826,o),
(72,516,cs),
(72,206,o),
(300,-28,o),
(602,-28,cs)
);
},
{
closed = 1;
nodes = (
(394,136,o),
(248,292,o),
(248,516,cs),
(248,740,o),
(394,896,o),
(602,896,cs),
(810,896,o),
(956,740,o),
(956,516,cs),
(956,292,o),
(810,136,o),
(602,136,cs)
);
}
);
width = 1204;
},
{
annotations = (
{
pos = (684.791,1123.317);
text = "97.5%";
type = Text;
}
);
associatedMasterId = m01;
layerId = "EA13D286-D8E7-4B34-BC85-FB197F5945C0";
name = base;
shapes = (
{
attr = {
strokeHeight = 164;
strokeWidth = 176;
};
closed = 1;
nodes = (
(854,54,o),
(1044,252,o),
(1044,516,cs),
(1044,780,o),
(854,978,o),
(602,978,cs),
(350,978,o),
(160,780,o),
(160,516,cs),
(160,252,o),
(350,54,o),
(602,54,cs)
);
}
);
width = 1204;
},
{
layerId = "94F54C43-8AEE-4ED6-B3C2-2A9D33534E61";
metricLeft = "=52";
metricRight = "=|";
shapes = (
{
closed = 1;
nodes = (
(928,-28,o),
(1168,206,o),
(1168,516,cs),
(1168,826,o),
(928,1060,o),
(610,1060,cs),
(292,1060,o),
(52,826,o),
(52,516,cs),
(52,206,o),
(292,-28,o),
(610,-28,cs)
);
},
{
closed = 1;
nodes = (
(504,332,o),
(428,408,o),
(428,516,cs),
(428,624,o),
(504,700,o),
(610,700,cs),
(716,700,o),
(792,624,o),
(792,516,cs),
(792,408,o),
(716,332,o),
(610,332,cs)
);
}
);
width = 1220;
},
{
associatedMasterId = "94F54C43-8AEE-4ED6-B3C2-2A9D33534E61";
layerId = "816C6E01-E080-49D3-9B9F-3EE08F8BC0A6";
name = "width 100%";
shapes = (
{
closed = 1;
nodes = (
(894,-28,o),
(1128,206,o),
(1128,516,cs),
(1128,826,o),
(894,1060,o),
(584,1060,cs),
(274,1060,o),
(40,826,o),
(40,516,cs),
(40,206,o),
(274,-28,o),
(584,-28,cs)
);
},
{
closed = 1;
nodes = (
(486,332,o),
(416,408,o),
(416,516,cs),
(416,624,o),
(486,700,o),
(584,700,cs),
(682,700,o),
(752,624,o),
(752,516,cs),
(752,408,o),
(682,332,o),
(584,332,cs)
);
}
);
width = 1168;
},
{
annotations = (
{
pos = (704,1164);
text = "102.5%";
type = Text;
}
);
associatedMasterId = "94F54C43-8AEE-4ED6-B3C2-2A9D33534E61";
layerId = "6A3D85B9-F2B8-4AD0-91CC-3D77622C9D33";
name = "width 102.5%";
shapes = (
{
closed = 1;
nodes = (
(916,-28,o),
(1156,206,o),
(1156,516,cs),
(1156,826,o),
(916,1060,o),
(598,1060,cs),
(280,1060,o),
(40,826,o),
(40,516,cs),
(40,206,o),
(280,-28,o),
(598,-28,cs)
);
},
{
closed = 1;
nodes = (
(492,332,o),
(416,408,o),
(416,516,cs),
(416,624,o),
(492,700,o),
(598,700,cs),
(704,700,o),
(780,624,o),
(780,516,cs),
(780,408,o),
(704,332,o),
(598,332,cs)
);
}
);
width = 1196;
},
{
annotations = (
{
pos = (704,1164);
text = "102.5%";
type = Text;
}
);
associatedMasterId = "94F54C43-8AEE-4ED6-B3C2-2A9D33534E61";
layerId = "91B4F330-5CAE-4501-91EB-9737B6E7F11B";
name = base;
shapes = (
{
attr = {
strokeHeight = 360;
strokeWidth = 376;
};
closed = 1;
nodes = (
(808,152,o),
(968,308,o),
(968,516,cs),
(968,724,o),
(808,880,o),
(598,880,cs),
(388,880,o),
(228,724,o),
(228,516,cs),
(228,308,o),
(388,152,o),
(598,152,cs)
);
}
);
width = 1196;
}
);
unicode = 111;
},
{
glyphname = r;
kernLeft = n;
kernRight = r;
layers = (
{
.lastUpdate = 704788277.653;
background = {
shapes = (
{
ref = n;
}
);
};
layerId = m01;
shapes = (
{
ref = _smart.lowerstem;
},
{
pos = (304,0);
ref = _part.rbase;
}
);
width = 770;
},
{
.lastUpdate = 704788277.654;
background = {
shapes = (
{
pos = (8,0);
ref = n;
},
{
closed = 1;
nodes = (
(766,1048,l),
(858,1048,l),
(858,1060,l),
(766,1060,l)
);
}
);
};
layerId = "94F54C43-8AEE-4ED6-B3C2-2A9D33534E61";
shapes = (
{
ref = _smart.lowerstem;
},
{
pos = (508,0);
ref = _part.rbase;
}
);
width = 960;
},
{
associatedMasterId = m01;
background = {
shapes = (
{
closed = 1;
nodes = (
(292,0,l),
(292,502,ls),
(292,680,o),
(436,886,o),
(594,886,qs),
(644,886,o),
(688,872,q),
(698,1046,l),
(680,1054,o),
(646,1058,o),
(628,1058,qs),
(564,1058,o),
(454,1024,o),
(366,970,o),
(302,898,o),
(284,862,q),
(280,862,l),
(280,906,o),
(274,990,o),
(274,1032,q),
(112,1032,l),
(112,980,o),
(120,858,o),
(120,786,qs),
(120,0,l)
);
}
);
};
layerId = "95963C14-ADC1-497C-A4A2-47FBA2606E02";
name = "Avenir Base";
shapes = (
{
closed = 1;
nodes = (
(292,0,l),
(292,1032,l),
(120,1032,l),
(120,0,l)
);
},
{
attr = {
lineCapEnd = "4";
lineCapStart = "4";
strokeHeight = 164;
strokeWidth = 172;
};
closed = 0;
nodes = (
(678,952,ls),
(410,1054,o),
(206,820,o),
(206,516,cs)
);
}
);
width = 766;
},
{
associatedMasterId = "94F54C43-8AEE-4ED6-B3C2-2A9D33534E61";
background = {
shapes = (
{
closed = 1;
nodes = (
(480,0,l),
(480,416,ls),
(480,490,o),
(496,612,o),
(552,700,o),
(654,748,o),
(742,748,qs),
(776,748,o),
(840,738,o),
(872,728,q),
(872,1008,l),
(850,1014,o),
(796,1018,o),
(770,1018,qs),
(668,1018,o),
(532,926,o),
(484,834,q),
(480,834,l),
(480,994,l),
(172,994,l),
(172,0,l)
);
}
);
};
layerId = "CAC936D0-A462-4B54-AC26-F32D7301C818";
name = "Avenir Base";
shapes = (
{
closed = 1;
nodes = (
(480,0,l),
(480,1032,l),
(96,1032,l),
(96,0,l)
);
},
{
attr = {
lineCapEnd = "4";
lineCapStart = "4";
strokeHeight = 336;
strokeWidth = 384;
};
closed = 0;
nodes = (
(848,866,ls),
(530,968,o),
(288,734,o),
(288,430,cs)
);
}
);
width = 920;
},
{
associatedMasterId = "94F54C43-8AEE-4ED6-B3C2-2A9D33534E61";
background = {
shapes = (
{
ref = n;
},
{
closed = 1;
nodes = (
(758,1048,l),
(850,1048,l),
(850,1060,l),
(758,1060,l)
);
}
);
};
layerId = "A7C84C39-40D5-4F99-A483-17F9C8DB6CF5";
name = "Apr 5, 23 23:34";
shapes = (
{
closed = 1;
nodes = (
(480,0,l),
(480,1032,l),
(96,1032,l),
(96,0,l)
);
},
{
closed = 1;
nodes = (
(480,712,o),
(680,770,o),
(848,674,c),
(848,1048,l),
(484,1142,o),
(352,666,o),
(480,416,c)
);
}
);
width = 920;
},
{
associatedMasterId = m01;
background = {
shapes = (
{
ref = n;
}
);
};
layerId = "74889A4D-8076-4179-8837-154507509A0C";
metricRight = "=f/1.25";
name = "Apr 6, 23 15:56";
shapes = (
{
closed = 1;
nodes = (
(292,0,l),
(292,1032,l),
(120,1032,l),
(120,0,l)
);
},
{
closed = 1;
nodes = (
(292,792,o),
(428,902,o),
(624,886,c),
(624,1050,l),
(390,1114,o),
(184,858,o),
(292,516,c)
);
}
);
width = 694;
}
);
metricLeft = n;
metricRight = f;
unicode = 114;
},
{
glyphname = s;
kernLeft = s;
kernRight = s;
layers = (
{
annotations = (
{
pos = (642,1260);
text = "조금 더 오른쪽으로?";
type = Text;
}
);
background = {
shapes = (
{
closed = 0;
nodes = (
(668,764,l),
(870,914,l)
);
},
{
closed = 0;
nodes = (
(84,146,l),
(272,300,l)
);
},
{
attr = {
strokeHeight = 164;
strokeWidth = 176;
};
closed = 0;
nodes = (
(776,844,l),
(712,924,o),
(610,978,o),
(488,978,cs),
(328,978,o),
(208,886,o),
(208,758,cs),
(208,658,o),
(284,598,o),
(460,554,cs),
(516,540,ls),
(724,488,o),
(804,416,o),
(804,298,cs),
(804,144,o),
(668,54,o),
(488,54,cs),
(342,54,o),
(236,114,o),
(148,202,c)
);
}
);
};
layerId = m01;
shapes = (
{
closed = 1;
nodes = (
(724,-28,o),
(892,104,o),
(892,298,cs),
(892,456,o),
(780,560,o),
(538,620,cs),
(482,634,ls),
(348,668,o),
(296,700,o),
(296,758,cs),
(296,834,o),
(382,896,o),
(488,896,cs),
(570,896,o),
(654,860,o),
(708,794,c),
(846,896,l),
(762,998,o),
(632,1060,o),
(488,1060,cs),
(280,1060,o),
(120,932,o),
(120,758,cs),
(120,620,o),
(222,528,o),
(440,474,cs),
(496,460,ls),
(656,420,o),
(716,378,o),
(716,298,cs),
(716,202,o),
(626,136,o),
(488,136,cs),
(384,136,o),
(296,174,o),
(216,254,c),
(84,146,l),
(198,30,o),
(332,-28,o),
(488,-28,cs)
);
}
);
width = 976;
},
{
associatedMasterId = m01;
background = {
shapes = (
{
closed = 1;
nodes = (
(174,18,o),
(296,-28,o),
(472,-28,cs),
(692,-28,o),
(886,66,o),
(886,296,cs),
(886,504,o),
(740,570,o),
(548,606,cs),
(412,632,o),
(286,670,o),
(286,756,cs),
(286,856,o),
(404,900,o),
(490,900,cs),
(594,900,o),
(664,850,o),
(710,776,c),
(852,872,l),
(782,1002,o),
(648,1060,o),
(502,1060,cs),
(302,1060,o),
(114,950,o),
(114,754,cs),
(114,540,o),
(284,496,o),
(480,452,cs),
(590,428,o),
(700,398,o),
(700,290,cs),
(700,178,o),
(582,130,o),
(472,130,cs),
(350,130,o),
(274,184,o),
(208,270,c),
(70,164,l)
);
}
);
};
layerId = "465A4190-B165-4494-8ABF-A36D951D96B4";
name = "Apr 6, 23 23:05";
shapes = (
{
attr = {
strokeHeight = 164;
strokeWidth = 176;
};
closed = 0;
nodes = (
(796,722,l),
(796,862,o),
(656,978,o),
(486,978,cs),
(328,978,o),
(204,878,o),
(204,750,cs),
(204,646,o),
(290,574,o),
(458,536,cs),
(532,520,ls),
(722,480,o),
(796,416,o),
(796,292,cs),
(796,152,o),
(674,54,o),
(498,54,cs),
(312,54,o),
(172,170,o),
(172,324,c)
);
}
);
width = 968;
},
{
associatedMasterId = m01;
background = {
shapes = (
{
closed = 1;
nodes = (
(176,18,o),
(298,-28,o),
(474,-28,cs),
(694,-28,o),
(888,66,o),
(888,296,cs),
(888,504,o),
(742,570,o),
(550,606,cs),
(414,632,o),
(288,670,o),
(288,756,cs),
(288,856,o),
(406,900,o),
(492,900,cs),
(596,900,o),
(666,850,o),
(712,776,c),
(854,872,l),
(784,1002,o),
(650,1060,o),
(504,1060,cs),
(304,1060,o),
(116,950,o),
(116,754,cs),
(116,540,o),
(286,496,o),
(482,452,cs),
(592,428,o),
(702,398,o),
(702,290,cs),
(702,178,o),
(584,130,o),
(474,130,cs),
(352,130,o),
(276,184,o),
(210,270,c),
(72,164,l)
);
}
);
};
layerId = "B528B5C0-5D2E-4C27-BEA1-38ED05C883B2";
name = "Apr 6, 23 23:15";
shapes = (
{
attr = {
strokeHeight = 164;
strokeWidth = 176;
};
closed = 0;
nodes = (
(776,818,l),
(730,912,o),
(618,978,o),
(488,978,cs),
(330,978,o),
(206,878,o),
(206,750,cs),
(206,648,o),
(296,574,o),
(460,538,cs),
(534,522,ls),
(748,476,o),
(798,390,o),
(798,282,cs),
(798,142,o),
(648,54,o),
(472,54,cs),
(318,54,o),
(218,114,o),
(156,202,c)
);
}
);
width = 970;
},
{
associatedMasterId = m01;
background = {
shapes = (
{
attr = {
strokeHeight = 164;
strokeWidth = 176;
};
closed = 0;
nodes = (
(198,818,l),
(246,914,o),
(356,978,o),
(486,978,cs),
(642,978,o),
(768,886,o),
(768,758,cs),
(768,658,o),
(692,588,o),
(524,550,cs),
(452,534,ls),
(252,490,o),
(172,410,o),
(172,294,cs),
(172,130,o),
(332,54,o),
(494,54,cs),
(632,54,o),
(738,110,o),
(828,200,c)
);
}
);
};
layerId = "96276BA4-5A32-4BE8-8497-4FCF36A79D2F";
name = "Apr 6, 23 23:41";
shapes = (
{
attr = {
strokeHeight = 164;
strokeWidth = 176;
};
closed = 0;
nodes = (
(776,818,l),
(728,914,o),
(618,978,o),
(488,978,cs),
(332,978,o),
(206,886,o),
(206,758,cs),
(206,658,o),
(282,588,o),
(450,550,cs),
(522,534,ls),
(722,490,o),
(802,410,o),
(802,294,cs),
(802,130,o),
(642,54,o),
(480,54,cs),
(342,54,o),
(236,110,o),
(146,200,c)
);
}
);
width = 974;
},
{
associatedMasterId = m01;
background = {
shapes = (
{
closed = 0;
nodes = (
(46,116,l),
(270,298,l)
);
},
{
closed = 0;
nodes = (
(490,896,l),
(586,896,o),
(664,852,o),
(700,782,c),
(858,856,l),
(798,974,o),
(658,1060,o),
(490,1060,c)
);
},
{
closed = 0;
nodes = (
(656,746,l),
(880,928,l)
);
},
{
closed = 0;
nodes = (
(490,1060,l),
(290,1060,o),
(120,934,o),
(120,758,cs),
(120,614,o),
(230,516,o),
(434,470,cs),
(506,454,ls),
(666,418,o),
(716,368,o),
(716,294,cs),
(716,186,o),
(608,136,o),
(482,136,cs),
(372,136,o),
(290,180,o),
(210,258,c),
(86,142,l),
(186,42,o),
(316,-28,o),
(482,-28,cs),
(678,-28,o),
(892,74,o),
(892,294,cs),
(892,454,o),
(780,562,o),
(544,614,cs),
(472,630,ls),
(340,660,o),
(296,702,o),
(296,758,cs),
(296,838,o),
(378,896,o),
(490,896,c)
);
}
);
};
layerId = "39F2F63F-5498-4D4A-A638-5C41EFB9262D";
name = "Apr 7, 23 0:01";
shapes = (
{
closed = 1;
nodes = (
(678,-28,o),
(892,74,o),
(892,294,cs),
(892,454,o),
(780,562,o),
(544,614,cs),
(472,630,ls),
(340,660,o),
(296,702,o),
(296,758,cs),
(296,838,o),
(378,896,o),
(490,896,cs),
(580,896,o),
(662,858,o),
(708,788,c),
(842,882,l),
(782,972,o),
(658,1060,o),
(490,1060,cs),
(290,1060,o),
(120,934,o),
(120,758,cs),
(120,614,o),
(230,516,o),
(434,470,cs),
(506,454,ls),
(666,418,o),
(716,368,o),
(716,294,cs),
(716,186,o),
(608,136,o),
(482,136,cs),
(364,136,o),
(290,180,o),
(216,254,c),
(84,146,l),
(186,42,o),
(316,-28,o),
(482,-28,cs)
);
}
);
width = 976;
},
{
associatedMasterId = m01;
background = {
shapes = (
{
closed = 0;
nodes = (
(490,896,l),
(586,896,o),
(664,852,o),
(700,782,c),
(858,856,l),
(798,974,o),
(658,1060,o),
(490,1060,c)
);
},
{
closed = 0;
nodes = (
(490,1060,l),
(290,1060,o),
(120,934,o),
(120,758,cs),
(120,614,o),
(230,516,o),
(434,470,cs),
(506,454,ls),
(666,418,o),
(716,368,o),
(716,294,cs),
(716,186,o),
(608,136,o),
(482,136,cs),
(372,136,o),
(290,180,o),
(210,258,c),
(86,142,l),
(186,42,o),
(316,-28,o),
(482,-28,cs),
(678,-28,o),
(892,74,o),
(892,294,cs),
(892,454,o),
(780,562,o),
(544,614,cs),
(472,630,ls),
(340,660,o),
(296,702,o),
(296,758,cs),
(296,838,o),
(378,896,o),
(490,896,c)
);
}
);
};
layerId = "79D06399-1145-4B5F-8A96-D6C66B55205D";
name = "Apr 7, 23 0:00";
shapes = (
{
closed = 1;
nodes = (
(678,-28,o),
(892,74,o),
(892,302,cs),
(892,466,o),
(784,570,o),
(546,616,cs),
(472,630,ls),
(340,656,o),
(296,702,o),
(296,758,cs),
(296,838,o),
(378,896,o),
(490,896,cs),
(580,896,o),
(662,858,o),
(708,788,c),
(842,882,l),
(782,972,o),
(658,1060,o),
(490,1060,cs),
(290,1060,o),
(120,934,o),
(120,758,cs),
(120,614,o),
(230,508,o),
(434,470,cs),
(508,456,ls),
(668,426,o),
(716,380,o),
(716,302,cs),
(716,186,o),
(608,136,o),
(482,136,cs),
(364,136,o),
(290,180,o),
(216,254,c),
(84,146,l),
(186,42,o),
(316,-28,o),
(482,-28,cs)
);
}
);
width = 976;
},
{
annotations = (
{
pos = (458,246);
text = "조금 더 완만하면 어떨지?";
type = Text;
}
);
associatedMasterId = m01;
background = {
shapes = (
{
attr = {
strokeHeight = 164;
strokeWidth = 176;
};
closed = 0;
nodes = (
(778,820,l),
(728,912,o),
(618,978,o),
(488,978,cs),
(332,978,o),
(208,886,o),
(208,758,cs),
(208,658,o),
(284,588,o),
(452,550,cs),
(524,534,ls),
(716,492,o),
(804,416,o),
(804,294,cs),
(804,130,o),
(644,54,o),
(480,54,cs),
(346,54,o),
(236,110,o),
(146,202,c)
);
},
{
closed = 0;
nodes = (
(660,754,l),
(876,906,l)
);
},
{
closed = 0;
nodes = (
(84,146,l),
(272,300,l)
);
}
);
};
layerId = "FB2C20F2-4546-43ED-B2BF-874226053086";
name = "Apr 16, 23 1:02";
shapes = (
{
closed = 1;
nodes = (
(678,-28,o),
(892,74,o),
(892,294,cs),
(892,454,o),
(780,562,o),
(544,614,cs),
(472,630,ls),
(340,660,o),
(296,702,o),
(296,758,cs),
(296,838,o),
(378,896,o),
(490,896,cs),
(580,896,o),
(662,858,o),
(708,788,c),
(842,882,l),
(782,972,o),
(658,1060,o),
(490,1060,cs),
(290,1060,o),
(120,934,o),
(120,758,cs),
(120,614,o),
(230,516,o),
(434,470,cs),
(506,454,ls),
(666,418,o),
(716,368,o),
(716,294,cs),
(716,186,o),
(608,136,o),
(482,136,cs),
(364,136,o),
(290,180,o),
(216,254,c),
(84,146,l),
(186,42,o),
(316,-28,o),
(482,-28,cs)
);
}
);
width = 976;
},
{
annotations = (
{
pos = (458,246);
text = "조금 더 완만하면 어떨지?";
type = Text;
}
);
associatedMasterId = m01;
layerId = "3C6D5124-AB1A-49DA-827C-86A2E7A66AB8";
name = Avenir;
shapes = (
{
closed = 1;
nodes = (
(810,1000,o),
(658,1060,o),
(510,1060,cs),
(316,1060,o),
(120,964,o),
(120,744,cs),
(120,552,o),
(278,496,o),
(422,460,cs),
(598,420,o),
(690,384,o),
(690,288,cs),
(690,176,o),
(590,138,o),
(486,138,cs),
(370,138,o),
(268,202,o),
(212,282,c),
(66,158,l),
(166,32,o),
(324,-28,o),
(482,-28,cs),
(690,-28,o),
(892,62,o),
(892,306,cs),
(892,488,o),
(748,562,o),
(548,610,cs),
(392,644,o),
(312,676,o),
(312,764,cs),
(312,862,o),
(412,900,o),
(504,900,cs),
(608,900,o),
(696,846,o),
(742,772,c),
(884,890,l),
(884,890,l)
);
}
);
width = 976;
},
{
background = {
shapes = (
{
attr = {
strokeHeight = 312;
strokeWidth = 360;
};
closed = 0;
nodes = (
(826,816,l),
(758,858,o),
(650,904,o),
(522,904,cs),
(354,904,o),
(226,822,o),
(226,706,cs),
(226,616,o),
(292,556,o),
(448,524,cs),
(498,514,ls),
(682,478,o),
(750,414,o),
(750,320,cs),
(750,188,o),
(618,128,o),
(444,128,cs),
(304,128,o),
(202,178,o),
(116,232,c)
);
}
);
};
layerId = "94F54C43-8AEE-4ED6-B3C2-2A9D33534E61";
metricLeft = "=o-32";
name = Black;
shapes = (
{
closed = 1;
nodes = (
(728,-28,o),
(930,108,o),
(930,320,cs),
(930,494,o),
(794,616,o),
(540,664,cs),
(508,670,ls),
(456,680,o),
(438,692,o),
(438,710,cs),
(438,724,o),
(448,748,o),
(524,748,cs),
(592,748,o),
(668,728,o),
(732,684,c),
(922,950,l),
(804,1018,o),
(662,1060,o),
(522,1060,cs),
(260,1060,o),
(46,912,o),
(46,706,cs),
(46,544,o),
(176,430,o),
(402,384,cs),
(432,378,ls),
(512,364,o),
(538,350,o),
(538,328,cs),
(538,306,o),
(512,292,o),
(448,292,cs),
(372,292,o),
(308,312,o),
(212,364,c),
(20,100,l),
(158,16,o),
(294,-28,o),
(452,-28,cs)
);
}
);
width = 982;
},
{
.lastUpdate = 704278045.59;
associatedMasterId = "94F54C43-8AEE-4ED6-B3C2-2A9D33534E61";
attr = {
coordinates = (
700
);
};
layerId = "42EBAC5C-24C4-42B9-985C-85612E7265C4";
metricLeft = "=46";
metricRight = "=64";
name = "Apr 16, 23 2:33";
shapes = (
{
closed = 1;
nodes = (
(728,-28,o),
(914,108,o),
(914,312,cs),
(914,480,o),
(788,594,o),
(536,648,cs),
(484,660,ls),
(388,682,o),
(362,700,o),
(362,730,cs),
(362,772,o),
(408,808,o),
(496,808,cs),
(578,808,o),
(658,780,o),
(722,728,c),
(890,928,l),
(786,1010,o),
(650,1060,o),
(508,1060,cs),
(266,1060,o),
(76,920,o),
(76,726,cs),
(76,574,o),
(194,468,o),
(424,418,cs),
(476,406,ls),
(594,380,o),
(628,356,o),
(628,314,cs),
(628,264,o),
(572,232,o),
(478,232,cs),
(382,232,o),
(310,256,o),
(214,320,c),
(46,118,l),
(174,22,o),
(310,-28,o),
(466,-28,cs)
);
}
);
width = 978;
},
{
associatedMasterId = "94F54C43-8AEE-4ED6-B3C2-2A9D33534E61";
background = {
shapes = (
{
attr = {
strokeHeight = 312;
strokeWidth = 360;
};
closed = 0;
nodes = (
(826,816,l),
(758,858,o),
(650,904,o),
(522,904,cs),
(354,904,o),
(226,822,o),
(226,706,cs),
(226,616,o),
(292,556,o),
(448,524,cs),
(498,514,ls),
(682,478,o),
(750,414,o),
(750,320,cs),
(750,188,o),
(618,128,o),
(444,128,cs),
(304,128,o),
(202,178,o),
(116,232,c)
);
}
);
};
layerId = "D0D5B2B0-5B39-45D3-B16E-588BBF3F94BF";
metricLeft = "=o-32";
name = "Before Make 700";
shapes = (
{
closed = 1;
nodes = (
(730,-28,o),
(930,110,o),
(930,320,cs),
(930,496,o),
(794,616,o),
(534,668,cs),
(484,678,ls),
(416,692,o),
(406,700,o),
(406,712,cs),
(406,730,o),
(424,748,o),
(502,748,cs),
(584,748,o),
(660,728,o),
(732,684,c),
(922,950,l),
(804,1018,o),
(660,1060,o),
(522,1060,cs),
(258,1060,o),
(46,912,o),
(46,706,cs),
(46,544,o),
(176,428,o),
(414,380,cs),
(464,370,ls),
(554,352,o),
(570,342,o),
(570,326,cs),
(570,304,o),
(536,296,o),
(472,296,cs),
(382,296,o),
(318,312,o),
(212,364,c),
(20,100,l),
(158,16,o),
(296,-28,o),
(452,-28,cs)
);
}
);
width = 982;
},
{
associatedMasterId = "94F54C43-8AEE-4ED6-B3C2-2A9D33534E61";
layerId = "EFADA99A-2E15-49BD-9BD8-F1CF35A0CE95";
metricLeft = "=o-64";
name = "Black [400‹wg‹700] Apr 7, 23 17:06";
shapes = (
{
closed = 1;
nodes = (
(766,-28,o),
(938,94,o),
(938,300,cs),
(938,474,o),
(818,594,o),
(570,644,cs),
(470,664,ls),
(426,672,o),
(422,680,o),
(422,690,cs),
(422,706,o),
(448,710,o),
(492,710,cs),
(576,710,o),
(634,698,o),
(708,670,c),
(926,932,l),
(846,1010,o),
(678,1060,o),
(518,1060,cs),
(260,1060,o),
(62,922,o),
(62,726,cs),
(62,594,o),
(152,444,o),
(440,388,cs),
(542,368,ls),
(572,362,o),
(584,354,o),
(584,344,cs),
(584,330,o),
(572,322,o),
(514,322,cs),
(410,322,o),
(312,348,o),
(212,398,c),
(-24,114,l),
(78,30,o),
(270,-28,o),
(472,-28,cs)
);
}
);
width = 978;
},
{
associatedMasterId = "94F54C43-8AEE-4ED6-B3C2-2A9D33534E61";
layerId = "0CB2512E-A4D0-4AC6-B8D3-37100BE85BB2";
name = "Apr 7, 23 0:07";
shapes = (
{
attr = {
strokeHeight = 360;
strokeWidth = 376;
};
closed = 0;
nodes = (
(752,754,l),
(708,830,o),
(610,880,o),
(492,880,cs),
(352,880,o),
(238,808,o),
(238,706,cs),
(238,628,o),
(308,572,o),
(458,542,cs),
(524,530,ls),
(704,496,o),
(776,432,o),
(776,342,cs),
(776,212,o),
(632,152,o),
(486,152,cs),
(362,152,o),
(266,196,o),
(184,268,c)
);
}
);
width = 982;
},
{
associatedMasterId = "94F54C43-8AEE-4ED6-B3C2-2A9D33534E61";
layerId = "B7753453-11BD-4851-867F-546E094A8B0C";
name = "Apr 7, 23 0:06";
shapes = (
{
attr = {
strokeHeight = 288;
strokeWidth = 376;
};
closed = 0;
nodes = (
(754,778,l),
(710,860,o),
(612,916,o),
(494,916,cs),
(362,916,o),
(254,836,o),
(254,726,cs),
(252,638,o),
(318,578,o),
(462,546,cs),
(526,532,ls),
(706,494,o),
(754,424,o),
(754,324,cs),
(754,182,o),
(610,116,o),
(464,116,cs),
(340,116,o),
(244,164,o),
(162,242,c)
);
}
);
width = 982;
},
{
associatedMasterId = "94F54C43-8AEE-4ED6-B3C2-2A9D33534E61";
background = {
shapes = (
{
closed = 1;
nodes = (
(762,-28,o),
(992,110,o),
(992,324,cs),
(992,476,o),
(876,612,o),
(560,674,cs),
(488,688,ls),
(396,706,o),
(396,706,o),
(396,726,cs),
(396,770,o),
(400,772,o),
(490,772,cs),
(566,772,o),
(582,764,o),
(616,706,c),
(940,852,l),
(878,956,o),
(702,1060,o),
(490,1060,cs),
(246,1060,o),
(20,924,o),
(20,726,cs),
(20,580,o),
(138,458,o),
(416,406,cs),
(490,392,ls),
(616,368,o),
(616,366,o),
(616,324,cs),
(616,268,o),
(600,260,o),
(482,260,cs),
(400,260,o),
(356,278,o),
(272,352,c),
(26,134,l),
(112,58,o),
(270,-28,o),
(482,-28,cs)
);
},
{
closed = 0;
nodes = (
(28,188,l),
(362,354,l)
);
}
);
};
layerId = "35F88D2A-9EC8-4E6D-B2FB-95487F34E22F";
name = "Apr 7, 23 0:51";
shapes = (
{
closed = 1;
nodes = (
(756,-28,o),
(942,118,o),
(942,318,cs),
(942,492,o),
(808,604,o),
(556,652,cs),
(492,664,ls),
(434,674,o),
(412,688,o),
(412,710,cs),
(412,734,o),
(440,748,o),
(484,748,cs),
(536,748,o),
(590,726,o),
(622,688,c),
(898,862,l),
(828,984,o),
(676,1060,o),
(496,1060,cs),
(246,1060,o),
(74,920,o),
(74,714,cs),
(74,546,o),
(188,458,o),
(420,414,cs),
(484,402,ls),
(574,386,o),
(604,370,o),
(604,344,cs),
(604,316,o),
(564,300,o),
(498,300,cs),
(434,300,o),
(382,320,o),
(348,352,c),
(40,196,l),
(124,54,o),
(286,-28,o),
(486,-28,cs)
);
}
);
width = 982;
},
{
associatedMasterId = "94F54C43-8AEE-4ED6-B3C2-2A9D33534E61";
background = {
shapes = (
{
closed = 1;
nodes = (
(762,-28,o),
(992,110,o),
(992,324,cs),
(992,476,o),
(876,612,o),
(560,674,cs),
(488,688,ls),
(396,706,o),
(396,706,o),
(396,726,cs),
(396,770,o),
(400,772,o),
(490,772,cs),
(566,772,o),
(582,764,o),
(616,706,c),
(940,852,l),
(878,956,o),
(702,1060,o),
(490,1060,cs),
(246,1060,o),
(20,924,o),
(20,726,cs),
(20,580,o),
(138,458,o),
(416,406,cs),
(490,392,ls),
(616,368,o),
(616,366,o),
(616,324,cs),
(616,268,o),
(600,260,o),
(482,260,cs),
(400,260,o),
(356,278,o),
(272,352,c),
(26,134,l),
(112,58,o),
(270,-28,o),
(482,-28,cs)
);
},
{
closed = 0;
nodes = (
(28,188,l),
(362,354,l)
);
}
);
};
layerId = "94F19614-F476-40DA-9096-B60A148280CD";
name = "Apr 7, 23 1:05";
shapes = (
{
closed = 1;
nodes = (
(748,-28,o),
(942,94,o),
(942,302,cs),
(942,476,o),
(808,596,o),
(556,644,cs),
(492,656,ls),
(434,666,o),
(412,680,o),
(412,702,cs),
(412,726,o),
(448,740,o),
(492,740,cs),
(532,740,o),
(590,728,o),
(622,694,c),
(898,876,l),
(828,994,o),
(676,1060,o),
(496,1060,cs),
(246,1060,o),
(74,920,o),
(74,726,cs),
(74,566,o),
(188,458,o),
(420,414,cs),
(484,402,ls),
(548,390,o),
(604,376,o),
(604,342,cs),
(604,308,o),
(548,300,o),
(516,300,cs),
(454,300,o),
(366,326,o),
(320,358,c),
(26,170,l),
(114,50,o),
(328,-28,o),
(504,-28,cs)
);
}
);
width = 982;
},
{
associatedMasterId = "94F54C43-8AEE-4ED6-B3C2-2A9D33534E61";
background = {
shapes = (
{
closed = 1;
nodes = (
(800,-28,o),
(1030,110,o),
(1030,324,cs),
(1030,476,o),
(914,612,o),
(598,674,cs),
(526,688,ls),
(434,706,o),
(434,706,o),
(434,726,cs),
(434,770,o),
(438,772,o),
(528,772,cs),
(604,772,o),
(620,764,o),
(654,706,c),
(978,852,l),
(916,956,o),
(740,1060,o),
(528,1060,cs),
(284,1060,o),
(58,924,o),
(58,726,cs),
(58,580,o),
(176,458,o),
(454,406,cs),
(528,392,ls),
(654,368,o),
(654,366,o),
(654,324,cs),
(654,268,o),
(638,260,o),
(520,260,cs),
(438,260,o),
(394,278,o),
(310,352,c),
(64,134,l),
(150,58,o),
(308,-28,o),
(520,-28,cs)
);
},
{
closed = 0;
nodes = (
(66,188,l),
(400,354,l)
);
}
);
};
layerId = "A66E0075-03B5-4BFE-8567-6C33F4B92A15";
name = "Apr 7, 23 1:08";
shapes = (
{
closed = 1;
nodes = (
(814,-28,o),
(1018,96,o),
(1018,304,cs),
(1018,480,o),
(874,606,o),
(606,648,cs),
(540,658,ls),
(488,666,o),
(470,678,o),
(470,694,cs),
(470,712,o),
(502,720,o),
(538,720,cs),
(570,720,o),
(630,712,o),
(662,682,c),
(972,876,l),
(902,990,o),
(744,1060,o),
(542,1060,cs),
(274,1060,o),
(94,918,o),
(94,722,cs),
(94,554,o),
(222,442,o),
(460,406,cs),
(526,396,ls),
(594,386,o),
(642,374,o),
(642,348,cs),
(642,324,o),
(588,320,o),
(568,320,cs),
(516,320,o),
(420,342,o),
(370,372,c),
(40,174,l),
(128,54,o),
(362,-28,o),
(554,-28,cs)
);
}
);
width = 1058;
},
{
associatedMasterId = "94F54C43-8AEE-4ED6-B3C2-2A9D33534E61";
background = {
shapes = (
{
closed = 0;
nodes = (
(484,440,l),
(26,148,l)
);
}
);
};
layerId = "83405124-FA70-4E4A-994D-30AA05C3D515";
name = "Apr 7, 23 1:43";
shapes = (
{
closed = 1;
nodes = (
(774,-28,o),
(986,58,o),
(986,290,cs),
(986,456,o),
(860,562,o),
(594,618,cs),
(528,632,ls),
(474,644,o),
(458,656,o),
(458,676,cs),
(458,704,o),
(486,716,o),
(526,716,cs),
(576,716,o),
(626,698,o),
(650,670,c),
(960,852,l),
(872,962,o),
(698,1060,o),
(530,1060,cs),
(258,1060,o),
(82,930,o),
(82,734,cs),
(82,566,o),
(210,490,o),
(428,444,cs),
(494,430,ls),
(566,414,o),
(596,402,o),
(596,370,cs),
(596,346,o),
(572,332,o),
(524,332,cs),
(470,332,o),
(394,358,o),
(352,388,c),
(40,200,l),
(120,82,o),
(336,-28,o),
(524,-28,cs)
);
}
);
width = 1026;
},
{
associatedMasterId = "94F54C43-8AEE-4ED6-B3C2-2A9D33534E61";
background = {
shapes = (
{
closed = 1;
nodes = (
(864,1000,o),
(646,1060,o),
(536,1060,qs),
(452,1060,o),
(284,1020,o),
(158,934,o),
(80,802,o),
(80,710,qs),
(80,612,o),
(164,494,o),
(290,430,o),
(436,398,o),
(564,370,o),
(648,330,o),
(648,288,qs),
(648,246,o),
(554,216,o),
(494,216,qs),
(418,216,o),
(304,272,o),
(258,328,q),
(54,110,l),
(134,34,o),
(366,-28,o),
(480,-28,qs),
(568,-28,o),
(748,2,o),
(892,82,o),
(982,214,o),
(982,314,qs),
(982,412,o),
(900,528,o),
(772,598,o),
(628,628,o),
(500,656,o),
(416,694,o),
(416,732,qs),
(416,778,o),
(498,816,o),
(538,816,qs),
(660,816,o),
(734,730,q),
(942,924,l)
);
}
);
};
layerId = "9BD916AC-AE68-4E3B-9543-8D8DE7911900";
name = "Apr 7, 23 10:18";
shapes = (
{
closed = 1;
nodes = (
(774,-28,o),
(986,98,o),
(986,310,cs),
(986,496,o),
(848,590,o),
(594,644,cs),
(528,658,ls),
(474,670,o),
(458,678,o),
(458,696,cs),
(458,718,o),
(486,732,o),
(526,732,cs),
(568,732,o),
(630,718,o),
(672,686,c),
(960,876,l),
(872,986,o),
(698,1060,o),
(530,1060,cs),
(258,1060,o),
(82,926,o),
(82,730,cs),
(82,562,o),
(214,462,o),
(428,416,cs),
(494,402,ls),
(566,386,o),
(596,374,o),
(596,352,cs),
(596,324,o),
(558,318,o),
(524,318,cs),
(470,318,o),
(394,342,o),
(352,372,c),
(40,184,l),
(120,66,o),
(336,-28,o),
(524,-28,cs)
);
}
);
width = 1026;
},
{
associatedMasterId = "94F54C43-8AEE-4ED6-B3C2-2A9D33534E61";
layerId = "8B5C5392-ECC9-4DF4-A162-FBB3BC4E4A62";
name = "Apr 7, 23 11:59";
shapes = (
{
closed = 1;
nodes = (
(804,-28,o),
(980,94,o),
(980,302,cs),
(980,478,o),
(856,582,o),
(578,642,cs),
(504,658,ls),
(434,674,o),
(416,682,o),
(416,696,cs),
(416,716,o),
(448,726,o),
(506,726,cs),
(574,726,o),
(636,712,o),
(706,680,c),
(924,928,l),
(848,1004,o),
(686,1060,o),
(524,1060,cs),
(274,1060,o),
(76,924,o),
(76,728,cs),
(76,566,o),
(212,448,o),
(492,388,cs),
(566,372,ls),
(624,360,o),
(640,350,o),
(640,334,cs),
(640,312,o),
(602,306,o),
(544,306,cs),
(438,306,o),
(368,326,o),
(268,378,c),
(40,118,l),
(134,30,o),
(322,-28,o),
(518,-28,cs)
);
}
);
width = 1020;
},
{
associatedMasterId = "94F54C43-8AEE-4ED6-B3C2-2A9D33534E61";
layerId = "ED70DCD8-7011-4845-95CB-C48020E3114D";
name = "Apr 7, 23 17:06 Original";
shapes = (
{
closed = 1;
nodes = (
(820,-28,o),
(992,94,o),
(992,302,cs),
(992,482,o),
(862,588,o),
(584,644,cs),
(484,664,ls),
(446,672,o),
(432,680,o),
(432,696,cs),
(432,716,o),
(452,730,o),
(508,730,cs),
(580,730,o),
(642,708,o),
(710,670,c),
(936,932,l),
(860,1006,o),
(692,1060,o),
(532,1060,cs),
(274,1060,o),
(76,920,o),
(76,726,cs),
(76,562,o),
(206,446,o),
(494,388,cs),
(594,368,ls),
(622,362,o),
(636,350,o),
(636,334,cs),
(636,316,o),
(618,302,o),
(562,302,cs),
(466,302,o),
(360,342,o),
(278,390,c),
(40,116,l),
(132,30,o),
(324,-28,o),
(526,-28,cs)
);
}
);
width = 1032;
},
{
associatedMasterId = "94F54C43-8AEE-4ED6-B3C2-2A9D33534E61";
layerId = "AA12F6D9-F575-4EAE-B85E-6D3A717A06E1";
name = "Apr 7, 23 13:24 Alternative";
shapes = (
{
closed = 1;
nodes = (
(820,-28,o),
(992,94,o),
(992,302,cs),
(992,482,o),
(862,586,o),
(586,644,cs),
(490,664,ls),
(442,674,o),
(432,680,o),
(432,690,cs),
(432,706,o),
(458,710,o),
(502,710,cs),
(586,710,o),
(642,696,o),
(710,670,c),
(936,932,l),
(860,1006,o),
(692,1060,o),
(532,1060,cs),
(274,1060,o),
(76,920,o),
(76,726,cs),
(76,562,o),
(216,446,o),
(494,388,cs),
(590,368,ls),
(624,360,o),
(636,354,o),
(636,344,cs),
(636,330,o),
(624,322,o),
(566,322,cs),
(462,322,o),
(364,348,o),
(278,390,c),
(40,116,l),
(132,30,o),
(324,-28,o),
(526,-28,cs)
);
}
);
width = 1032;
},
{
associatedMasterId = "94F54C43-8AEE-4ED6-B3C2-2A9D33534E61";
layerId = "50C2F140-A90A-4BD4-AFE4-01A0E3BDA998";
metricLeft = "=o-64";
name = "Apr 16, 23 1:29";
shapes = (
{
closed = 1;
nodes = (
(778,-28,o),
(950,94,o),
(950,300,cs),
(950,474,o),
(830,594,o),
(582,644,cs),
(482,664,ls),
(444,672,o),
(430,680,o),
(430,696,cs),
(430,716,o),
(450,730,o),
(510,730,cs),
(578,730,o),
(640,712,o),
(720,670,c),
(938,932,l),
(858,1010,o),
(690,1060,o),
(530,1060,cs),
(272,1060,o),
(74,922,o),
(74,726,cs),
(74,594,o),
(164,446,o),
(452,388,cs),
(552,368,ls),
(580,362,o),
(594,350,o),
(594,334,cs),
(594,316,o),
(576,302,o),
(518,302,cs),
(424,302,o),
(316,330,o),
(216,388,c),
(-12,114,l),
(90,30,o),
(282,-28,o),
(484,-28,cs)
);
}
);
width = 1002;
},
{
associatedMasterId = "94F54C43-8AEE-4ED6-B3C2-2A9D33534E61";
layerId = "6BB19A9A-8FA0-4618-B57F-074651F4C676";
metricLeft = "=o-32";
name = "Apr 16, 23 1:34";
shapes = (
{
attr = {
strokeHeight = 312;
strokeWidth = 360;
};
closed = 0;
nodes = (
(826,816,l),
(758,858,o),
(650,904,o),
(522,904,cs),
(354,904,o),
(226,828,o),
(226,718,cs),
(226,634,o),
(294,584,o),
(448,548,cs),
(498,538,ls),
(680,494,o),
(750,432,o),
(750,332,cs),
(750,204,o),
(618,128,o),
(444,128,cs),
(304,128,o),
(202,178,o),
(116,232,c)
);
}
);
width = 982;
},
{
associatedMasterId = "94F54C43-8AEE-4ED6-B3C2-2A9D33534E61";
layerId = "99288FB3-B9CC-42D8-A67D-2C3EC46B63E7";
metricLeft = "=o-48";
name = Avenir;
shapes = (
{
closed = 1;
nodes = (
(928,524,o),
(770,616,o),
(610,646,cs),
(552,658,o),
(516,668,o),
(500,674,cs),
(484,682,o),
(476,692,o),
(476,704,cs),
(476,738,o),
(506,746,o),
(550,746,cs),
(614,746,o),
(682,722,o),
(746,682,c),
(954,930,l),
(830,1010,o),
(670,1060,o),
(514,1060,cs),
(324,1060,o),
(70,954,o),
(70,696,cs),
(70,504,o),
(226,420,o),
(354,390,cs),
(412,374,o),
(454,362,o),
(478,354,cs),
(502,344,o),
(514,330,o),
(514,314,cs),
(514,284,o),
(480,274,o),
(450,274,cs),
(374,274,o),
(282,312,o),
(222,368,c),
(4,116,l),
(128,24,o),
(304,-28,o),
(480,-28,cs),
(672,-28,o),
(928,60,o),
(928,332,cs)
);
}
);
width = 1006;
},
{
associatedMasterId = "94F54C43-8AEE-4ED6-B3C2-2A9D33534E61";
background = {
shapes = (
{
attr = {
strokeHeight = 312;
strokeWidth = 360;
};
closed = 0;
nodes = (
(826,816,l),
(758,858,o),
(650,904,o),
(522,904,cs),
(354,904,o),
(226,822,o),
(226,706,cs),
(226,616,o),
(292,556,o),
(448,524,cs),
(498,514,ls),
(682,478,o),
(750,414,o),
(750,320,cs),
(750,188,o),
(618,128,o),
(444,128,cs),
(304,128,o),
(202,178,o),
(116,232,c)
);
},
{
closed = 0;
nodes = (
(474,296,l),
(552,296,o),
(570,314,o),
(570,332,cs),
(570,342,o),
(560,350,o),
(492,364,cs),
(442,374,ls)
);
}
);
};
layerId = "9F11B59C-CF55-4398-A3BF-9602C2B3BA03";
metricLeft = "=o-32";
name = "Apr 16, 23 2:18";
shapes = (
{
closed = 1;
nodes = (
(730,-28,o),
(930,110,o),
(930,320,cs),
(930,496,o),
(794,624,o),
(540,672,cs),
(508,678,ls),
(444,690,o),
(438,700,o),
(438,712,cs),
(438,730,o),
(456,748,o),
(524,748,cs),
(600,748,o),
(668,728,o),
(732,684,c),
(922,950,l),
(804,1018,o),
(662,1060,o),
(522,1060,cs),
(260,1060,o),
(46,912,o),
(46,706,cs),
(46,544,o),
(178,438,o),
(408,380,cs),
(440,372,ls),
(514,354,o),
(538,344,o),
(538,326,cs),
(538,306,o),
(512,292,o),
(448,292,cs),
(372,292,o),
(308,312,o),
(212,364,c),
(20,100,l),
(158,16,o),
(296,-28,o),
(452,-28,cs)
);
}
);
width = 982;
}
);
metricLeft = o;
metricRight = o;
unicode = 115;
},
{
glyphname = t;
kernLeft = f;
kernRight = t;
layers = (
{
.lastUpdate = 704788277.654;
layerId = m01;
shapes = (
{
piece = {
Condensed = 100;
};
ref = _smart.crossbar;
},
{
piece = {
Terminal = 34;
Top = 56;
};
pos = (122,0);
ref = _smart.terminal;
}
);
width = 758;
},
{
.lastUpdate = 704788277.654;
layerId = "94F54C43-8AEE-4ED6-B3C2-2A9D33534E61";
shapes = (
{
piece = {
Condensed = 100;
};
ref = _smart.crossbar;
},
{
piece = {
Top = 58.5;
};
pos = (108,0);
ref = _smart.terminal;
}
);
width = 912;
},
{
associatedMasterId = "94F54C43-8AEE-4ED6-B3C2-2A9D33534E61";
background = {
shapes = (
{
closed = 1;
nodes = (
(518,1338,l),
(234,1338,l),
(234,1204,ls),
(234,1106,o),
(180,1032,o),
(72,1032,cs),
(20,1032,l),
(20,754,l),
(204,754,l),
(204,306,ls),
(204,98,o),
(336,-28,o),
(552,-28,cs),
(654,-28,o),
(706,-6,o),
(718,0,c),
(718,266,l),
(700,260,o),
(668,254,o),
(634,254,cs),
(566,254,o),
(518,278,o),
(518,364,cs),
(518,754,l),
(722,754,l),
(722,1032,l),
(518,1032,l)
);
}
);
};
layerId = "A731C680-10C9-481D-854B-AFFEC7A74D7C";
name = "Apr 4, 23 10:07";
shapes = (
{
closed = 1;
nodes = (
(660,-30,o),
(700,-26,o),
(744,-14,c),
(744,360,l),
(688,354,o),
(656,354,o),
(636,354,cs),
(584,354,o),
(568,372,o),
(568,414,cs),
(568,1240,l),
(184,1240,l),
(184,414,ls),
(184,94,o),
(308,-30,o),
(628,-30,cs)
);
},
{
closed = 1;
nodes = (
(744,704,l),
(744,1032,l),
(32,1032,l),
(32,704,l)
);
}
);
width = 808;
},
{
associatedMasterId = "94F54C43-8AEE-4ED6-B3C2-2A9D33534E61";
background = {
shapes = (
{
closed = 1;
nodes = (
(538,1338,l),
(254,1338,l),
(254,1204,ls),
(254,1106,o),
(200,1032,o),
(92,1032,cs),
(40,1032,l),
(40,754,l),
(224,754,l),
(224,306,ls),
(224,98,o),
(356,-28,o),
(572,-28,cs),
(674,-28,o),
(726,-6,o),
(738,0,c),
(738,266,l),
(720,260,o),
(688,254,o),
(654,254,cs),
(586,254,o),
(538,278,o),
(538,364,cs),
(538,754,l),
(742,754,l),
(742,1032,l),
(538,1032,l)
);
}
);
};
layerId = "910B32F8-207A-431D-AC1A-2308E41714DA";
name = "Apr 4, 23 10:15";
shapes = (
{
closed = 1;
nodes = (
(700,-30,o),
(756,-24,o),
(800,-12,c),
(800,362,l),
(744,356,o),
(706,354,o),
(666,354,cs),
(614,354,o),
(588,378,o),
(588,432,cs),
(588,1240,l),
(204,1240,l),
(204,414,ls),
(204,94,o),
(328,-30,o),
(648,-30,cs)
);
},
{
closed = 1;
nodes = (
(800,720,l),
(800,1032,l),
(32,1032,l),
(32,720,l)
);
}
);
width = 864;
},
{
associatedMasterId = "94F54C43-8AEE-4ED6-B3C2-2A9D33534E61";
layerId = "A27EF441-7831-4AA0-8127-7DC186BDC539";
name = "Apr 4, 23 10:36";
shapes = (
{
closed = 1;
nodes = (
(700,-30,o),
(732,-26,o),
(780,-14,c),
(780,364,l),
(724,356,o),
(678,354,o),
(658,354,cs),
(596,354,o),
(586,374,o),
(586,426,cs),
(586,1240,l),
(202,1240,l),
(202,414,ls),
(202,94,o),
(348,-30,o),
(646,-30,cs)
);
},
{
closed = 1;
nodes = (
(780,720,l),
(780,1032,l),
(32,1032,l),
(32,720,l)
);
}
);
width = 844;
},
{
associatedMasterId = m01;
layerId = "648F66E8-0C7F-475F-902E-1D9D122029B3";
name = "Wanted Logotype";
shapes = (
{
closed = 1;
nodes = (
(222,306,ls),
(222,96,o),
(330,-28,o),
(516,-28,cs),
(580,-28,o),
(644,-16,o),
(686,4,c),
(686,190,l),
(636,166,o),
(592,156,o),
(564,156,cs),
(480,156,o),
(438,204,o),
(438,306,cs),
(438,860,l),
(652,860,l),
(652,1032,l),
(438,1032,l),
(438,1240,l),
(222,1240,l),
(222,1032,l),
(54,1032,l),
(54,860,l),
(222,860,l)
);
}
);
width = 718;
},
{
.lastUpdate = 704788277.654;
annotations = (
{
pos = (596,268);
text = "위에 폭을 더 좁고 위로 올려보자";
type = Text;
}
);
associatedMasterId = m01;
layerId = "BD1AE770-BC05-4FDA-A90B-888A4D44F4F5";
name = "Apr 24, 23 14:48";
shapes = (
{
piece = {
Condensed = 100;
};
ref = _smart.crossbar;
},
{
piece = {
Terminal = 34;
Top = 54;
};
pos = (122,0);
ref = _smart.terminal;
}
);
width = 758;
}
);
metricLeft = f;
metricRight = f;
unicode = 116;
},
{
glyphname = v;
kernLeft = v;
kernRight = v;
layers = (
{
background = {
shapes = (
{
pos = (76,0);
ref = w;
}
);
};
layerId = m01;
shapes = (
{
closed = 1;
nodes = (
(672,0,l),
(1084,1032,l),
(898,1032,l),
(492,0,l)
);
},
{
closed = 1;
nodes = (
(628,0,l),
(222,1032,l),
(36,1032,l),
(448,0,l)
);
}
);
width = 1120;
},
{
background = {
shapes = (
{
pos = (64,0);
ref = w;
}
);
};
layerId = "94F54C43-8AEE-4ED6-B3C2-2A9D33534E61";
metricLeft = "=32";
metricRight = "=32";
shapes = (
{
closed = 1;
nodes = (
(864,0,l),
(1292,1032,l),
(874,1032,l),
(508,0,l)
);
},
{
closed = 1;
nodes = (
(816,0,l),
(450,1032,l),
(32,1032,l),
(460,0,l)
);
}
);
width = 1324;
},
{
associatedMasterId = "94F54C43-8AEE-4ED6-B3C2-2A9D33534E61";
layerId = "69472AD0-5E32-4CEA-8196-BE3E9FCB16F4";
name = "Apr 5, 23 16:59";
shapes = (
{
closed = 1;
nodes = (
(722,0,l),
(434,1032,l),
(32,1032,l),
(378,0,l)
);
},
{
closed = 1;
nodes = (
(1116,1032,l),
(714,1032,l),
(426,0,l),
(770,0,l)
);
}
);
width = 1148;
},
{
associatedMasterId = m01;
layerId = "F846EDF4-11E4-4731-AB82-C9761C8A4B1F";
name = "Apr 5, 23 16:59";
shapes = (
{
closed = 1;
nodes = (
(530,0,l),
(202,1032,l),
(24,1032,l),
(370,0,l)
);
},
{
closed = 1;
nodes = (
(926,1032,l),
(748,1032,l),
(420,0,l),
(580,0,l)
);
}
);
width = 950;
},
{
associatedMasterId = m01;
layerId = "00A0A078-9F6C-44DC-892C-03C486607584";
name = "w single 116.25%";
shapes = (
{
closed = 1;
nodes = (
(600,0,l),
(202,1032,l),
(24,1032,l),
(436,0,l)
);
},
{
closed = 1;
nodes = (
(1072,1032,l),
(894,1032,l),
(496,0,l),
(660,0,l)
);
}
);
width = 1096;
},
{
associatedMasterId = "94F54C43-8AEE-4ED6-B3C2-2A9D33534E61";
layerId = "E6074C35-97E8-48A2-97C4-14B14DB85C80";
name = "w single 116.25%";
shapes = (
{
closed = 1;
nodes = (
(808,0,l),
(434,1032,l),
(32,1032,l),
(460,0,l)
);
},
{
closed = 1;
nodes = (
(1292,1032,l),
(890,1032,l),
(516,0,l),
(864,0,l)
);
}
);
width = 1324;
}
);
unicode = 118;
},
{
glyphname = w;
kernLeft = v;
kernRight = v;
layers = (
{
background = {
shapes = (
{
closed = 1;
nodes = (
(396,0,l),
(610,0,l),
(796,588,l),
(982,0,l),
(1198,0,l),
(1556,1032,l),
(1332,1032,l),
(1092,316,l),
(874,1032,l),
(718,1032,l),
(502,316,l),
(260,1032,l),
(36,1032,l)
);
}
);
};
layerId = m01;
shapes = (
{
closed = 1;
nodes = (
(1232,0,l),
(1578,1032,l),
(1400,1032,l),
(1072,0,l)
);
},
{
closed = 1;
nodes = (
(542,0,l),
(214,1032,l),
(36,1032,l),
(382,0,l)
);
},
{
closed = 1;
nodes = (
(592,0,l),
(870,944,l),
(870,1032,l),
(720,1032,l),
(434,0,l)
);
},
{
closed = 1;
nodes = (
(1180,0,l),
(894,1032,l),
(744,1032,l),
(744,944,l),
(1022,0,l)
);
}
);
width = 1614;
},
{
associatedMasterId = m01;
layerId = "EA8A6715-DDE0-4E24-997A-BB0D8E52BFB3";
name = "Wanted Logotype";
shapes = (
{
closed = 1;
nodes = (
(396,0,l),
(610,0,l),
(796,588,l),
(982,0,l),
(1198,0,l),
(1556,1032,l),
(1332,1032,l),
(1092,316,l),
(874,1032,l),
(718,1032,l),
(502,316,l),
(260,1032,l),
(36,1032,l)
);
}
);
width = 1590;
},
{
associatedMasterId = m01;
background = {
shapes = (
{
closed = 1;
nodes = (
(408,0,l),
(622,0,l),
(808,588,l),
(994,0,l),
(1210,0,l),
(1568,1032,l),
(1344,1032,l),
(1104,316,l),
(886,1032,l),
(730,1032,l),
(514,316,l),
(272,1032,l),
(48,1032,l)
);
}
);
};
layerId = "451FCD1B-B41A-4B2D-87F5-81ACBC583A73";
name = "Apr 4, 23 16:53";
shapes = (
{
closed = 1;
nodes = (
(1232,0,l),
(1578,1032,l),
(1404,1032,l),
(1060,0,l)
);
},
{
closed = 1;
nodes = (
(554,0,l),
(210,1032,l),
(36,1032,l),
(382,0,l)
);
},
{
closed = 1;
nodes = (
(592,0,l),
(938,1032,l),
(764,1032,l),
(420,0,l)
);
},
{
closed = 1;
nodes = (
(1194,0,l),
(850,1032,l),
(676,1032,l),
(1022,0,l)
);
}
);
width = 1614;
},
{
layerId = "94F54C43-8AEE-4ED6-B3C2-2A9D33534E61";
shapes = (
{
closed = 1;
nodes = (
(1408,0,l),
(1754,1032,l),
(1352,1032,l),
(1064,0,l)
);
},
{
closed = 1;
nodes = (
(722,0,l),
(434,1032,l),
(32,1032,l),
(378,0,l)
);
},
{
closed = 1;
nodes = (
(770,0,l),
(906,584,l),
(964,1032,l),
(720,1032,l),
(474,0,l)
);
},
{
closed = 1;
nodes = (
(1312,0,l),
(1066,1032,l),
(822,1032,l),
(880,584,l),
(1016,0,l)
);
}
);
width = 1786;
},
{
associatedMasterId = "94F54C43-8AEE-4ED6-B3C2-2A9D33534E61";
layerId = "356333F9-96DF-4ABB-9D8A-362A0826EB37";
name = "Apr 4, 23 17:18";
shapes = (
{
closed = 1;
nodes = (
(1400,0,l),
(1746,1032,l),
(1352,1032,l),
(1008,0,l)
);
},
{
closed = 1;
nodes = (
(762,0,l),
(418,1032,l),
(24,1032,l),
(370,0,l)
);
},
{
closed = 1;
nodes = (
(800,0,l),
(1146,1032,l),
(752,1032,l),
(408,0,l)
);
},
{
closed = 1;
nodes = (
(1362,0,l),
(1018,1032,l),
(624,1032,l),
(970,0,l)
);
}
);
width = 1770;
}
);
metricLeft = v;
metricRight = v;
unicode = 119;
},
{
glyphname = x;
kernLeft = x;
kernRight = x;
layers = (
{
background = {
shapes = (
{
pos = (-38,0);
ref = e;
},
{
closed = 0;
nodes = (
(8,524,l),
(1078,524,l)
);
}
);
};
layerId = m01;
shapes = (
{
closed = 1;
nodes = (
(241,0,l),
(506,388,l),
(769,0,l),
(975,0,l),
(616,516,l),
(975,1032,l),
(769,1032,l),
(506,646,l),
(241,1032,l),
(35,1032,l),
(394,516,l),
(35,0,l)
);
}
);
width = 1012;
},
{
background = {
shapes = (
{
pos = (48,0);
ref = e;
},
{
closed = 0;
nodes = (
(-128,516,l),
(1272,516,l)
);
}
);
};
layerId = "94F54C43-8AEE-4ED6-B3C2-2A9D33534E61";
shapes = (
{
closed = 1;
nodes = (
(499,0,l),
(632,220,l),
(765,0,l),
(1231,0,l),
(882,516,l),
(1233,1032,l),
(767,1032,l),
(632,810,l),
(497,1032,l),
(31,1032,l),
(384,516,l),
(33,0,l)
);
}
);
width = 1266;
},
{
annotations = (
{
pos = (584.322,1193.76);
text = "e 중심 다시 맞춰야 함";
type = Text;
}
);
associatedMasterId = m01;
background = {
shapes = (
{
pos = (-38,0);
ref = e;
},
{
closed = 0;
nodes = (
(8,540,l),
(1078,540,l)
);
}
);
};
layerId = "684FC7E5-D2DF-4F90-830A-A333F0669BA8";
name = "Apr 14, 23 14:53";
shapes = (
{
attr = {
lineCapEnd = "4";
lineCapStart = "4";
strokeWidth = 168;
};
closed = 0;
nodes = (
(138,1032,l),
(872,0,l)
);
},
{
attr = {
lineCapEnd = "4";
lineCapStart = "4";
strokeWidth = 168;
};
closed = 0;
nodes = (
(872,1032,l),
(138,0,l)
);
}
);
width = 1012;
},
{
associatedMasterId = "94F54C43-8AEE-4ED6-B3C2-2A9D33534E61";
background = {
shapes = (
{
pos = (48,0);
ref = e;
},
{
closed = 0;
nodes = (
(-128,512,l),
(1272,512,l)
);
}
);
};
layerId = "21585E0C-C360-45B6-AAA6-CE9AB5B67CBF";
name = "Apr 14, 23 14:54";
shapes = (
{
attr = {
lineCapEnd = "4";
lineCapStart = "4";
strokeWidth = 380;
};
closed = 0;
nodes = (
(264,1032,l),
(998,0,l)
);
},
{
attr = {
lineCapEnd = "4";
lineCapStart = "4";
strokeWidth = 380;
};
closed = 0;
nodes = (
(1000,1032,l),
(266,0,l)
);
}
);
width = 1266;
},
{
associatedMasterId = m01;
background = {
shapes = (
{
pos = (-38,0);
ref = e;
},
{
closed = 0;
nodes = (
(8,540,l),
(1078,540,l)
);
}
);
};
layerId = "721E968B-CDA1-4D97-8E64-579442B02DA3";
name = "Apr 14, 23 15:11";
shapes = (
{
closed = 1;
nodes = (
(241,0,l),
(506,388,l),
(769,0,l),
(975,0,l),
(608,516,l),
(975,1032,l),
(769,1032,l),
(506,646,l),
(241,1032,l),
(35,1032,l),
(402,516,l),
(35,0,l)
);
}
);
width = 1012;
},
{
associatedMasterId = "94F54C43-8AEE-4ED6-B3C2-2A9D33534E61";
background = {
shapes = (
{
pos = (48,0);
ref = e;
},
{
closed = 0;
nodes = (
(-128,512,l),
(1272,512,l)
);
}
);
};
layerId = "F9FD008E-1AD4-454A-A6D1-5FCBC22AEBFD";
name = "Apr 14, 23 15:11";
shapes = (
{
closed = 1;
nodes = (
(499,0,l),
(632,220,l),
(765,0,l),
(1231,0,l),
(865,515,l),
(1233,1032,l),
(767,1032,l),
(632,810,l),
(497,1032,l),
(31,1032,l),
(399,515,l),
(33,0,l)
);
}
);
width = 1266;
},
{
associatedMasterId = "94F54C43-8AEE-4ED6-B3C2-2A9D33534E61";
background = {
shapes = (
{
pos = (48,0);
ref = e;
},
{
closed = 0;
nodes = (
(-128,512,l),
(1272,512,l)
);
}
);
};
layerId = "C9ADE4D1-7537-453B-ABFB-0F7C4504D193";
name = "Apr 15, 23 2:44";
shapes = (
{
closed = 1;
nodes = (
(499,0,l),
(632,220,l),
(765,0,l),
(1231,0,l),
(882,516,l),
(1233,1032,l),
(767,1032,l),
(632,810,l),
(497,1032,l),
(31,1032,l),
(384,516,l),
(33,0,l)
);
}
);
width = 1266;
},
{
associatedMasterId = m01;
background = {
shapes = (
{
pos = (-38,0);
ref = e;
},
{
closed = 0;
nodes = (
(8,540,l),
(1078,540,l)
);
}
);
};
layerId = "14BFE5A5-655D-4094-8D19-905D427948FB";
name = "Apr 15, 23 2:44";
shapes = (
{
closed = 1;
nodes = (
(241,0,l),
(506,388,l),
(769,0,l),
(975,0,l),
(616,516,l),
(975,1032,l),
(769,1032,l),
(506,646,l),
(241,1032,l),
(35,1032,l),
(394,516,l),
(35,0,l)
);
}
);
width = 1012;
}
);
metricLeft = v;
metricRight = v;
unicode = 120;
},
{
glyphname = y;
kernLeft = v;
kernRight = v;
layers = (
{
background = {
shapes = (
{
closed = 1;
nodes = (
(670,0,l),
(1082,1032,l),
(896,1032,l),
(490,0,l)
);
},
{
closed = 1;
nodes = (
(222,1032,l),
(36,1032,l),
(448,0,l),
(628,0,l)
);
}
);
};
layerId = m01;
shapes = (
{
closed = 1;
nodes = (
(668,0,l),
(222,1032,l),
(36,1032,l),
(488,0,l)
);
},
{
closed = 1;
nodes = (
(316,-432,l),
(502,-432,l),
(1084,1032,l),
(898,1032,l),
(576,214,l),
(488,0,l)
);
}
);
width = 1120;
},
{
background = {
shapes = (
{
closed = 1;
nodes = (
(864,0,l),
(1292,1032,l),
(874,1032,l),
(508,0,l)
);
},
{
closed = 1;
nodes = (
(450,1032,l),
(32,1032,l),
(460,0,l),
(816,0,l)
);
}
);
};
layerId = "94F54C43-8AEE-4ED6-B3C2-2A9D33534E61";
shapes = (
{
closed = 1;
nodes = (
(802,0,l),
(450,1032,l),
(32,1032,l),
(446,0,l)
);
},
{
closed = 1;
nodes = (
(268,-432,l),
(686,-432,l),
(1292,1032,l),
(874,1032,l),
(658,422,l),
(446,0,l)
);
}
);
width = 1324;
},
{
associatedMasterId = m01;
background = {
shapes = (
{
attr = {
lineCapEnd = "4";
strokeWidth = 172;
};
closed = 0;
nodes = (
(326,1032,l),
(326,-140,ls),
(326,-286,o),
(250,-376,o),
(104,-376,cs),
(68,-376,o),
(12,-368,o),
(-24,-360,c)
);
}
);
};
layerId = "5CE17A5F-23CB-4B1B-A777-F613A191D34D";
name = "Apr 7, 23 15:37";
shapes = (
{
closed = 1;
nodes = (
(304,-462,o),
(412,-346,o),
(412,-140,cs),
(412,1032,l),
(240,1032,l),
(240,-140,ls),
(240,-250,o),
(190,-290,o),
(104,-290,cs),
(70,-290,o),
(26,-284,o),
(-24,-272,c),
(-24,-444,l),
(14,-454,o),
(54,-462,o),
(104,-462,cs)
);
}
);
width = 532;
},
{
associatedMasterId = "94F54C43-8AEE-4ED6-B3C2-2A9D33534E61";
background = {
shapes = (
{
attr = {
lineCapEnd = "4";
strokeWidth = 384;
};
closed = 0;
nodes = (
(348,1032,l),
(348,22,ls),
(348,-166,o),
(232,-270,o),
(32,-270,cs),
(-8,-270,o),
(-50,-266,o),
(-104,-256,c)
);
}
);
};
layerId = "7FE56D03-3ACC-414B-8FC6-6A139CA2FCE6";
name = "Apr 7, 23 15:37";
shapes = (
{
closed = 1;
nodes = (
(404,-462,o),
(540,-320,o),
(540,0,cs),
(540,1032,l),
(156,1032,l),
(156,0,ls),
(156,-54,o),
(132,-78,o),
(48,-78,cs),
(24,-78,o),
(-10,-76,o),
(-56,-70,c),
(-56,-444,l),
(-12,-456,o),
(32,-462,o),
(96,-462,cs)
);
}
);
width = 636;
},
{
associatedMasterId = m01;
background = {
shapes = (
{
closed = 1;
nodes = (
(880,1032,l),
(586,258,l),
(582,258,l),
(276,1032,l),
(82,1032,l),
(494,38,l),
(426,-148,ls),
(398,-222,o),
(322,-312,o),
(242,-312,qs),
(206,-312,o),
(152,-304,o),
(126,-292,q),
(106,-438,l),
(138,-454,o),
(218,-462,o),
(252,-462,qs),
(326,-462,o),
(430,-422,o),
(504,-348,o),
(556,-246,o),
(582,-182,qs),
(1060,1032,l)
);
}
);
};
layerId = "C2761916-1B0C-46EA-8DBD-809B21BA795C";
name = "Apr 7, 23 15:49";
shapes = (
{
ref = v;
},
{
attr = {
lineCapStart = 4;
strokeWidth = 172;
};
closed = 0;
nodes = (
(978,1032,l),
(512,-140,ls),
(454,-284,o),
(406,-376,o),
(290,-376,cs),
(242,-376,o),
(208,-376,o),
(116,-364,c)
);
}
);
width = 1096;
},
{
associatedMasterId = "94F54C43-8AEE-4ED6-B3C2-2A9D33534E61";
layerId = "0014DF88-5DA7-46F9-BE6F-76859675B8C3";
name = "Apr 7, 23 15:52";
shapes = (
{
ref = v;
},
{
attr = {
lineCapStart = 4;
strokeWidth = 384;
};
closed = 0;
nodes = (
(1084,1032,l),
(664,22,ls),
(590,-154,o),
(548,-270,o),
(348,-270,cs),
(308,-270,o),
(266,-266,o),
(212,-256,c)
);
}
);
width = 1324;
}
);
metricLeft = v;
metricRight = v;
unicode = 121;
},
{
glyphname = z;
kernLeft = z;
kernRight = z;
layers = (
{
layerId = m01;
metricLeft = "=n*.754";
metricRight = "=|";
shapes = (
{
closed = 1;
nodes = (
(692,872,l),
(908,872,l),
(908,1032,l),
(108,1032,l),
(108,872,l)
);
},
{
closed = 1;
nodes = (
(316,160,l),
(908,872,l),
(692,872,l),
(100,160,l)
);
},
{
closed = 1;
nodes = (
(924,0,l),
(924,160,l),
(316,160,l),
(100,160,l),
(100,0,l)
);
}
);
width = 1024;
},
{
associatedMasterId = m01;
layerId = "9C62BA86-21AC-4BCF-8BEE-D292797B60A1";
metricLeft = "=n*.75";
metricRight = "=|z";
name = "Apr 7, 23 16:12";
shapes = (
{
closed = 1;
nodes = (
(306,160,l),
(914,872,l),
(698,872,l),
(90,160,l)
);
},
{
closed = 1;
nodes = (
(914,0,l),
(914,160,l),
(90,160,l),
(90,0,l)
);
},
{
closed = 1;
nodes = (
(914,872,l),
(914,1032,l),
(90,1032,l),
(90,872,l)
);
}
);
width = 1004;
},
{
associatedMasterId = "94F54C43-8AEE-4ED6-B3C2-2A9D33534E61";
layerId = "11B2848C-3898-4525-8C8E-84890764F995";
metricRight = "=|z";
name = "Apr 7, 23 16:17";
shapes = (
{
closed = 1;
nodes = (
(576,328,l),
(992,704,l),
(512,704,l),
(96,328,l)
);
},
{
closed = 1;
nodes = (
(992,0,l),
(992,328,l),
(96,328,l),
(96,0,l)
);
},
{
closed = 1;
nodes = (
(992,704,l),
(992,1032,l),
(96,1032,l),
(96,704,l)
);
}
);
width = 1088;
},
{
associatedMasterId = "94F54C43-8AEE-4ED6-B3C2-2A9D33534E61";
layerId = "A3A39C15-DFA7-4C55-9B6C-F9C1E693BCAE";
metricRight = "=|z";
name = "Apr 7, 23 17:01";
shapes = (
{
closed = 1;
nodes = (
(496,696,l),
(1024,672,l),
(1024,1032,l),
(108,1032,l),
(108,696,l)
);
},
{
closed = 1;
nodes = (
(624,336,l),
(1024,672,l),
(496,696,l),
(96,360,l)
);
},
{
closed = 1;
nodes = (
(1040,0,l),
(1040,336,l),
(624,336,l),
(96,360,l),
(96,0,l)
);
}
);
width = 1136;
},
{
layerId = "94F54C43-8AEE-4ED6-B3C2-2A9D33534E61";
metricRight = "=|";
name = Black;
shapes = (
{
closed = 1;
nodes = (
(490,680,l),
(1036,696,l),
(1036,1032,l),
(116,1032,l),
(116,680,l)
);
},
{
closed = 1;
nodes = (
(636,352,l),
(1036,696,l),
(490,680,l),
(108,352,l)
);
},
{
closed = 1;
nodes = (
(1052,0,l),
(1052,352,l),
(636,352,l),
(108,352,l),
(108,0,l)
);
}
);
width = 1160;
}
);
metricLeft = n;
metricRight = "||z";
unicode = 122;
},
{
glyphname = a.cv03;
kernLeft = g;
kernRight = n;
layers = (
{
annotations = (
{
pos = (1350,918);
type = Text;
}
);
associatedMasterId = m01;
layerId = "F8BBB99F-8C92-40C0-96A8-F71EFC2895E8";
name = "San Francisco";
shapes = (
{
closed = 1;
nodes = (
(560,-28,o),
(686,46,o),
(746,162,c),
(752,162,l),
(752,-8,l),
(926,-8,l),
(926,716,ls),
(926,926,o),
(770,1060,o),
(524,1060,cs),
(372,1060,o),
(134,998,o),
(110,738,c),
(280,738,l),
(310,884,o),
(442,904,o),
(522,904,cs),
(668,904,o),
(752,828,o),
(752,700,cs),
(752,390,ls),
(752,238,o),
(624,124,o),
(458,124,cs),
(332,124,o),
(250,188,o),
(250,288,cs),
(250,440,o),
(418,456,o),
(470,458,cs),
(838,480,l),
(838,616,l),
(450,594,ls),
(340,588,o),
(72,550,o),
(72,288,cs),
(72,98,o),
(212,-28,o),
(420,-28,cs)
);
}
);
width = 1034;
},
{
associatedMasterId = "94F54C43-8AEE-4ED6-B3C2-2A9D33534E61";
layerId = "0D69FAFF-005E-4BC9-B099-AAEDEDA88CB3";
name = "San Francisco";
shapes = (
{
closed = 1;
nodes = (
(530,-28,o),
(626,28,o),
(686,128,c),
(694,128,l),
(694,-14,l),
(1084,-14,l),
(1084,700,ls),
(1084,948,o),
(842,1060,o),
(596,1060,cs),
(422,1060,o),
(116,1012,o),
(90,694,c),
(440,694,l),
(456,776,o),
(536,780,o),
(574,780,cs),
(654,780,o),
(694,742,o),
(694,682,cs),
(694,354,ls),
(694,288,o),
(632,234,o),
(536,234,cs),
(464,234,o),
(418,264,o),
(418,320,cs),
(418,372,o),
(454,406,o),
(538,410,cs),
(902,436,l),
(902,654,l),
(472,624,ls),
(192,606,o),
(36,494,o),
(36,290,cs),
(36,100,o),
(192,-28,o),
(394,-28,cs)
);
}
);
width = 1162;
},
{
associatedMasterId = m01;
layerId = "5266B4DF-E161-412B-8888-2D06F5AE8EAC";
name = "Apr 21, 23 0:49";
shapes = (
{
attr = {
strokeHeight = 164;
strokeWidth = 172;
};
closed = 0;
nodes = (
(152,832,l),
(222,898,o),
(326,978,o),
(500,978,cs),
(738,978,o),
(884,824,o),
(884,562,cs),
(884,0,l)
);
},
{
attr = {
strokeHeight = 164;
strokeWidth = 176;
};
closed = 1;
nodes = (
(548,54,o),
(652,152,o),
(652,284,cs),
(652,416,o),
(548,514,o),
(412,514,cs),
(276,514,o),
(172,416,o),
(172,284,cs),
(172,152,o),
(276,54,o),
(412,54,cs)
);
}
);
width = 1102;
},
{
associatedMasterId = "94F54C43-8AEE-4ED6-B3C2-2A9D33534E61";
background = {
shapes = (
{
attr = {
strokeHeight = 320;
strokeWidth = 376;
};
closed = 0;
nodes = (
(260,716,l),
(292,840,o),
(388,900,o),
(538,900,cs),
(736,900,o),
(868,798,o),
(868,638,cs),
(868,0,l)
);
},
{
attr = {
strokeHeight = 320;
strokeWidth = 376;
};
closed = 0;
nodes = (
(868,382,ls),
(868,236,o),
(738,132,o),
(522,132,cs),
(344,132,o),
(240,200,o),
(240,302,cs),
(240,406,o),
(348,470,o),
(522,478,cs),
(868,492,l)
);
}
);
};
layerId = "994F1447-F4FF-4F95-8425-AB9AA9807103";
name = "Apr 21, 23 1:52";
shapes = (
{
closed = 1;
nodes = (
(612,-28,o),
(760,142,o),
(760,380,c),
(680,380,l),
(680,288,o),
(622,228,o),
(532,228,cs),
(468,228,o),
(428,262,o),
(428,314,cs),
(428,364,o),
(470,394,o),
(542,400,cs),
(868,426,l),
(868,646,l),
(510,632,ls),
(234,622,o),
(52,490,o),
(52,290,cs),
(52,106,o),
(196,-28,o),
(392,-28,cs)
);
},
{
closed = 1;
nodes = (
(448,724,o),
(492,756,o),
(554,756,cs),
(632,756,o),
(680,708,o),
(680,636,cs),
(680,0,l),
(1056,0,l),
(1056,604,ls),
(1056,884,o),
(856,1060,o),
(554,1060,cs),
(284,1060,o),
(122,918,o),
(78,756,c),
(440,676,l)
);
}
);
width = 1164;
},
{
associatedMasterId = m01;
background = {
shapes = (
{
attr = {
strokeHeight = 164;
strokeWidth = 176;
};
closed = 0;
nodes = (
(174,832,l),
(236,898,o),
(320,978,o),
(494,978,cs),
(708,978,o),
(832,856,o),
(832,638,cs),
(832,0,l)
);
},
{
attr = {
strokeHeight = 164;
strokeWidth = 176;
};
closed = 0;
nodes = (
(832,412,l),
(832,202,o),
(698,54,o),
(468,54,cs),
(284,54,o),
(172,152,o),
(172,300,cs),
(172,450,o),
(286,538,o),
(468,548,cs),
(832,570,l)
);
}
);
};
layerId = "44F75CE9-7592-4BAC-A028-8BE7B5D275DB";
name = "Apr 21, 23 1:56";
shapes = (
{
closed = 1;
nodes = (
(640,-28,o),
(816,162,o),
(816,406,c),
(744,406,l),
(744,240,o),
(638,136,o),
(468,136,cs),
(340,136,o),
(260,194,o),
(260,296,cs),
(260,402,o),
(348,474,o),
(490,482,cs),
(832,500,l),
(832,644,l),
(480,632,ls),
(248,624,o),
(84,488,o),
(84,296,cs),
(84,114,o),
(230,-28,o),
(420,-28,cs)
);
},
{
closed = 1;
nodes = (
(920,604,ls),
(920,896,o),
(764,1060,o),
(494,1060,cs),
(278,1060,o),
(173,955,o),
(110,888,c),
(238,776,l),
(299,841,o),
(360,896,o),
(494,896,cs),
(660,896,o),
(744,812,o),
(744,638,cs),
(744,0,l),
(920,0,l)
);
}
);
width = 1052;
},
{
background = {
shapes = (
{
attr = {
strokeHeight = 164;
strokeWidth = 176;
};
closed = 0;
nodes = (
(174,832,l),
(236,898,o),
(320,978,o),
(494,978,cs),
(708,978,o),
(832,856,o),
(832,638,cs),
(832,0,l)
);
},
{
attr = {
strokeHeight = 164;
strokeWidth = 176;
};
closed = 0;
nodes = (
(832,412,l),
(832,202,o),
(698,54,o),
(468,54,cs),
(284,54,o),
(172,152,o),
(172,300,cs),
(172,450,o),
(286,538,o),
(468,548,cs),
(832,570,l)
);
}
);
};
layerId = m01;
name = Regular;
shapes = (
{
closed = 1;
nodes = (
(920,0,l),
(920,604,ls),
(920,896,o),
(764,1060,o),
(494,1060,cs),
(278,1060,o),
(173,955,o),
(110,888,c),
(238,776,l),
(299,841,o),
(360,896,o),
(494,896,cs),
(660,896,o),
(744,812,o),
(744,638,cs),
(744,0,l)
);
},
{
closed = 1;
nodes = (
(640,-28,o),
(816,162,o),
(816,406,c),
(744,406,l),
(744,240,o),
(638,136,o),
(468,136,cs),
(340,136,o),
(260,194,o),
(260,296,cs),
(260,402,o),
(348,474,o),
(490,482,cs),
(832,500,l),
(832,644,l),
(480,632,ls),
(248,624,o),
(84,488,o),
(84,296,cs),
(84,114,o),
(230,-28,o),
(420,-28,cs)
);
}
);
width = 1052;
},
{
associatedMasterId = "94F54C43-8AEE-4ED6-B3C2-2A9D33534E61";
background = {
shapes = (
{
attr = {
strokeHeight = 320;
strokeWidth = 376;
};
closed = 0;
nodes = (
(284,716,l),
(316,840,o),
(412,900,o),
(582,900,cs),
(786,900,o),
(892,814,o),
(892,638,cs),
(892,0,l)
);
},
{
attr = {
strokeHeight = 320;
strokeWidth = 376;
};
closed = 0;
nodes = (
(892,382,ls),
(892,236,o),
(762,132,o),
(546,132,cs),
(368,132,o),
(264,200,o),
(264,302,cs),
(264,406,o),
(372,470,o),
(546,478,cs),
(892,492,l)
);
}
);
};
layerId = "695B08D6-3ADF-4E4B-8313-711421B5B5F7";
name = "Apr 21, 23 2:01";
shapes = (
{
closed = 1;
nodes = (
(1080,0,l),
(1080,620,ls),
(1080,904,o),
(894,1060,o),
(578,1060,cs),
(324,1060,o),
(154,950,o),
(102,756,c),
(464,676,l),
(472,724,o),
(516,756,o),
(578,756,cs),
(656,756,o),
(700,708,o),
(700,636,cs),
(704,0,l)
);
},
{
closed = 1;
nodes = (
(628,-28,o),
(784,142,o),
(784,380,c),
(704,380,l),
(704,288,o),
(644,226,o),
(556,226,cs),
(490,226,o),
(452,262,o),
(452,314,cs),
(452,368,o),
(494,396,o),
(566,402,cs),
(892,426,l),
(892,646,l),
(524,632,ls),
(240,622,o),
(52,490,o),
(52,290,cs),
(52,106,o),
(206,-28,o),
(404,-28,cs)
);
}
);
width = 1188;
},
{
background = {
shapes = (
{
attr = {
strokeHeight = 320;
strokeWidth = 376;
};
closed = 0;
nodes = (
(284,716,l),
(316,840,o),
(412,900,o),
(582,900,cs),
(786,900,o),
(892,814,o),
(892,638,cs),
(892,0,l)
);
},
{
attr = {
strokeHeight = 320;
strokeWidth = 376;
};
closed = 0;
nodes = (
(892,382,ls),
(892,236,o),
(762,132,o),
(546,132,cs),
(368,132,o),
(264,200,o),
(264,302,cs),
(264,406,o),
(372,470,o),
(546,478,cs),
(892,492,l)
);
}
);
};
layerId = "94F54C43-8AEE-4ED6-B3C2-2A9D33534E61";
name = Black;
shapes = (
{
closed = 1;
nodes = (
(1080,0,l),
(1080,620,ls),
(1080,904,o),
(894,1060,o),
(578,1060,cs),
(324,1060,o),
(154,950,o),
(102,756,c),
(464,676,l),
(472,724,o),
(516,756,o),
(578,756,cs),
(656,756,o),
(700,708,o),
(700,636,cs),
(704,0,l)
);
},
{
closed = 1;
nodes = (
(628,-28,o),
(784,142,o),
(784,380,c),
(704,380,l),
(704,288,o),
(644,226,o),
(556,226,cs),
(490,226,o),
(452,262,o),
(452,314,cs),
(452,368,o),
(494,396,o),
(566,402,cs),
(892,426,l),
(892,646,l),
(524,632,ls),
(240,622,o),
(52,490,o),
(52,290,cs),
(52,106,o),
(206,-28,o),
(404,-28,cs)
);
}
);
width = 1188;
}
);
metricLeft = o;
metricRight = n;
},
{
glyphname = u.cv04;
kernLeft = u;
kernRight = u.cv04;
layers = (
{
background = {
shapes = (
{
angle = 180;
pos = (1084,1032);
ref = n;
}
);
};
layerId = m01;
metricRight = "=|";
shapes = (
{
closed = 1;
nodes = (
(794,-28,o),
(976,146,o),
(976,426,cs),
(976,1032,l),
(804,1032,l),
(804,426,ls),
(804,242,o),
(700,136,o),
(554,136,cs),
(408,136,o),
(304,242,o),
(304,426,cs),
(304,1032,l),
(132,1032,l),
(132,426,ls),
(132,146,o),
(314,-28,o),
(554,-28,cs)
);
}
);
width = 1108;
},
{
background = {
shapes = (
{
angle = 180;
pos = (1278,1032);
ref = n;
}
);
};
layerId = "94F54C43-8AEE-4ED6-B3C2-2A9D33534E61";
metricRight = "=|";
shapes = (
{
closed = 1;
nodes = (
(960,-28,o),
(1194,198,o),
(1194,556,cs),
(1194,1032,l),
(810,1032,l),
(810,556,ls),
(810,398,o),
(744,332,o),
(650,332,cs),
(556,332,o),
(492,398,o),
(492,556,cs),
(492,1032,l),
(108,1032,l),
(108,556,ls),
(108,198,o),
(340,-28,o),
(650,-28,cs)
);
}
);
width = 1302;
},
{
associatedMasterId = m01;
background = {
shapes = (
{
angle = 180;
pos = (1070,1032);
ref = n;
}
);
};
layerId = "E94DD400-4003-460D-8400-D6CD81201B39";
name = "Apr 5, 23 16:24";
shapes = (
{
closed = 1;
nodes = (
(768,-28,o),
(950,158,o),
(950,406,cs),
(950,1032,l),
(778,1032,l),
(778,406,ls),
(778,248,o),
(674,136,o),
(528,136,cs),
(382,136,o),
(278,248,o),
(278,406,cs),
(278,1032,l),
(106,1032,l),
(106,406,ls),
(106,158,o),
(288,-28,o),
(528,-28,cs)
);
}
);
width = 1070;
},
{
associatedMasterId = "94F54C43-8AEE-4ED6-B3C2-2A9D33534E61";
background = {
shapes = (
{
angle = 180;
pos = (1264,1032);
ref = n;
}
);
};
layerId = "50B7E2D9-E2F7-435F-84A6-291864473EBE";
name = "Apr 5, 23 16:24";
shapes = (
{
closed = 1;
nodes = (
(934,-28,o),
(1168,206,o),
(1168,516,cs),
(1168,1032,l),
(784,1032,l),
(784,516,ls),
(784,408,o),
(718,332,o),
(624,332,cs),
(530,332,o),
(466,408,o),
(466,516,cs),
(466,1032,l),
(82,1032,l),
(82,516,ls),
(82,206,o),
(314,-28,o),
(624,-28,cs)
);
}
);
width = 1264;
}
);
metricLeft = idotless;
},
{
glyphname = zero;
kernLeft = O;
kernRight = O;
layers = (
{
background = {
shapes = (
{
attr = {
strokeHeight = 168;
strokeWidth = 180;
};
closed = 1;
nodes = (
(914,56,o),
(1086,314,o),
(1086,724,cs),
(1086,1134,o),
(914,1392,o),
(640,1392,cs),
(366,1392,o),
(194,1134,o),
(194,724,cs),
(194,314,o),
(366,56,o),
(640,56,cs)
);
}
);
};
layerId = m01;
metricLeft = "=O*1.13";
metricRight = "=|";
name = Regular;
shapes = (
{
closed = 1;
nodes = (
(970,-28,o),
(1176,262,o),
(1176,724,cs),
(1176,1186,o),
(970,1476,o),
(640,1476,cs),
(310,1476,o),
(104,1186,o),
(104,724,cs),
(104,262,o),
(310,-28,o),
(640,-28,cs)
);
},
{
closed = 1;
nodes = (
(422,140,o),
(284,366,o),
(284,724,cs),
(284,1082,o),
(422,1308,o),
(640,1308,cs),
(858,1308,o),
(996,1082,o),
(996,724,cs),
(996,366,o),
(858,140,o),
(640,140,cs)
);
}
);
width = 1280;
},
{
associatedMasterId = m01;
layerId = "02C49471-4085-4A0F-9CDA-008DE671DF57";
name = "100%";
shapes = (
{
attr = {
strokeHeight = 168;
strokeWidth = 180;
};
closed = 1;
nodes = (
(1224,56,o),
(1506,342,o),
(1506,724,cs),
(1506,1106,o),
(1224,1392,o),
(844,1392,cs),
(464,1392,o),
(182,1106,o),
(182,724,cs),
(182,342,o),
(464,56,o),
(844,56,cs)
);
}
);
width = 1688;
},
{
associatedMasterId = m01;
layerId = "F0127859-3043-4123-8F5E-E1CE79482361";
metricLeft = "=O*1.13";
metricRight = "=|zero";
name = "67.5%";
shapes = (
{
attr = {
strokeHeight = 168;
strokeWidth = 180;
};
closed = 1;
nodes = (
(914,56,o),
(1086,314,o),
(1086,724,cs),
(1086,1134,o),
(914,1392,o),
(640,1392,cs),
(366,1392,o),
(194,1134,o),
(194,724,cs),
(194,314,o),
(366,56,o),
(640,56,cs)
);
}
);
width = 1280;
},
{
associatedMasterId = m01;
layerId = "9A261A80-C389-4746-8B74-9E1715A651C9";
metricLeft = "=O*1.13";
metricRight = "=|zero";
name = "San Francisco";
shapes = (
{
closed = 1;
nodes = (
(1014,-24,o),
(1164,336,o),
(1164,722,cs),
(1164,724,ls),
(1164,1108,o),
(1014,1468,o),
(632,1468,cs),
(248,1468,o),
(104,1104,o),
(104,724,cs),
(104,722,ls),
(104,338,o),
(252,-24,o),
(632,-24,cs)
);
},
{
closed = 1;
nodes = (
(364,134,o),
(284,448,o),
(284,722,cs),
(284,724,ls),
(284,1004,o),
(370,1310,o),
(632,1310,cs),
(902,1310,o),
(982,994,o),
(982,724,cs),
(982,722,ls),
(982,438,o),
(896,134,o),
(632,134,cs)
);
}
);
width = 1268;
},
{
background = {
shapes = (
{
attr = {
strokeHeight = 384;
strokeWidth = 404;
};
closed = 1;
nodes = (
(994,164,o),
(1166,380,o),
(1166,724,cs),
(1166,1068,o),
(994,1284,o),
(720,1284,cs),
(446,1284,o),
(274,1068,o),
(274,724,cs),
(274,380,o),
(446,164,o),
(720,164,cs)
);
}
);
};
layerId = "94F54C43-8AEE-4ED6-B3C2-2A9D33534E61";
metricLeft = "=O*1.2";
metricRight = "=|";
shapes = (
{
closed = 1;
nodes = (
(1118,-28,o),
(1368,262,o),
(1368,724,cs),
(1368,1186,o),
(1118,1476,o),
(720,1476,cs),
(322,1476,o),
(72,1186,o),
(72,724,cs),
(72,262,o),
(322,-28,o),
(720,-28,cs)
);
},
{
closed = 1;
nodes = (
(564,356,o),
(476,488,o),
(476,724,cs),
(476,960,o),
(564,1092,o),
(720,1092,cs),
(876,1092,o),
(964,960,o),
(964,724,cs),
(964,488,o),
(876,356,o),
(720,356,cs)
);
}
);
width = 1440;
},
{
associatedMasterId = "94F54C43-8AEE-4ED6-B3C2-2A9D33534E61";
layerId = "ED50F311-3F6E-44BD-B132-F8CAE1BD825A";
metricLeft = "=O*1.1";
metricRight = "=|zero";
name = "100%";
shapes = (
{
attr = {
strokeHeight = 384;
strokeWidth = 404;
};
closed = 1;
nodes = (
(1148,164,o),
(1388,404,o),
(1388,724,cs),
(1388,1044,o),
(1148,1284,o),
(828,1284,cs),
(508,1284,o),
(268,1044,o),
(268,724,cs),
(268,404,o),
(508,164,o),
(828,164,cs)
);
}
);
width = 1656;
},
{
associatedMasterId = "94F54C43-8AEE-4ED6-B3C2-2A9D33534E61";
layerId = "9DC251AE-D568-4C72-9154-23E4CCD80F4D";
metricLeft = "=O*1.1";
metricRight = "=|zero";
name = "80%";
shapes = (
{
attr = {
strokeHeight = 384;
strokeWidth = 404;
};
closed = 1;
nodes = (
(988,164,o),
(1160,380,o),
(1160,724,cs),
(1160,1068,o),
(988,1284,o),
(714,1284,cs),
(440,1284,o),
(268,1068,o),
(268,724,cs),
(268,380,o),
(440,164,o),
(714,164,cs)
);
}
);
width = 1428;
},
{
associatedMasterId = "94F54C43-8AEE-4ED6-B3C2-2A9D33534E61";
layerId = "27BF8C61-8241-434E-9BAA-CD27C7ECC228";
metricLeft = "=O*1.1";
metricRight = "=|zero";
name = "San Francisco";
shapes = (
{
closed = 1;
nodes = (
(1144,-26,o),
(1358,296,o),
(1358,722,cs),
(1358,724,ls),
(1358,1156,o),
(1138,1470,o),
(714,1470,cs),
(288,1470,o),
(66,1152,o),
(66,724,cs),
(66,722,ls),
(66,294,o),
(288,-26,o),
(714,-26,cs)
);
},
{
closed = 1;
nodes = (
(532,300,o),
(496,540,o),
(496,722,cs),
(496,724,ls),
(496,904,o),
(534,1144,o),
(714,1144,cs),
(894,1144,o),
(930,904,o),
(930,724,cs),
(930,722,ls),
(930,542,o),
(892,300,o),
(714,300,cs)
);
}
);
width = 1424;
}
);
unicode = 48;
},
{
glyphname = one;
kernLeft = one;
kernRight = one;
layers = (
{
associatedMasterId = m01;
background = {
shapes = (
{
attr = {
strokeHeight = 168;
strokeWidth = 176;
};
closed = 0;
nodes = (
(616,0,l),
(616,1448,l)
);
},
{
attr = {
lineCapStart = "4";
strokeHeight = 168;
strokeWidth = 176;
};
closed = 0;
nodes = (
(528,1340,l),
(174,1068,l)
);
}
);
};
layerId = "7518C0B7-EAA1-4E2A-BC1B-02ACEFC63A4B";
metricLeft = "=|f*1.2";
metricRight = "=I*1.5";
name = "Avenir Base";
shapes = (
{
closed = 1;
nodes = (
(704,0,l),
(704,1448,l),
(528,1448,l),
(528,0,l)
);
},
{
closed = 1;
nodes = (
(528,1232,l),
(528,1448,l),
(120,1136,l),
(228,1002,l)
);
}
);
width = 914;
},
{
associatedMasterId = m01;
background = {
shapes = (
{
attr = {
strokeHeight = 168;
strokeWidth = 176;
};
closed = 0;
nodes = (
(552,0,l),
(552,1448,l)
);
},
{
attr = {
lineCapEnd = "4";
lineCapStart = "4";
strokeHeight = 168;
strokeWidth = 176;
};
closed = 0;
nodes = (
(464,1344,l),
(120,1104,l)
);
}
);
};
layerId = "948D6AB0-AE00-47CA-BA3F-21BBE3E770E5";
metricLeft = "=|f*1.2";
metricRight = "=|one*2";
name = "San Francisco Base";
shapes = (
{
closed = 1;
nodes = (
(640,0,l),
(640,1448,l),
(464,1448,l),
(464,0,l)
);
},
{
closed = 1;
nodes = (
(464,1240,l),
(464,1448,l),
(120,1208,l),
(120,1000,l)
);
}
);
width = 880;
},
{
associatedMasterId = "94F54C43-8AEE-4ED6-B3C2-2A9D33534E61";
background = {
shapes = (
{
attr = {
strokeHeight = 384;
strokeWidth = 416;
};
closed = 0;
nodes = (
(762,0,l),
(762,1448,l)
);
},
{
attr = {
lineCapStart = "4";
strokeWidth = 384;
};
closed = 0;
nodes = (
(554,1202,l),
(210,930,l)
);
}
);
};
layerId = "7ECBA32E-0D93-4ABA-BC2E-771B8B8DC929";
metricLeft = "=|f*1.1";
metricRight = "=I*1.5";
name = "Avenir Base";
shapes = (
{
closed = 1;
nodes = (
(972,0,l),
(972,1448,l),
(556,1448,l),
(556,0,l)
);
},
{
closed = 1;
nodes = (
(556,958,l),
(556,1448,l),
(92,1082,l),
(330,780,l)
);
}
);
width = 1146;
},
{
associatedMasterId = "94F54C43-8AEE-4ED6-B3C2-2A9D33534E61";
background = {
shapes = (
{
attr = {
strokeHeight = 384;
strokeWidth = 416;
};
closed = 0;
nodes = (
(652,0,l),
(652,1448,l)
);
},
{
attr = {
lineCapEnd = "4";
lineCapStart = "4";
strokeWidth = 360;
};
closed = 0;
nodes = (
(444,1228,l),
(100,988,l)
);
}
);
};
layerId = "2A5D14AB-34FA-4792-BEFF-4BD682193A68";
metricLeft = "=|f*1.19";
metricRight = "=|one*2";
name = "San Francisco Base";
shapes = (
{
closed = 1;
nodes = (
(860,0,l),
(860,1448,l),
(444,1448,l),
(444,0,l)
);
},
{
closed = 1;
nodes = (
(444,1010,l),
(444,1448,l),
(100,1208,l),
(100,770,l)
);
}
);
width = 1060;
},
{
associatedMasterId = m01;
background = {
shapes = (
{
attr = {
strokeHeight = 168;
strokeWidth = 176;
};
closed = 0;
nodes = (
(552,0,l),
(552,1448,l)
);
},
{
attr = {
lineCapEnd = "4";
lineCapStart = "4";
strokeHeight = 168;
strokeWidth = 176;
};
closed = 0;
nodes = (
(464,1334,l),
(350,1238,o),
(234,1158,o),
(120,1094,c)
);
}
);
};
layerId = "CFC86232-D083-4CD5-B3E9-D6ABF10DCD87";
metricLeft = "=|f*1.2";
metricRight = "=|one*2";
name = "Univers Base";
shapes = (
{
closed = 1;
nodes = (
(640,0,l),
(640,1448,l),
(464,1448,l),
(464,0,l)
);
},
{
closed = 1;
nodes = (
(234,1058,o),
(352,1134,o),
(464,1224,c),
(464,1448,l),
(348,1344,o),
(234,1260,o),
(120,1192,c),
(120,998,l)
);
}
);
width = 880;
},
{
associatedMasterId = "94F54C43-8AEE-4ED6-B3C2-2A9D33534E61";
background = {
shapes = (
{
attr = {
strokeHeight = 384;
strokeWidth = 416;
};
closed = 0;
nodes = (
(652,0,l),
(652,1448,l)
);
},
{
attr = {
lineCapEnd = "4";
lineCapStart = "4";
strokeWidth = 360;
};
closed = 0;
nodes = (
(444,1206,l),
(330,1110,o),
(214,1030,o),
(100,966,c)
);
}
);
};
layerId = "3FC4B4A1-B5EC-4516-B413-1B7A3EF344F4";
metricLeft = "=|f*1.19";
metricRight = "=|one*2";
name = "Univers Base";
shapes = (
{
closed = 1;
nodes = (
(860,0,l),
(860,1448,l),
(444,1448,l),
(444,0,l)
);
},
{
closed = 1;
nodes = (
(210,818,o),
(328,910,o),
(444,1008,c),
(444,1448,l),
(326,1336,o),
(214,1248,o),
(100,1176,c),
(100,762,l)
);
}
);
width = 1060;
},
{
background = {
shapes = (
{
attr = {
strokeHeight = 384;
strokeWidth = 416;
};
closed = 0;
nodes = (
(652,0,l),
(652,1448,l)
);
},
{
attr = {
lineCapEnd = "4";
lineCapStart = "4";
strokeWidth = 360;
};
closed = 0;
nodes = (
(444,1206,l),
(330,1110,o),
(214,1030,o),
(100,966,c)
);
}
);
};
layerId = "94F54C43-8AEE-4ED6-B3C2-2A9D33534E61";
name = Black;
shapes = (
{
closed = 1;
nodes = (
(860,0,l),
(860,1448,l),
(444,1448,l),
(444,0,l)
);
},
{
closed = 1;
nodes = (
(210,818,o),
(328,910,o),
(444,1008,c),
(444,1448,l),
(328,1336,o),
(214,1248,o),
(100,1176,c),
(100,762,l)
);
}
);
width = 1060;
},
{
background = {
shapes = (
{
attr = {
strokeHeight = 168;
strokeWidth = 176;
};
closed = 0;
nodes = (
(552,0,l),
(552,1448,l)
);
},
{
attr = {
lineCapEnd = "4";
lineCapStart = "4";
strokeHeight = 168;
strokeWidth = 176;
};
closed = 0;
nodes = (
(464,1334,l),
(350,1238,o),
(234,1158,o),
(120,1094,c)
);
}
);
};
layerId = m01;
name = Regular;
shapes = (
{
closed = 1;
nodes = (
(640,0,l),
(640,1448,l),
(464,1448,l),
(464,0,l)
);
},
{
closed = 1;
nodes = (
(232,1058,o),
(350,1134,o),
(464,1224,c),
(464,1448,l),
(346,1344,o),
(232,1260,o),
(120,1192,c),
(120,998,l)
);
}
);
width = 880;
}
);
unicode = 49;
},
{
glyphname = two;
kernLeft = two;
kernRight = two;
layers = (
{
background = {
shapes = (
{
attr = {
lineCapEnd = 3;
strokeHeight = 168;
strokeWidth = 180;
};
closed = 0;
nodes = (
(206,1142,l),
(288,1308,o),
(412,1392,o),
(582,1392,cs),
(798,1392,o),
(958,1258,o),
(958,1032,cs),
(958,750,o),
(708,458,o),
(220,124,c),
(220,84,l),
(990,84,l)
);
}
);
};
layerId = m01;
shapes = (
{
closed = 1;
nodes = (
(1072,0,l),
(1072,168,l),
(420,168,l),
(420,192,l),
(412,168,l),
(816,470,o),
(1050,748,o),
(1050,1032,cs),
(1050,1308,o),
(846,1476,o),
(584,1476,cs),
(372,1476,o),
(222,1368,o),
(128,1176,c),
(290,1102,l),
(360,1246,o),
(448,1308,o),
(584,1308,cs),
(754,1308,o),
(870,1210,o),
(870,1032,cs),
(870,788,o),
(638,516,o),
(128,168,c),
(128,0,l)
);
}
);
width = 1200;
},
{
associatedMasterId = m01;
background = {
shapes = (
{
attr = {
strokeHeight = 168;
strokeWidth = 180;
};
closed = 0;
nodes = (
(128,84,l),
(1072,84,l)
);
},
{
closed = 0;
nodes = (
(600,376,l),
(600,256,l)
);
},
{
attr = {
strokeHeight = 168;
strokeWidth = 180;
};
closed = 0;
nodes = (
(520,736,l),
(792,736,o),
(960,864,o),
(960,1062,cs),
(960,1260,o),
(800,1392,o),
(584,1392,cs),
(414,1392,o),
(290,1306,o),
(208,1138,c)
);
},
{
attr = {
strokeHeight = 168;
strokeWidth = 180;
};
closed = 1;
nodes = (
(806,736,o),
(960,870,o),
(960,1062,cs),
(960,1258,o),
(806,1392,o),
(584,1392,cs),
(362,1392,o),
(208,1258,o),
(208,1062,cs),
(208,870,o),
(362,736,o),
(584,736,cs)
);
}
);
};
layerId = "A965DE02-8A5E-49D4-82CF-0DB0654D1ECD";
name = Base;
width = 1200;
},
{
associatedMasterId = m01;
background = {
shapes = (
{
attr = {
strokeHeight = 168;
strokeWidth = 180;
};
closed = 0;
nodes = (
(208,1138,l),
(290,1306,o),
(410,1392,o),
(584,1392,cs),
(798,1392,o),
(960,1262,o),
(960,1062,cs),
(960,870,o),
(808,736,o),
(542,464,cs),
(218,134,l),
(218,84,l),
(1072,84,l)
);
}
);
};
layerId = "5E671D78-FC28-4821-91D2-89579710E9C4";
name = Straight;
shapes = (
{
closed = 1;
nodes = (
(1072,0,l),
(1072,168,l),
(382,168,l),
(382,192,l),
(374,168,l),
(606,406,ls),
(872,680,o),
(1050,832,o),
(1050,1062,cs),
(1050,1312,o),
(846,1476,o),
(584,1476,cs),
(372,1476,o),
(222,1368,o),
(128,1176,c),
(290,1102,l),
(360,1246,o),
(448,1308,o),
(584,1308,cs),
(750,1308,o),
(870,1216,o),
(870,1062,cs),
(870,908,o),
(744,794,o),
(478,524,cs),
(128,168,l),
(128,0,l)
);
}
);
width = 1200;
},
{
associatedMasterId = m01;
background = {
shapes = (
{
attr = {
strokeHeight = 168;
strokeWidth = 180;
};
closed = 0;
nodes = (
(208,1138,l),
(290,1306,o),
(410,1392,o),
(584,1392,cs),
(800,1392,o),
(960,1258,o),
(960,1032,cs),
(960,750,o),
(706,458,o),
(218,124,c),
(218,84,l),
(1072,84,l)
);
}
);
};
layerId = "1982D862-82F5-4C30-99C0-FF6CF74FDCCC";
name = Curve;
shapes = (
{
closed = 1;
nodes = (
(1072,0,l),
(1072,168,l),
(420,168,l),
(420,192,l),
(412,168,l),
(816,470,o),
(1050,748,o),
(1050,1032,cs),
(1050,1308,o),
(846,1476,o),
(584,1476,cs),
(372,1476,o),
(222,1368,o),
(128,1176,c),
(290,1102,l),
(360,1246,o),
(448,1308,o),
(584,1308,cs),
(754,1308,o),
(870,1210,o),
(870,1032,cs),
(870,788,o),
(638,516,o),
(128,168,c),
(128,0,l)
);
}
);
width = 1200;
},
{
associatedMasterId = m01;
background = {
shapes = (
{
closed = 1;
nodes = (
(1096,0,l),
(1096,160,l),
(332,160,l),
(386,110,l),
(386,222,l),
(332,110,l),
(730,520,ls),
(890,682,o),
(1070,860,o),
(1070,1070,cs),
(1070,1072,ls),
(1070,1318,o),
(862,1476,o),
(616,1476,cs),
(380,1476,o),
(128,1324,o),
(128,1032,c),
(304,1032,l),
(304,1038,ls),
(304,1196,o),
(438,1318,o),
(620,1318,cs),
(778,1318,o),
(890,1212,o),
(890,1064,cs),
(890,1062,ls),
(890,894,o),
(740,754,o),
(648,658,cs),
(138,124,l),
(138,0,l)
);
}
);
};
layerId = "31B16477-3A67-41D0-8487-6621B2F28851";
name = "San Francisco";
shapes = (
{
closed = 1;
nodes = (
(1096,0,l),
(1096,160,l),
(332,160,l),
(386,110,l),
(386,222,l),
(332,110,l),
(730,520,ls),
(890,682,o),
(1070,860,o),
(1070,1070,cs),
(1070,1072,ls),
(1070,1318,o),
(862,1476,o),
(616,1476,cs),
(380,1476,o),
(128,1324,o),
(128,1032,c),
(304,1032,l),
(304,1038,ls),
(304,1196,o),
(438,1318,o),
(620,1318,cs),
(778,1318,o),
(890,1212,o),
(890,1064,cs),
(890,1062,ls),
(890,894,o),
(740,754,o),
(648,658,cs),
(138,124,l),
(138,0,l)
);
}
);
width = 1240;
},
{
associatedMasterId = "94F54C43-8AEE-4ED6-B3C2-2A9D33534E61";
background = {
shapes = (
{
attr = {
strokeHeight = 384;
strokeWidth = 404;
};
closed = 0;
nodes = (
(554,652,l),
(588,652,ls),
(844,652,o),
(1002,764,o),
(1002,968,cs),
(1002,1154,o),
(868,1284,o),
(654,1284,cs),
(468,1284,o),
(332,1188,o),
(290,1032,c)
);
},
{
attr = {
strokeHeight = 384;
strokeWidth = 404;
};
closed = 1;
nodes = (
(868,652,o),
(1002,774,o),
(1002,968,cs),
(1002,1162,o),
(868,1284,o),
(654,1284,cs),
(440,1284,o),
(306,1162,o),
(306,968,cs),
(306,774,o),
(440,652,o),
(654,652,cs)
);
},
{
attr = {
strokeHeight = 360;
strokeWidth = 404;
};
closed = 0;
nodes = (
(120,180,l),
(1224,180,l)
);
}
);
};
layerId = "5D305865-6419-4D7E-9F6B-4CE3DBC6FD64";
name = Base;
width = 1320;
},
{
associatedMasterId = "94F54C43-8AEE-4ED6-B3C2-2A9D33534E61";
background = {
shapes = (
{
attr = {
lineCapEnd = "3";
strokeHeight = 360;
strokeWidth = 404;
};
closed = 0;
nodes = (
(322,180,l),
(1044,180,l)
);
},
{
attr = {
lineCapEnd = "3";
strokeHeight = 384;
strokeWidth = 404;
};
closed = 0;
nodes = (
(290,1032,l),
(332,1188,o),
(468,1284,o),
(654,1284,cs),
(868,1284,o),
(1002,1160,o),
(1002,976,cs),
(1002,854,o),
(940,750,o),
(826,656,cs),
(322,240,l),
(322,202,l)
);
}
);
};
layerId = "0C714FB8-364C-43FD-A93A-DD461F77D946";
name = Straight;
shapes = (
{
closed = 1;
nodes = (
(1224,0,l),
(1224,360,l),
(738,360,l),
(738,384,l),
(728,360,l),
(956,544,ls),
(1112,670,o),
(1204,782,o),
(1204,968,cs),
(1204,1230,o),
(1018,1476,o),
(654,1476,cs),
(362,1476,o),
(158,1318,o),
(96,1082,c),
(486,982,l),
(506,1064,o),
(566,1112,o),
(646,1112,cs),
(736,1112,o),
(800,1052,o),
(800,968,cs),
(800,910,o),
(770,864,o),
(698,804,cs),
(120,328,l),
(120,0,l)
);
}
);
width = 1320;
},
{
associatedMasterId = "94F54C43-8AEE-4ED6-B3C2-2A9D33534E61";
background = {
shapes = (
{
attr = {
lineCapEnd = "3";
strokeHeight = 384;
strokeWidth = 404;
};
closed = 0;
nodes = (
(290,1032,l),
(332,1188,o),
(468,1284,o),
(654,1284,cs),
(868,1284,o),
(1002,1160,o),
(1002,976,cs),
(1002,730,o),
(762,484,o),
(322,240,c),
(322,202,l)
);
},
{
attr = {
lineCapEnd = "3";
strokeHeight = 360;
strokeWidth = 404;
};
closed = 0;
nodes = (
(322,180,l),
(1044,180,l)
);
}
);
};
layerId = "14830F52-75DE-4E15-BAB7-EEFE88FF04BE";
name = Curve;
shapes = (
{
closed = 1;
nodes = (
(1224,0,l),
(1224,360,l),
(746,360,l),
(746,384,l),
(738,360,l),
(1076,550,o),
(1204,752,o),
(1204,968,cs),
(1204,1230,o),
(1018,1476,o),
(654,1476,cs),
(362,1476,o),
(158,1318,o),
(96,1082,c),
(486,982,l),
(506,1064,o),
(564,1112,o),
(646,1112,cs),
(740,1112,o),
(800,1048,o),
(800,952,cs),
(800,778,o),
(600,606,o),
(120,352,c),
(120,0,l)
);
}
);
width = 1320;
},
{
associatedMasterId = "94F54C43-8AEE-4ED6-B3C2-2A9D33534E61";
background = {
shapes = (
{
closed = 1;
nodes = (
(136,0,l),
(1250,0,l),
(1250,322,l),
(564,322,l),
(680,246,l),
(680,426,l),
(564,246,l),
(878,510,ls),
(1050,654,o),
(1232,828,o),
(1232,1040,cs),
(1232,1342,o),
(972,1476,o),
(682,1476,cs),
(458,1476,o),
(110,1374,o),
(110,978,c),
(484,978,l),
(484,1114,o),
(580,1164,o),
(668,1164,cs),
(742,1164,o),
(834,1136,o),
(834,1008,cs),
(834,896,o),
(636,730,o),
(564,668,cs),
(136,280,l)
);
}
);
};
layerId = "021A8C37-30D7-450B-989E-4409E3F07836";
name = "San Francisco";
shapes = (
{
closed = 1;
nodes = (
(136,0,l),
(1250,0,l),
(1250,322,l),
(564,322,l),
(680,246,l),
(680,426,l),
(564,246,l),
(878,510,ls),
(1050,654,o),
(1232,828,o),
(1232,1040,cs),
(1232,1342,o),
(972,1476,o),
(682,1476,cs),
(458,1476,o),
(110,1374,o),
(110,978,c),
(484,978,l),
(484,1114,o),
(580,1164,o),
(668,1164,cs),
(742,1164,o),
(834,1136,o),
(834,1008,cs),
(834,896,o),
(636,730,o),
(564,668,cs),
(136,280,l)
);
}
);
width = 1360;
},
{
background = {
shapes = (
{
attr = {
lineCapEnd = "3";
strokeHeight = 384;
strokeWidth = 404;
};
closed = 0;
nodes = (
(290,1032,l),
(332,1188,o),
(468,1284,o),
(654,1284,cs),
(868,1284,o),
(1002,1160,o),
(1002,976,cs),
(1002,730,o),
(762,484,o),
(322,240,c),
(322,202,l)
);
},
{
attr = {
lineCapEnd = "3";
strokeHeight = 360;
strokeWidth = 404;
};
closed = 0;
nodes = (
(322,180,l),
(1044,180,l)
);
}
);
};
layerId = "94F54C43-8AEE-4ED6-B3C2-2A9D33534E61";
name = Black;
shapes = (
{
closed = 1;
nodes = (
(1224,0,l),
(1224,360,l),
(746,360,l),
(746,384,l),
(738,360,l),
(1076,550,o),
(1204,752,o),
(1204,968,cs),
(1204,1230,o),
(1018,1476,o),
(654,1476,cs),
(362,1476,o),
(158,1318,o),
(96,1082,c),
(486,982,l),
(506,1064,o),
(564,1112,o),
(646,1112,cs),
(740,1112,o),
(800,1048,o),
(800,952,cs),
(800,778,o),
(600,606,o),
(120,352,c),
(120,0,l)
);
}
);
width = 1320;
}
);
unicode = 50;
},
